%TF.GenerationSoftware,KiCad,Pcbnew,8.0.1*%
%TF.CreationDate,2024-04-25T09:29:02+05:30*%
%TF.ProjectId,Brushed Speed Controller,42727573-6865-4642-9053-706565642043,rev?*%
%TF.SameCoordinates,Original*%
%TF.FileFunction,Paste,Top*%
%TF.FilePolarity,Positive*%
%FSLAX46Y46*%
G04 Gerber Fmt 4.6, Leading zero omitted, Abs format (unit mm)*
G04 Created by KiCad (PCBNEW 8.0.1) date 2024-04-25 09:29:02*
%MOMM*%
%LPD*%
G01*
G04 APERTURE LIST*
%ADD10C,0.000000*%
%ADD11R,0.711200X0.406400*%
%ADD12R,3.987800X1.727200*%
G04 APERTURE END LIST*
D10*
%TO.C,U5*%
G36*
X177749708Y-96126300D02*
G01*
X177343308Y-96090800D01*
X177343308Y-95608200D01*
X174929800Y-95605600D01*
X174929800Y-96189800D01*
X174421800Y-96189800D01*
X174421800Y-95605600D01*
X173761908Y-95603060D01*
X173761908Y-93875860D01*
X177749708Y-93875860D01*
X177749708Y-96126300D01*
G37*
G36*
X174929800Y-91643200D02*
G01*
X177343308Y-91645800D01*
X177343308Y-91163200D01*
X177749708Y-91163200D01*
X177749708Y-93373000D01*
X173761908Y-93373000D01*
X173761908Y-91645800D01*
X174421800Y-91643200D01*
X174421800Y-91059000D01*
X174929800Y-91059000D01*
X174929800Y-91643200D01*
G37*
%TO.C,U3*%
G36*
X177696109Y-86728300D02*
G01*
X177289709Y-86692800D01*
X177289709Y-86210200D01*
X174876201Y-86207600D01*
X174876201Y-86791800D01*
X174368201Y-86791800D01*
X174368201Y-86207600D01*
X173708309Y-86205060D01*
X173708309Y-84477860D01*
X177696109Y-84477860D01*
X177696109Y-86728300D01*
G37*
G36*
X174876201Y-82245200D02*
G01*
X177289709Y-82247800D01*
X177289709Y-81765200D01*
X177696109Y-81765200D01*
X177696109Y-83975000D01*
X173708309Y-83975000D01*
X173708309Y-82247800D01*
X174368201Y-82245200D01*
X174368201Y-81661000D01*
X174876201Y-81661000D01*
X174876201Y-82245200D01*
G37*
%TD*%
D11*
%TO.C,U5*%
X171960799Y-91719400D03*
X171960799Y-92989400D03*
X171960799Y-94259400D03*
X171960799Y-95529400D03*
D12*
X175755808Y-92509400D03*
X175755808Y-94739460D03*
%TD*%
D11*
%TO.C,U3*%
X171907200Y-82321400D03*
X171907200Y-83591400D03*
X171907200Y-84861400D03*
X171907200Y-86131400D03*
D12*
X175702209Y-83111400D03*
X175702209Y-85341460D03*
%TD*%
M02*
