%TF.GenerationSoftware,KiCad,Pcbnew,8.0.1*%
%TF.CreationDate,2024-04-25T09:29:02+05:30*%
%TF.ProjectId,Brushed Speed Controller,42727573-6865-4642-9053-706565642043,rev?*%
%TF.SameCoordinates,Original*%
%TF.FileFunction,Soldermask,Top*%
%TF.FilePolarity,Negative*%
%FSLAX46Y46*%
G04 Gerber Fmt 4.6, Leading zero omitted, Abs format (unit mm)*
G04 Created by KiCad (PCBNEW 8.0.1) date 2024-04-25 09:29:02*
%MOMM*%
%LPD*%
G01*
G04 APERTURE LIST*
G04 Aperture macros list*
%AMRoundRect*
0 Rectangle with rounded corners*
0 $1 Rounding radius*
0 $2 $3 $4 $5 $6 $7 $8 $9 X,Y pos of 4 corners*
0 Add a 4 corners polygon primitive as box body*
4,1,4,$2,$3,$4,$5,$6,$7,$8,$9,$2,$3,0*
0 Add four circle primitives for the rounded corners*
1,1,$1+$1,$2,$3*
1,1,$1+$1,$4,$5*
1,1,$1+$1,$6,$7*
1,1,$1+$1,$8,$9*
0 Add four rect primitives between the rounded corners*
20,1,$1+$1,$2,$3,$4,$5,0*
20,1,$1+$1,$4,$5,$6,$7,0*
20,1,$1+$1,$6,$7,$8,$9,0*
20,1,$1+$1,$8,$9,$2,$3,0*%
%AMFreePoly0*
4,1,6,1.000000,0.000000,0.500000,-0.750000,-0.500000,-0.750000,-0.500000,0.750000,0.500000,0.750000,1.000000,0.000000,1.000000,0.000000,$1*%
%AMFreePoly1*
4,1,6,0.500000,-0.750000,-0.650000,-0.750000,-0.150000,0.000000,-0.650000,0.750000,0.500000,0.750000,0.500000,-0.750000,0.500000,-0.750000,$1*%
G04 Aperture macros list end*
%ADD10C,0.000000*%
%ADD11C,1.600000*%
%ADD12O,1.600000X1.600000*%
%ADD13R,1.600000X1.600000*%
%ADD14FreePoly0,0.000000*%
%ADD15FreePoly1,0.000000*%
%ADD16RoundRect,0.102000X-0.669000X-0.669000X0.669000X-0.669000X0.669000X0.669000X-0.669000X0.669000X0*%
%ADD17C,1.542000*%
%ADD18R,1.905000X2.000000*%
%ADD19O,1.905000X2.000000*%
%ADD20R,2.600000X2.600000*%
%ADD21C,2.600000*%
%ADD22R,0.711200X0.406400*%
%ADD23R,3.987800X1.727200*%
G04 APERTURE END LIST*
D10*
%TO.C,U5*%
G36*
X177749708Y-96126300D02*
G01*
X177343308Y-96090800D01*
X177343308Y-95608200D01*
X174929800Y-95605600D01*
X174929800Y-96189800D01*
X174421800Y-96189800D01*
X174421800Y-95605600D01*
X173761908Y-95603060D01*
X173761908Y-93875860D01*
X177749708Y-93875860D01*
X177749708Y-96126300D01*
G37*
G36*
X174929800Y-91643200D02*
G01*
X177343308Y-91645800D01*
X177343308Y-91163200D01*
X177749708Y-91163200D01*
X177749708Y-93373000D01*
X173761908Y-93373000D01*
X173761908Y-91645800D01*
X174421800Y-91643200D01*
X174421800Y-91059000D01*
X174929800Y-91059000D01*
X174929800Y-91643200D01*
G37*
%TO.C,U3*%
G36*
X177696109Y-86728300D02*
G01*
X177289709Y-86692800D01*
X177289709Y-86210200D01*
X174876201Y-86207600D01*
X174876201Y-86791800D01*
X174368201Y-86791800D01*
X174368201Y-86207600D01*
X173708309Y-86205060D01*
X173708309Y-84477860D01*
X177696109Y-84477860D01*
X177696109Y-86728300D01*
G37*
G36*
X174876201Y-82245200D02*
G01*
X177289709Y-82247800D01*
X177289709Y-81765200D01*
X177696109Y-81765200D01*
X177696109Y-83975000D01*
X173708309Y-83975000D01*
X173708309Y-82247800D01*
X174368201Y-82245200D01*
X174368201Y-81661000D01*
X174876201Y-81661000D01*
X174876201Y-82245200D01*
G37*
%TD*%
D11*
%TO.C,R7*%
X143611600Y-120700800D03*
D12*
X143611600Y-110540800D03*
%TD*%
D11*
%TO.C,R4*%
X167132000Y-102565200D03*
D12*
X156972000Y-102565200D03*
%TD*%
D13*
%TO.C,C1*%
X163322000Y-90972451D03*
D11*
X163322000Y-85972451D03*
%TD*%
%TO.C,R6*%
X144119600Y-106730800D03*
D12*
X154279600Y-106730800D03*
%TD*%
D14*
%TO.C,JP2*%
X120550000Y-71000000D03*
D15*
X122000000Y-71000000D03*
%TD*%
D11*
%TO.C,R8*%
X146583400Y-110921800D03*
D12*
X156743400Y-110921800D03*
%TD*%
D16*
%TO.C,U2*%
X145671749Y-95580200D03*
D17*
X145671749Y-98120200D03*
X145671749Y-100660200D03*
X145671749Y-103200200D03*
X153611749Y-103200200D03*
X153611749Y-100660200D03*
X153611749Y-98120200D03*
X153611749Y-95580200D03*
%TD*%
D11*
%TO.C,R5*%
X140335000Y-116332000D03*
D12*
X140335000Y-106172000D03*
%TD*%
D13*
%TO.C,C5*%
X130000000Y-67597349D03*
D11*
X130000000Y-72597349D03*
%TD*%
D18*
%TO.C,U4*%
X130460000Y-63945000D03*
D19*
X133000000Y-63945000D03*
X135540000Y-63945000D03*
%TD*%
D20*
%TO.C,J1*%
X119500000Y-63000000D03*
D21*
X123000000Y-63000000D03*
%TD*%
D13*
%TO.C,C2*%
X152120600Y-89027000D03*
D11*
X147120600Y-89027000D03*
%TD*%
%TO.C,R2*%
X157312549Y-77698600D03*
D12*
X167472549Y-77698600D03*
%TD*%
D16*
%TO.C,U1*%
X145366949Y-73863200D03*
D17*
X145366949Y-76403200D03*
X145366949Y-78943200D03*
X145366949Y-81483200D03*
X153306949Y-81483200D03*
X153306949Y-78943200D03*
X153306949Y-76403200D03*
X153306949Y-73863200D03*
%TD*%
D13*
%TO.C,A1*%
X119202200Y-79552800D03*
D12*
X119202200Y-82092800D03*
X119202200Y-84632800D03*
X119202200Y-87172800D03*
X119202200Y-89712800D03*
X119202200Y-92252800D03*
X119202200Y-94792800D03*
X119202200Y-97332800D03*
X119202200Y-99872800D03*
X119202200Y-102412800D03*
X119202200Y-104952800D03*
X119202200Y-107492800D03*
X119202200Y-110032800D03*
X119202200Y-112572800D03*
X119202200Y-115112800D03*
X134442200Y-115112800D03*
X134442200Y-112572800D03*
X134442200Y-110032800D03*
X134442200Y-107492800D03*
X134442200Y-104952800D03*
X134442200Y-102412800D03*
X134442200Y-99872800D03*
X134442200Y-97332800D03*
X134442200Y-94792800D03*
X134442200Y-92252800D03*
X134442200Y-89712800D03*
X134442200Y-87172800D03*
X134442200Y-84632800D03*
X134442200Y-82092800D03*
X134442200Y-79552800D03*
%TD*%
D13*
%TO.C,C4*%
X139000000Y-68000000D03*
D11*
X139000000Y-73000000D03*
%TD*%
D20*
%TO.C,J2*%
X184556400Y-87279600D03*
D21*
X184556400Y-90779600D03*
%TD*%
D11*
%TO.C,R1*%
X157287149Y-74142600D03*
D12*
X167447149Y-74142600D03*
%TD*%
D22*
%TO.C,U5*%
X171960799Y-91719400D03*
X171960799Y-92989400D03*
X171960799Y-94259400D03*
X171960799Y-95529400D03*
D23*
X175755808Y-92509400D03*
X175755808Y-94739460D03*
%TD*%
D11*
%TO.C,R3*%
X167218549Y-98018600D03*
D12*
X157058549Y-98018600D03*
%TD*%
D22*
%TO.C,U3*%
X171907200Y-82321400D03*
X171907200Y-83591400D03*
X171907200Y-84861400D03*
X171907200Y-86131400D03*
D23*
X175702209Y-83111400D03*
X175702209Y-85341460D03*
%TD*%
D13*
%TO.C,C3*%
X151724549Y-67919600D03*
D11*
X146724549Y-67919600D03*
%TD*%
M02*
