%TF.GenerationSoftware,KiCad,Pcbnew,8.0.1*%
%TF.CreationDate,2024-04-25T09:29:02+05:30*%
%TF.ProjectId,Brushed Speed Controller,42727573-6865-4642-9053-706565642043,rev?*%
%TF.SameCoordinates,Original*%
%TF.FileFunction,Copper,L1,Top*%
%TF.FilePolarity,Positive*%
%FSLAX46Y46*%
G04 Gerber Fmt 4.6, Leading zero omitted, Abs format (unit mm)*
G04 Created by KiCad (PCBNEW 8.0.1) date 2024-04-25 09:29:02*
%MOMM*%
%LPD*%
G01*
G04 APERTURE LIST*
G04 Aperture macros list*
%AMFreePoly0*
4,1,6,1.000000,0.000000,0.500000,-0.750000,-0.500000,-0.750000,-0.500000,0.750000,0.500000,0.750000,1.000000,0.000000,1.000000,0.000000,$1*%
%AMFreePoly1*
4,1,6,0.500000,-0.750000,-0.650000,-0.750000,-0.150000,0.000000,-0.650000,0.750000,0.500000,0.750000,0.500000,-0.750000,0.500000,-0.750000,$1*%
G04 Aperture macros list end*
%TA.AperFunction,Conductor*%
%ADD10C,0.200000*%
%TD*%
%TA.AperFunction,EtchedComponent*%
%ADD11C,0.000000*%
%TD*%
%TA.AperFunction,ComponentPad*%
%ADD12C,1.600000*%
%TD*%
%TA.AperFunction,ComponentPad*%
%ADD13O,1.600000X1.600000*%
%TD*%
%TA.AperFunction,ComponentPad*%
%ADD14R,1.600000X1.600000*%
%TD*%
%TA.AperFunction,SMDPad,CuDef*%
%ADD15FreePoly0,0.000000*%
%TD*%
%TA.AperFunction,SMDPad,CuDef*%
%ADD16FreePoly1,0.000000*%
%TD*%
%TA.AperFunction,ComponentPad*%
%ADD17R,1.338000X1.338000*%
%TD*%
%TA.AperFunction,ComponentPad*%
%ADD18C,1.338000*%
%TD*%
%TA.AperFunction,ComponentPad*%
%ADD19R,1.905000X2.000000*%
%TD*%
%TA.AperFunction,ComponentPad*%
%ADD20O,1.905000X2.000000*%
%TD*%
%TA.AperFunction,ComponentPad*%
%ADD21R,2.600000X2.600000*%
%TD*%
%TA.AperFunction,ComponentPad*%
%ADD22C,2.600000*%
%TD*%
%TA.AperFunction,SMDPad,CuDef*%
%ADD23R,0.711200X0.406400*%
%TD*%
%TA.AperFunction,SMDPad,CuDef*%
%ADD24R,3.987800X1.727200*%
%TD*%
%TA.AperFunction,ViaPad*%
%ADD25C,1.000000*%
%TD*%
%TA.AperFunction,ViaPad*%
%ADD26C,0.600000*%
%TD*%
%TA.AperFunction,Conductor*%
%ADD27C,0.400000*%
%TD*%
G04 APERTURE END LIST*
D10*
%TO.N,/OUT2*%
X186080400Y-96139000D02*
X177749708Y-96126300D01*
X174421800Y-96189800D01*
X174421800Y-91059000D01*
X177749708Y-91163200D01*
X181813200Y-91160600D01*
X183210200Y-89382600D01*
X186105800Y-89382600D01*
X186080400Y-96139000D01*
%TA.AperFunction,Conductor*%
G36*
X186080400Y-96139000D02*
G01*
X177749708Y-96126300D01*
X174421800Y-96189800D01*
X174421800Y-91059000D01*
X177749708Y-91163200D01*
X181813200Y-91160600D01*
X183210200Y-89382600D01*
X186105800Y-89382600D01*
X186080400Y-96139000D01*
G37*
%TD.AperFunction*%
%TO.N,/OUT1*%
X186182000Y-88849200D02*
X183159400Y-88849200D01*
X181787800Y-86741000D01*
X174368201Y-86791800D01*
X174368201Y-81661000D01*
X178333400Y-81635600D01*
X186232800Y-81610200D01*
X186182000Y-88849200D01*
%TA.AperFunction,Conductor*%
G36*
X186182000Y-88849200D02*
G01*
X183159400Y-88849200D01*
X181787800Y-86741000D01*
X174368201Y-86791800D01*
X174368201Y-81661000D01*
X178333400Y-81635600D01*
X186232800Y-81610200D01*
X186182000Y-88849200D01*
G37*
%TD.AperFunction*%
D11*
%TA.AperFunction,EtchedComponent*%
%TD*%
%TO.C,U5*%
G36*
X177749708Y-96126300D02*
G01*
X177343308Y-96090800D01*
X177343308Y-95608200D01*
X174929800Y-95605600D01*
X174929800Y-96189800D01*
X174421800Y-96189800D01*
X174421800Y-95605600D01*
X173761908Y-95603060D01*
X173761908Y-93875860D01*
X177749708Y-93875860D01*
X177749708Y-96126300D01*
G37*
%TD.AperFunction*%
%TA.AperFunction,EtchedComponent*%
%TO.C,U5*%
G36*
X174929800Y-91643200D02*
G01*
X177343308Y-91645800D01*
X177343308Y-91163200D01*
X177749708Y-91163200D01*
X177749708Y-93373000D01*
X173761908Y-93373000D01*
X173761908Y-91645800D01*
X174421800Y-91643200D01*
X174421800Y-91059000D01*
X174929800Y-91059000D01*
X174929800Y-91643200D01*
G37*
%TD.AperFunction*%
%TA.AperFunction,EtchedComponent*%
%TO.C,U3*%
G36*
X177696109Y-86728300D02*
G01*
X177289709Y-86692800D01*
X177289709Y-86210200D01*
X174876201Y-86207600D01*
X174876201Y-86791800D01*
X174368201Y-86791800D01*
X174368201Y-86207600D01*
X173708309Y-86205060D01*
X173708309Y-84477860D01*
X177696109Y-84477860D01*
X177696109Y-86728300D01*
G37*
%TD.AperFunction*%
%TA.AperFunction,EtchedComponent*%
G36*
X174876201Y-82245200D02*
G01*
X177289709Y-82247800D01*
X177289709Y-81765200D01*
X177696109Y-81765200D01*
X177696109Y-83975000D01*
X173708309Y-83975000D01*
X173708309Y-82247800D01*
X174368201Y-82245200D01*
X174368201Y-81661000D01*
X174876201Y-81661000D01*
X174876201Y-82245200D01*
G37*
%TD.AperFunction*%
%TD*%
D12*
%TO.P,R7,1*%
%TO.N,GND*%
X143611600Y-120700800D03*
D13*
%TO.P,R7,2*%
%TO.N,Net-(A1-A0)*%
X143611600Y-110540800D03*
%TD*%
D12*
%TO.P,R4,1*%
%TO.N,/VG4*%
X167132000Y-102565200D03*
D13*
%TO.P,R4,2*%
%TO.N,Net-(U2-~{OUT_B})*%
X156972000Y-102565200D03*
%TD*%
D14*
%TO.P,C1,1*%
%TO.N,VCC*%
X163322000Y-90972451D03*
D12*
%TO.P,C1,2*%
%TO.N,GND*%
X163322000Y-85972451D03*
%TD*%
%TO.P,R6,1*%
%TO.N,Net-(A1-A1)*%
X144119600Y-106730800D03*
D13*
%TO.P,R6,2*%
%TO.N,/OUT2*%
X154279600Y-106730800D03*
%TD*%
D15*
%TO.P,JP2,1,A*%
%TO.N,VCC*%
X120550000Y-71000000D03*
D16*
%TO.P,JP2,2,B*%
%TO.N,Net-(A1-VIN)*%
X122000000Y-71000000D03*
%TD*%
D12*
%TO.P,R8,1*%
%TO.N,Net-(A1-A0)*%
X146583400Y-110921800D03*
D13*
%TO.P,R8,2*%
%TO.N,/OUT1*%
X156743400Y-110921800D03*
%TD*%
D17*
%TO.P,U2,1*%
%TO.N,N/C*%
X145671749Y-95580200D03*
D18*
%TO.P,U2,2,IN_A*%
%TO.N,/IN3*%
X145671749Y-98120200D03*
%TO.P,U2,3,GND*%
%TO.N,GND*%
X145671749Y-100660200D03*
%TO.P,U2,4,IN_B*%
%TO.N,/IN4*%
X145671749Y-103200200D03*
%TO.P,U2,5,~{OUT_B}*%
%TO.N,Net-(U2-~{OUT_B})*%
X153611749Y-103200200D03*
%TO.P,U2,6,VDD*%
%TO.N,VCC*%
X153611749Y-100660200D03*
%TO.P,U2,7,~{OUT_A}*%
%TO.N,Net-(U2-~{OUT_A})*%
X153611749Y-98120200D03*
%TO.P,U2,8*%
%TO.N,N/C*%
X153611749Y-95580200D03*
%TD*%
D12*
%TO.P,R5,1*%
%TO.N,GND*%
X140335000Y-116332000D03*
D13*
%TO.P,R5,2*%
%TO.N,Net-(A1-A1)*%
X140335000Y-106172000D03*
%TD*%
D14*
%TO.P,C5,1*%
%TO.N,VCC*%
X130000000Y-67597349D03*
D12*
%TO.P,C5,2*%
%TO.N,GND*%
X130000000Y-72597349D03*
%TD*%
D19*
%TO.P,U4,1,VI*%
%TO.N,VCC*%
X130460000Y-63945000D03*
D20*
%TO.P,U4,2,GND*%
%TO.N,GND*%
X133000000Y-63945000D03*
%TO.P,U4,3,VO*%
%TO.N,+5V*%
X135540000Y-63945000D03*
%TD*%
D21*
%TO.P,J1,1,Pin_1*%
%TO.N,VCC*%
X119500000Y-63000000D03*
D22*
%TO.P,J1,2,Pin_2*%
%TO.N,GND*%
X123000000Y-63000000D03*
%TD*%
D14*
%TO.P,C2,1*%
%TO.N,VCC*%
X152120600Y-89027000D03*
D12*
%TO.P,C2,2*%
%TO.N,GND*%
X147120600Y-89027000D03*
%TD*%
%TO.P,R2,1*%
%TO.N,Net-(U1-~{OUT_B})*%
X157312549Y-77698600D03*
D13*
%TO.P,R2,2*%
%TO.N,/VG2*%
X167472549Y-77698600D03*
%TD*%
D17*
%TO.P,U1,1*%
%TO.N,N/C*%
X145366949Y-73863200D03*
D18*
%TO.P,U1,2,IN_A*%
%TO.N,/IN1*%
X145366949Y-76403200D03*
%TO.P,U1,3,GND*%
%TO.N,GND*%
X145366949Y-78943200D03*
%TO.P,U1,4,IN_B*%
%TO.N,/IN2*%
X145366949Y-81483200D03*
%TO.P,U1,5,~{OUT_B}*%
%TO.N,Net-(U1-~{OUT_B})*%
X153306949Y-81483200D03*
%TO.P,U1,6,VDD*%
%TO.N,VCC*%
X153306949Y-78943200D03*
%TO.P,U1,7,~{OUT_A}*%
%TO.N,Net-(U1-~{OUT_A})*%
X153306949Y-76403200D03*
%TO.P,U1,8*%
%TO.N,N/C*%
X153306949Y-73863200D03*
%TD*%
D14*
%TO.P,A1,1,D1/TX*%
%TO.N,unconnected-(A1-D1{slash}TX-Pad1)*%
X119202200Y-79552800D03*
D13*
%TO.P,A1,2,D0/RX*%
%TO.N,unconnected-(A1-D0{slash}RX-Pad2)*%
X119202200Y-82092800D03*
%TO.P,A1,3,~{RESET}*%
%TO.N,unconnected-(A1-~{RESET}-Pad3)*%
X119202200Y-84632800D03*
%TO.P,A1,4,GND*%
%TO.N,GND*%
X119202200Y-87172800D03*
%TO.P,A1,5,D2*%
%TO.N,unconnected-(A1-D2-Pad5)*%
X119202200Y-89712800D03*
%TO.P,A1,6,D3*%
%TO.N,unconnected-(A1-D3-Pad6)*%
X119202200Y-92252800D03*
%TO.P,A1,7,D4*%
%TO.N,unconnected-(A1-D4-Pad7)*%
X119202200Y-94792800D03*
%TO.P,A1,8,D5*%
%TO.N,/IN1*%
X119202200Y-97332800D03*
%TO.P,A1,9,D6*%
%TO.N,/IN2*%
X119202200Y-99872800D03*
%TO.P,A1,10,D7*%
%TO.N,unconnected-(A1-D7-Pad10)*%
X119202200Y-102412800D03*
%TO.P,A1,11,D8*%
%TO.N,unconnected-(A1-D8-Pad11)*%
X119202200Y-104952800D03*
%TO.P,A1,12,D9*%
%TO.N,/IN3*%
X119202200Y-107492800D03*
%TO.P,A1,13,D10*%
%TO.N,/IN4*%
X119202200Y-110032800D03*
%TO.P,A1,14,D11*%
%TO.N,unconnected-(A1-D11-Pad14)*%
X119202200Y-112572800D03*
%TO.P,A1,15,D12*%
%TO.N,unconnected-(A1-D12-Pad15)*%
X119202200Y-115112800D03*
%TO.P,A1,16,D13*%
%TO.N,unconnected-(A1-D13-Pad16)*%
X134442200Y-115112800D03*
%TO.P,A1,17,3V3*%
%TO.N,unconnected-(A1-3V3-Pad17)*%
X134442200Y-112572800D03*
%TO.P,A1,18,AREF*%
%TO.N,unconnected-(A1-AREF-Pad18)*%
X134442200Y-110032800D03*
%TO.P,A1,19,A0*%
%TO.N,Net-(A1-A0)*%
X134442200Y-107492800D03*
%TO.P,A1,20,A1*%
%TO.N,Net-(A1-A1)*%
X134442200Y-104952800D03*
%TO.P,A1,21,A2*%
%TO.N,unconnected-(A1-A2-Pad21)*%
X134442200Y-102412800D03*
%TO.P,A1,22,A3*%
%TO.N,unconnected-(A1-A3-Pad22)*%
X134442200Y-99872800D03*
%TO.P,A1,23,A4*%
%TO.N,unconnected-(A1-A4-Pad23)*%
X134442200Y-97332800D03*
%TO.P,A1,24,A5*%
%TO.N,unconnected-(A1-A5-Pad24)*%
X134442200Y-94792800D03*
%TO.P,A1,25,A6*%
%TO.N,unconnected-(A1-A6-Pad25)*%
X134442200Y-92252800D03*
%TO.P,A1,26,A7*%
%TO.N,unconnected-(A1-A7-Pad26)*%
X134442200Y-89712800D03*
%TO.P,A1,27,+5V*%
%TO.N,+5V*%
X134442200Y-87172800D03*
%TO.P,A1,28,~{RESET}*%
%TO.N,unconnected-(A1-~{RESET}-Pad28)*%
X134442200Y-84632800D03*
%TO.P,A1,29,GND*%
%TO.N,GND*%
X134442200Y-82092800D03*
%TO.P,A1,30,VIN*%
%TO.N,Net-(A1-VIN)*%
X134442200Y-79552800D03*
%TD*%
D14*
%TO.P,C4,1*%
%TO.N,+5V*%
X139000000Y-68000000D03*
D12*
%TO.P,C4,2*%
%TO.N,GND*%
X139000000Y-73000000D03*
%TD*%
D21*
%TO.P,J2,1,Pin_1*%
%TO.N,/OUT1*%
X184556400Y-87279600D03*
D22*
%TO.P,J2,2,Pin_2*%
%TO.N,/OUT2*%
X184556400Y-90779600D03*
%TD*%
D12*
%TO.P,R1,1*%
%TO.N,Net-(U1-~{OUT_A})*%
X157287149Y-74142600D03*
D13*
%TO.P,R1,2*%
%TO.N,/VG1*%
X167447149Y-74142600D03*
%TD*%
D23*
%TO.P,U5,1,S1*%
%TO.N,VCC*%
X171960799Y-91719400D03*
%TO.P,U5,2,G1*%
%TO.N,/VG3*%
X171960799Y-92989400D03*
%TO.P,U5,3,S2*%
%TO.N,GND*%
X171960799Y-94259400D03*
%TO.P,U5,4,G2*%
%TO.N,/VG4*%
X171960799Y-95529400D03*
D24*
%TO.P,U5,5,D1*%
%TO.N,/OUT2*%
X175755808Y-92509400D03*
%TO.P,U5,6,D2*%
X175755808Y-94739460D03*
%TD*%
D12*
%TO.P,R3,1*%
%TO.N,/VG3*%
X167218549Y-98018600D03*
D13*
%TO.P,R3,2*%
%TO.N,Net-(U2-~{OUT_A})*%
X157058549Y-98018600D03*
%TD*%
D23*
%TO.P,U3,1,S1*%
%TO.N,VCC*%
X171907200Y-82321400D03*
%TO.P,U3,2,G1*%
%TO.N,/VG1*%
X171907200Y-83591400D03*
%TO.P,U3,3,S2*%
%TO.N,GND*%
X171907200Y-84861400D03*
%TO.P,U3,4,G2*%
%TO.N,/VG2*%
X171907200Y-86131400D03*
D24*
%TO.P,U3,5,D1*%
%TO.N,/OUT1*%
X175702209Y-83111400D03*
%TO.P,U3,6,D2*%
X175702209Y-85341460D03*
%TD*%
D14*
%TO.P,C3,1*%
%TO.N,VCC*%
X151724549Y-67919600D03*
D12*
%TO.P,C3,2*%
%TO.N,GND*%
X146724549Y-67919600D03*
%TD*%
D25*
%TO.N,GND*%
X171196000Y-84861400D03*
X171094400Y-94259400D03*
D26*
%TO.N,Net-(A1-VIN)*%
X123300000Y-71000000D03*
%TD*%
D10*
%TO.N,/IN4*%
X133400800Y-77724000D02*
X132410200Y-78714600D01*
X139192000Y-103200200D02*
X137566400Y-101574600D01*
X128143000Y-110032800D02*
X119202200Y-110032800D01*
X137566400Y-79222600D02*
X136067800Y-77724000D01*
X136067800Y-77724000D02*
X133400800Y-77724000D01*
X132410200Y-78714600D02*
X132410200Y-105765600D01*
X132410200Y-105765600D02*
X128143000Y-110032800D01*
X137566400Y-101574600D02*
X137566400Y-79222600D01*
X145671749Y-103200200D02*
X139192000Y-103200200D01*
D27*
%TO.N,GND*%
X171094400Y-94259400D02*
X171909999Y-94259400D01*
D10*
X171935399Y-94284800D02*
X171960799Y-94259400D01*
D27*
X171909999Y-94259400D02*
X171935399Y-94284800D01*
X171196000Y-84861400D02*
X171907200Y-84861400D01*
D10*
%TO.N,/IN2*%
X130860800Y-78511400D02*
X130860800Y-97561400D01*
X133121400Y-76250800D02*
X130860800Y-78511400D01*
X145366949Y-81483200D02*
X142036800Y-81483200D01*
X142036800Y-81483200D02*
X136804400Y-76250800D01*
X128549400Y-99872800D02*
X119202200Y-99872800D01*
X130860800Y-97561400D02*
X128549400Y-99872800D01*
X136804400Y-76250800D02*
X133121400Y-76250800D01*
%TO.N,/IN1*%
X130149600Y-78409800D02*
X130149600Y-93903800D01*
X137312400Y-75742800D02*
X132816600Y-75742800D01*
X126720600Y-97332800D02*
X119202200Y-97332800D01*
X145366949Y-76403200D02*
X137972800Y-76403200D01*
X137972800Y-76403200D02*
X137312400Y-75742800D01*
X130149600Y-93903800D02*
X126720600Y-97332800D01*
X132816600Y-75742800D02*
X130149600Y-78409800D01*
%TO.N,/IN3*%
X129260600Y-107492800D02*
X119202200Y-107492800D01*
X138379200Y-78917800D02*
X136474200Y-77012800D01*
X133273800Y-77012800D02*
X131673600Y-78613000D01*
X131673600Y-105079800D02*
X129260600Y-107492800D01*
X136474200Y-77012800D02*
X133273800Y-77012800D01*
X145671749Y-98120200D02*
X140893800Y-98120200D01*
X131673600Y-78613000D02*
X131673600Y-105079800D01*
X140893800Y-98120200D02*
X138379200Y-95605600D01*
X138379200Y-95605600D02*
X138379200Y-78917800D01*
%TO.N,Net-(A1-A0)*%
X146202400Y-110540800D02*
X146583400Y-110921800D01*
X143611600Y-110540800D02*
X146202400Y-110540800D01*
X134442200Y-107492800D02*
X137490200Y-110540800D01*
X137490200Y-110540800D02*
X143611600Y-110540800D01*
%TO.N,Net-(A1-A1)*%
X134442200Y-104952800D02*
X139115800Y-104952800D01*
X140335000Y-106172000D02*
X140360400Y-106172000D01*
X140360400Y-106172000D02*
X140919200Y-106730800D01*
X140919200Y-106730800D02*
X144119600Y-106730800D01*
X139115800Y-104952800D02*
X140335000Y-106172000D01*
%TO.N,Net-(U1-~{OUT_A})*%
X153306949Y-76403200D02*
X155026549Y-76403200D01*
X155026549Y-76403200D02*
X157287149Y-74142600D01*
%TO.N,Net-(U1-~{OUT_B})*%
X157091549Y-77698600D02*
X157312549Y-77698600D01*
X153306949Y-81483200D02*
X157091549Y-77698600D01*
%TO.N,Net-(U2-~{OUT_A})*%
X153611749Y-98120200D02*
X156956949Y-98120200D01*
X156956949Y-98120200D02*
X157058549Y-98018600D01*
%TO.N,Net-(U2-~{OUT_B})*%
X153611749Y-103200200D02*
X156337000Y-103200200D01*
X156337000Y-103200200D02*
X156972000Y-102565200D01*
%TO.N,/OUT2*%
X180263800Y-94036472D02*
X180263800Y-92786200D01*
X154279600Y-106730800D02*
X167569472Y-106730800D01*
X167569472Y-106730800D02*
X180263800Y-94036472D01*
%TO.N,/VG1*%
X168148000Y-74142600D02*
X168808400Y-74803000D01*
X167447149Y-74142600D02*
X168148000Y-74142600D01*
X170408600Y-83591400D02*
X171907200Y-83591400D01*
X168808400Y-74803000D02*
X168808400Y-81991200D01*
X168808400Y-81991200D02*
X170408600Y-83591400D01*
%TO.N,/VG2*%
X169976800Y-86131400D02*
X171907200Y-86131400D01*
X167472549Y-83677949D02*
X169951400Y-86156800D01*
X167472549Y-77698600D02*
X167472549Y-83677949D01*
X169951400Y-86156800D02*
X169976800Y-86131400D01*
%TO.N,/VG3*%
X170154600Y-92989400D02*
X171960799Y-92989400D01*
X167218549Y-95925451D02*
X170154600Y-92989400D01*
X167218549Y-98018600D02*
X167218549Y-95925451D01*
%TO.N,/VG4*%
X170281600Y-95529400D02*
X171960799Y-95529400D01*
X168656000Y-101041200D02*
X168656000Y-97155000D01*
X168656000Y-97155000D02*
X170281600Y-95529400D01*
X167132000Y-102565200D02*
X168656000Y-101041200D01*
%TO.N,Net-(A1-VIN)*%
X122000000Y-71000000D02*
X123300000Y-71000000D01*
%TD*%
%TA.AperFunction,Conductor*%
%TO.N,VCC*%
G36*
X189307539Y-58482985D02*
G01*
X189353294Y-58535789D01*
X189364500Y-58587300D01*
X189364500Y-128432900D01*
X189344815Y-128499939D01*
X189292011Y-128545694D01*
X189240500Y-128556900D01*
X109920700Y-128556900D01*
X109853661Y-128537215D01*
X109807906Y-128484411D01*
X109796700Y-128432900D01*
X109796700Y-120700801D01*
X142306132Y-120700801D01*
X142325964Y-120927486D01*
X142325966Y-120927497D01*
X142384858Y-121147288D01*
X142384861Y-121147297D01*
X142481031Y-121353532D01*
X142481032Y-121353534D01*
X142611554Y-121539941D01*
X142772458Y-121700845D01*
X142772461Y-121700847D01*
X142958866Y-121831368D01*
X143165104Y-121927539D01*
X143384908Y-121986435D01*
X143546830Y-122000601D01*
X143611598Y-122006268D01*
X143611600Y-122006268D01*
X143611602Y-122006268D01*
X143668273Y-122001309D01*
X143838292Y-121986435D01*
X144058096Y-121927539D01*
X144264334Y-121831368D01*
X144450739Y-121700847D01*
X144611647Y-121539939D01*
X144742168Y-121353534D01*
X144838339Y-121147296D01*
X144897235Y-120927492D01*
X144917068Y-120700800D01*
X144897235Y-120474108D01*
X144838339Y-120254304D01*
X144742168Y-120048066D01*
X144611647Y-119861661D01*
X144611645Y-119861658D01*
X144450741Y-119700754D01*
X144264334Y-119570232D01*
X144264332Y-119570231D01*
X144058097Y-119474061D01*
X144058088Y-119474058D01*
X143838297Y-119415166D01*
X143838293Y-119415165D01*
X143838292Y-119415165D01*
X143838291Y-119415164D01*
X143838286Y-119415164D01*
X143611602Y-119395332D01*
X143611598Y-119395332D01*
X143384913Y-119415164D01*
X143384902Y-119415166D01*
X143165111Y-119474058D01*
X143165102Y-119474061D01*
X142958867Y-119570231D01*
X142958865Y-119570232D01*
X142772458Y-119700754D01*
X142611554Y-119861658D01*
X142481032Y-120048065D01*
X142481031Y-120048067D01*
X142384861Y-120254302D01*
X142384858Y-120254311D01*
X142325966Y-120474102D01*
X142325964Y-120474113D01*
X142306132Y-120700798D01*
X142306132Y-120700801D01*
X109796700Y-120700801D01*
X109796700Y-115112801D01*
X117896732Y-115112801D01*
X117916564Y-115339486D01*
X117916566Y-115339497D01*
X117975458Y-115559288D01*
X117975461Y-115559297D01*
X118071631Y-115765532D01*
X118071632Y-115765534D01*
X118202154Y-115951941D01*
X118363058Y-116112845D01*
X118363061Y-116112847D01*
X118549466Y-116243368D01*
X118755704Y-116339539D01*
X118975508Y-116398435D01*
X119137430Y-116412601D01*
X119202198Y-116418268D01*
X119202200Y-116418268D01*
X119202202Y-116418268D01*
X119258873Y-116413309D01*
X119428892Y-116398435D01*
X119648696Y-116339539D01*
X119854934Y-116243368D01*
X120041339Y-116112847D01*
X120202247Y-115951939D01*
X120332768Y-115765534D01*
X120428939Y-115559296D01*
X120487835Y-115339492D01*
X120507668Y-115112800D01*
X120507008Y-115105261D01*
X120501856Y-115046364D01*
X120487835Y-114886108D01*
X120428939Y-114666304D01*
X120332768Y-114460066D01*
X120202247Y-114273661D01*
X120202245Y-114273658D01*
X120041341Y-114112754D01*
X119854934Y-113982232D01*
X119854928Y-113982229D01*
X119796925Y-113955182D01*
X119744485Y-113909010D01*
X119725333Y-113841817D01*
X119745548Y-113774935D01*
X119796925Y-113730418D01*
X119854934Y-113703368D01*
X120041339Y-113572847D01*
X120202247Y-113411939D01*
X120332768Y-113225534D01*
X120428939Y-113019296D01*
X120487835Y-112799492D01*
X120507668Y-112572800D01*
X120487835Y-112346108D01*
X120428939Y-112126304D01*
X120332768Y-111920066D01*
X120225968Y-111767538D01*
X120202245Y-111733658D01*
X120041341Y-111572754D01*
X119854934Y-111442232D01*
X119854928Y-111442229D01*
X119796925Y-111415182D01*
X119744485Y-111369010D01*
X119725333Y-111301817D01*
X119745548Y-111234935D01*
X119796925Y-111190418D01*
X119854934Y-111163368D01*
X120041339Y-111032847D01*
X120202247Y-110871939D01*
X120332318Y-110686175D01*
X120386893Y-110642552D01*
X120433892Y-110633300D01*
X128056331Y-110633300D01*
X128056347Y-110633301D01*
X128063943Y-110633301D01*
X128222054Y-110633301D01*
X128222057Y-110633301D01*
X128374785Y-110592377D01*
X128442842Y-110553084D01*
X128511716Y-110513320D01*
X128623520Y-110401516D01*
X128623520Y-110401514D01*
X128633724Y-110391311D01*
X128633728Y-110391306D01*
X132768706Y-106256328D01*
X132768711Y-106256324D01*
X132778914Y-106246120D01*
X132778916Y-106246120D01*
X132890720Y-106134316D01*
X132950175Y-106031336D01*
X132969777Y-105997385D01*
X133010700Y-105844657D01*
X133010700Y-105686543D01*
X133010700Y-105519511D01*
X133030385Y-105452472D01*
X133083189Y-105406717D01*
X133152347Y-105396773D01*
X133215903Y-105425798D01*
X133247080Y-105467104D01*
X133271405Y-105519267D01*
X133311631Y-105605532D01*
X133311632Y-105605534D01*
X133442154Y-105791941D01*
X133603058Y-105952845D01*
X133603061Y-105952847D01*
X133789466Y-106083368D01*
X133812226Y-106093981D01*
X133847475Y-106110418D01*
X133899914Y-106156591D01*
X133919066Y-106223784D01*
X133898850Y-106290665D01*
X133847475Y-106335182D01*
X133789467Y-106362231D01*
X133789465Y-106362232D01*
X133603058Y-106492754D01*
X133442154Y-106653658D01*
X133311632Y-106840065D01*
X133311631Y-106840067D01*
X133215461Y-107046302D01*
X133215458Y-107046311D01*
X133156566Y-107266102D01*
X133156564Y-107266113D01*
X133136732Y-107492798D01*
X133136732Y-107492801D01*
X133156564Y-107719486D01*
X133156566Y-107719497D01*
X133215458Y-107939288D01*
X133215461Y-107939297D01*
X133311631Y-108145532D01*
X133311632Y-108145534D01*
X133442154Y-108331941D01*
X133603058Y-108492845D01*
X133603061Y-108492847D01*
X133789466Y-108623368D01*
X133847475Y-108650418D01*
X133899914Y-108696591D01*
X133919066Y-108763784D01*
X133898850Y-108830665D01*
X133847475Y-108875182D01*
X133789467Y-108902231D01*
X133789465Y-108902232D01*
X133603058Y-109032754D01*
X133442154Y-109193658D01*
X133311632Y-109380065D01*
X133311631Y-109380067D01*
X133215461Y-109586302D01*
X133215458Y-109586311D01*
X133156566Y-109806102D01*
X133156564Y-109806113D01*
X133136732Y-110032798D01*
X133136732Y-110032801D01*
X133156564Y-110259486D01*
X133156566Y-110259497D01*
X133215458Y-110479288D01*
X133215461Y-110479297D01*
X133311631Y-110685532D01*
X133311632Y-110685534D01*
X133442154Y-110871941D01*
X133603058Y-111032845D01*
X133603061Y-111032847D01*
X133789466Y-111163368D01*
X133847475Y-111190418D01*
X133899914Y-111236591D01*
X133919066Y-111303784D01*
X133898850Y-111370665D01*
X133847475Y-111415182D01*
X133789467Y-111442231D01*
X133789465Y-111442232D01*
X133603058Y-111572754D01*
X133442154Y-111733658D01*
X133311632Y-111920065D01*
X133311631Y-111920067D01*
X133215461Y-112126302D01*
X133215458Y-112126311D01*
X133156566Y-112346102D01*
X133156564Y-112346113D01*
X133136732Y-112572798D01*
X133136732Y-112572801D01*
X133156564Y-112799486D01*
X133156566Y-112799497D01*
X133215458Y-113019288D01*
X133215461Y-113019297D01*
X133311631Y-113225532D01*
X133311632Y-113225534D01*
X133442154Y-113411941D01*
X133603058Y-113572845D01*
X133603061Y-113572847D01*
X133789466Y-113703368D01*
X133847475Y-113730418D01*
X133899914Y-113776591D01*
X133919066Y-113843784D01*
X133898850Y-113910665D01*
X133847475Y-113955182D01*
X133789467Y-113982231D01*
X133789465Y-113982232D01*
X133603058Y-114112754D01*
X133442154Y-114273658D01*
X133311632Y-114460065D01*
X133311631Y-114460067D01*
X133215461Y-114666302D01*
X133215458Y-114666311D01*
X133156566Y-114886102D01*
X133156564Y-114886113D01*
X133136732Y-115112798D01*
X133136732Y-115112801D01*
X133156564Y-115339486D01*
X133156566Y-115339497D01*
X133215458Y-115559288D01*
X133215461Y-115559297D01*
X133311631Y-115765532D01*
X133311632Y-115765534D01*
X133442154Y-115951941D01*
X133603058Y-116112845D01*
X133603061Y-116112847D01*
X133789466Y-116243368D01*
X133995704Y-116339539D01*
X134215508Y-116398435D01*
X134377430Y-116412601D01*
X134442198Y-116418268D01*
X134442200Y-116418268D01*
X134442202Y-116418268D01*
X134498873Y-116413309D01*
X134668892Y-116398435D01*
X134888696Y-116339539D01*
X134904861Y-116332001D01*
X139029532Y-116332001D01*
X139049364Y-116558686D01*
X139049366Y-116558697D01*
X139108258Y-116778488D01*
X139108261Y-116778497D01*
X139204431Y-116984732D01*
X139204432Y-116984734D01*
X139334954Y-117171141D01*
X139495858Y-117332045D01*
X139495861Y-117332047D01*
X139682266Y-117462568D01*
X139888504Y-117558739D01*
X140108308Y-117617635D01*
X140270230Y-117631801D01*
X140334998Y-117637468D01*
X140335000Y-117637468D01*
X140335002Y-117637468D01*
X140391673Y-117632509D01*
X140561692Y-117617635D01*
X140781496Y-117558739D01*
X140987734Y-117462568D01*
X141174139Y-117332047D01*
X141335047Y-117171139D01*
X141465568Y-116984734D01*
X141561739Y-116778496D01*
X141620635Y-116558692D01*
X141640468Y-116332000D01*
X141620635Y-116105308D01*
X141561739Y-115885504D01*
X141465568Y-115679266D01*
X141335047Y-115492861D01*
X141335045Y-115492858D01*
X141174141Y-115331954D01*
X140987734Y-115201432D01*
X140987732Y-115201431D01*
X140781497Y-115105261D01*
X140781488Y-115105258D01*
X140561697Y-115046366D01*
X140561693Y-115046365D01*
X140561692Y-115046365D01*
X140561691Y-115046364D01*
X140561686Y-115046364D01*
X140335002Y-115026532D01*
X140334998Y-115026532D01*
X140108313Y-115046364D01*
X140108302Y-115046366D01*
X139888511Y-115105258D01*
X139888502Y-115105261D01*
X139682267Y-115201431D01*
X139682265Y-115201432D01*
X139495858Y-115331954D01*
X139334954Y-115492858D01*
X139204432Y-115679265D01*
X139204431Y-115679267D01*
X139108261Y-115885502D01*
X139108258Y-115885511D01*
X139049366Y-116105302D01*
X139049364Y-116105313D01*
X139029532Y-116331998D01*
X139029532Y-116332001D01*
X134904861Y-116332001D01*
X135094934Y-116243368D01*
X135281339Y-116112847D01*
X135442247Y-115951939D01*
X135572768Y-115765534D01*
X135668939Y-115559296D01*
X135727835Y-115339492D01*
X135747668Y-115112800D01*
X135747008Y-115105261D01*
X135741856Y-115046364D01*
X135727835Y-114886108D01*
X135668939Y-114666304D01*
X135572768Y-114460066D01*
X135442247Y-114273661D01*
X135442245Y-114273658D01*
X135281341Y-114112754D01*
X135094934Y-113982232D01*
X135094928Y-113982229D01*
X135036925Y-113955182D01*
X134984485Y-113909010D01*
X134965333Y-113841817D01*
X134985548Y-113774935D01*
X135036925Y-113730418D01*
X135094934Y-113703368D01*
X135281339Y-113572847D01*
X135442247Y-113411939D01*
X135572768Y-113225534D01*
X135668939Y-113019296D01*
X135727835Y-112799492D01*
X135747668Y-112572800D01*
X135727835Y-112346108D01*
X135668939Y-112126304D01*
X135572768Y-111920066D01*
X135465968Y-111767538D01*
X135442245Y-111733658D01*
X135281341Y-111572754D01*
X135094934Y-111442232D01*
X135094928Y-111442229D01*
X135036925Y-111415182D01*
X134984485Y-111369010D01*
X134965333Y-111301817D01*
X134985548Y-111234935D01*
X135036925Y-111190418D01*
X135094934Y-111163368D01*
X135281339Y-111032847D01*
X135442247Y-110871939D01*
X135572768Y-110685534D01*
X135668939Y-110479296D01*
X135727835Y-110259492D01*
X135747668Y-110032800D01*
X135740419Y-109949949D01*
X135754185Y-109881452D01*
X135802800Y-109831269D01*
X135870828Y-109815335D01*
X135936672Y-109838710D01*
X135951628Y-109851463D01*
X137005339Y-110905174D01*
X137005349Y-110905185D01*
X137009679Y-110909515D01*
X137009680Y-110909516D01*
X137121484Y-111021320D01*
X137208295Y-111071439D01*
X137208297Y-111071441D01*
X137246351Y-111093411D01*
X137258415Y-111100377D01*
X137411143Y-111141301D01*
X137411146Y-111141301D01*
X137576853Y-111141301D01*
X137576869Y-111141300D01*
X142379908Y-111141300D01*
X142446947Y-111160985D01*
X142481480Y-111194174D01*
X142511181Y-111236591D01*
X142611554Y-111379941D01*
X142772458Y-111540845D01*
X142772461Y-111540847D01*
X142958866Y-111671368D01*
X143165104Y-111767539D01*
X143384908Y-111826435D01*
X143546830Y-111840601D01*
X143611598Y-111846268D01*
X143611600Y-111846268D01*
X143611602Y-111846268D01*
X143668273Y-111841309D01*
X143838292Y-111826435D01*
X144058096Y-111767539D01*
X144264334Y-111671368D01*
X144450739Y-111540847D01*
X144611647Y-111379939D01*
X144741718Y-111194175D01*
X144796293Y-111150552D01*
X144843292Y-111141300D01*
X145200689Y-111141300D01*
X145267728Y-111160985D01*
X145313483Y-111213789D01*
X145320464Y-111233207D01*
X145356658Y-111368288D01*
X145356661Y-111368297D01*
X145452831Y-111574532D01*
X145452832Y-111574534D01*
X145583354Y-111760941D01*
X145744258Y-111921845D01*
X145744261Y-111921847D01*
X145930666Y-112052368D01*
X146136904Y-112148539D01*
X146356708Y-112207435D01*
X146518630Y-112221601D01*
X146583398Y-112227268D01*
X146583400Y-112227268D01*
X146583402Y-112227268D01*
X146640073Y-112222309D01*
X146810092Y-112207435D01*
X147029896Y-112148539D01*
X147236134Y-112052368D01*
X147422539Y-111921847D01*
X147583447Y-111760939D01*
X147713968Y-111574534D01*
X147810139Y-111368296D01*
X147869035Y-111148492D01*
X147888868Y-110921801D01*
X155437932Y-110921801D01*
X155457764Y-111148486D01*
X155457766Y-111148497D01*
X155516658Y-111368288D01*
X155516661Y-111368297D01*
X155612831Y-111574532D01*
X155612832Y-111574534D01*
X155743354Y-111760941D01*
X155904258Y-111921845D01*
X155904261Y-111921847D01*
X156090666Y-112052368D01*
X156296904Y-112148539D01*
X156516708Y-112207435D01*
X156678630Y-112221601D01*
X156743398Y-112227268D01*
X156743400Y-112227268D01*
X156743402Y-112227268D01*
X156800073Y-112222309D01*
X156970092Y-112207435D01*
X157189896Y-112148539D01*
X157396134Y-112052368D01*
X157582539Y-111921847D01*
X157743447Y-111760939D01*
X157873968Y-111574534D01*
X157970139Y-111368296D01*
X158029035Y-111148492D01*
X158048868Y-110921800D01*
X158047414Y-110905185D01*
X158029035Y-110695113D01*
X158029035Y-110695108D01*
X157970139Y-110475304D01*
X157873968Y-110269066D01*
X157743447Y-110082661D01*
X157743445Y-110082658D01*
X157582541Y-109921754D01*
X157396134Y-109791232D01*
X157396132Y-109791231D01*
X157189897Y-109695061D01*
X157189888Y-109695058D01*
X156970097Y-109636166D01*
X156970093Y-109636165D01*
X156970092Y-109636165D01*
X156970091Y-109636164D01*
X156970086Y-109636164D01*
X156743402Y-109616332D01*
X156743398Y-109616332D01*
X156516713Y-109636164D01*
X156516702Y-109636166D01*
X156296911Y-109695058D01*
X156296902Y-109695061D01*
X156090667Y-109791231D01*
X156090665Y-109791232D01*
X155904258Y-109921754D01*
X155743354Y-110082658D01*
X155612832Y-110269065D01*
X155612831Y-110269067D01*
X155516661Y-110475302D01*
X155516658Y-110475311D01*
X155457766Y-110695102D01*
X155457764Y-110695113D01*
X155437932Y-110921798D01*
X155437932Y-110921801D01*
X147888868Y-110921801D01*
X147888868Y-110921800D01*
X147887414Y-110905185D01*
X147869035Y-110695113D01*
X147869035Y-110695108D01*
X147810139Y-110475304D01*
X147713968Y-110269066D01*
X147583447Y-110082661D01*
X147583445Y-110082658D01*
X147422541Y-109921754D01*
X147236134Y-109791232D01*
X147236132Y-109791231D01*
X147029897Y-109695061D01*
X147029888Y-109695058D01*
X146810097Y-109636166D01*
X146810093Y-109636165D01*
X146810092Y-109636165D01*
X146810091Y-109636164D01*
X146810086Y-109636164D01*
X146583402Y-109616332D01*
X146583398Y-109616332D01*
X146356713Y-109636164D01*
X146356702Y-109636166D01*
X146136911Y-109695058D01*
X146136902Y-109695061D01*
X145930667Y-109791231D01*
X145930665Y-109791232D01*
X145749799Y-109917875D01*
X145683593Y-109940202D01*
X145678676Y-109940300D01*
X144843292Y-109940300D01*
X144776253Y-109920615D01*
X144741719Y-109887425D01*
X144611647Y-109701661D01*
X144611645Y-109701658D01*
X144450741Y-109540754D01*
X144264334Y-109410232D01*
X144264332Y-109410231D01*
X144058097Y-109314061D01*
X144058088Y-109314058D01*
X143838297Y-109255166D01*
X143838293Y-109255165D01*
X143838292Y-109255165D01*
X143838291Y-109255164D01*
X143838286Y-109255164D01*
X143611602Y-109235332D01*
X143611598Y-109235332D01*
X143384913Y-109255164D01*
X143384902Y-109255166D01*
X143165111Y-109314058D01*
X143165102Y-109314061D01*
X142958867Y-109410231D01*
X142958865Y-109410232D01*
X142772458Y-109540754D01*
X142611554Y-109701658D01*
X142548836Y-109791231D01*
X142481481Y-109887424D01*
X142426907Y-109931048D01*
X142379908Y-109940300D01*
X137790297Y-109940300D01*
X137723258Y-109920615D01*
X137702616Y-109903981D01*
X135734141Y-107935506D01*
X135700656Y-107874183D01*
X135702047Y-107815731D01*
X135724792Y-107730847D01*
X135727835Y-107719492D01*
X135747668Y-107492800D01*
X135744591Y-107457635D01*
X135734348Y-107340552D01*
X135727835Y-107266108D01*
X135668939Y-107046304D01*
X135572768Y-106840066D01*
X135442247Y-106653661D01*
X135442245Y-106653658D01*
X135281341Y-106492754D01*
X135094934Y-106362232D01*
X135094928Y-106362229D01*
X135036925Y-106335182D01*
X134984485Y-106289010D01*
X134965333Y-106221817D01*
X134985548Y-106154935D01*
X135036925Y-106110418D01*
X135094934Y-106083368D01*
X135281339Y-105952847D01*
X135442247Y-105791939D01*
X135572318Y-105606175D01*
X135626893Y-105562552D01*
X135673892Y-105553300D01*
X138815703Y-105553300D01*
X138882742Y-105572985D01*
X138903384Y-105589619D01*
X139043058Y-105729293D01*
X139076543Y-105790616D01*
X139075152Y-105849067D01*
X139049366Y-105945302D01*
X139049364Y-105945313D01*
X139029532Y-106171998D01*
X139029532Y-106172001D01*
X139049364Y-106398686D01*
X139049366Y-106398697D01*
X139108258Y-106618488D01*
X139108261Y-106618497D01*
X139204431Y-106824732D01*
X139204432Y-106824734D01*
X139334954Y-107011141D01*
X139495858Y-107172045D01*
X139495861Y-107172047D01*
X139682266Y-107302568D01*
X139888504Y-107398739D01*
X140108308Y-107457635D01*
X140270230Y-107471801D01*
X140334998Y-107477468D01*
X140335000Y-107477468D01*
X140335002Y-107477468D01*
X140391673Y-107472509D01*
X140561692Y-107457635D01*
X140781496Y-107398739D01*
X140901201Y-107342918D01*
X140953606Y-107331301D01*
X141005854Y-107331301D01*
X141005870Y-107331300D01*
X142887908Y-107331300D01*
X142954947Y-107350985D01*
X142989480Y-107384174D01*
X143040918Y-107457635D01*
X143119554Y-107569941D01*
X143280458Y-107730845D01*
X143280461Y-107730847D01*
X143466866Y-107861368D01*
X143673104Y-107957539D01*
X143892908Y-108016435D01*
X144054830Y-108030601D01*
X144119598Y-108036268D01*
X144119600Y-108036268D01*
X144119602Y-108036268D01*
X144176273Y-108031309D01*
X144346292Y-108016435D01*
X144566096Y-107957539D01*
X144772334Y-107861368D01*
X144958739Y-107730847D01*
X145119647Y-107569939D01*
X145250168Y-107383534D01*
X145346339Y-107177296D01*
X145405235Y-106957492D01*
X145425068Y-106730801D01*
X152974132Y-106730801D01*
X152993964Y-106957486D01*
X152993966Y-106957497D01*
X153052858Y-107177288D01*
X153052861Y-107177297D01*
X153149031Y-107383532D01*
X153149032Y-107383534D01*
X153279554Y-107569941D01*
X153440458Y-107730845D01*
X153440461Y-107730847D01*
X153626866Y-107861368D01*
X153833104Y-107957539D01*
X154052908Y-108016435D01*
X154214830Y-108030601D01*
X154279598Y-108036268D01*
X154279600Y-108036268D01*
X154279602Y-108036268D01*
X154336273Y-108031309D01*
X154506292Y-108016435D01*
X154726096Y-107957539D01*
X154932334Y-107861368D01*
X155118739Y-107730847D01*
X155279647Y-107569939D01*
X155409718Y-107384175D01*
X155464293Y-107340552D01*
X155511292Y-107331300D01*
X167482803Y-107331300D01*
X167482819Y-107331301D01*
X167490415Y-107331301D01*
X167648526Y-107331301D01*
X167648529Y-107331301D01*
X167801257Y-107290377D01*
X167801259Y-107290375D01*
X167801261Y-107290375D01*
X167801262Y-107290374D01*
X167852112Y-107261016D01*
X167852113Y-107261015D01*
X167938188Y-107211320D01*
X168049992Y-107099516D01*
X168049992Y-107099514D01*
X168060196Y-107089311D01*
X168060200Y-107089306D01*
X178380294Y-96769211D01*
X178441615Y-96735728D01*
X178468157Y-96732894D01*
X186079477Y-96744499D01*
X186234915Y-96724453D01*
X186381177Y-96664513D01*
X186457048Y-96606747D01*
X186506934Y-96568766D01*
X186506936Y-96568763D01*
X186506941Y-96568760D01*
X186603637Y-96443719D01*
X186664675Y-96297913D01*
X186685896Y-96141276D01*
X186690816Y-94832498D01*
X186711296Y-89385009D01*
X186711300Y-89382609D01*
X186711299Y-89382608D01*
X186711300Y-89382600D01*
X186691157Y-89229602D01*
X186701498Y-89163286D01*
X186701078Y-89163109D01*
X186701788Y-89161427D01*
X186701922Y-89160571D01*
X186703064Y-89158406D01*
X186704239Y-89155624D01*
X186704241Y-89155622D01*
X186765754Y-89010015D01*
X186787485Y-88853449D01*
X186838285Y-81614449D01*
X186838297Y-81608253D01*
X186817161Y-81451605D01*
X186778141Y-81358252D01*
X186756204Y-81305767D01*
X186712228Y-81248837D01*
X186659574Y-81180672D01*
X186544233Y-81092756D01*
X186533861Y-81084850D01*
X186387634Y-81024831D01*
X186230853Y-81004703D01*
X186230847Y-81004703D01*
X178331546Y-81030102D01*
X178331453Y-81030103D01*
X178329521Y-81030112D01*
X178329416Y-81030112D01*
X174364329Y-81055511D01*
X174211484Y-81076132D01*
X174065453Y-81136620D01*
X173940048Y-81232847D01*
X173843821Y-81358252D01*
X173783333Y-81504284D01*
X173783333Y-81504286D01*
X173765619Y-81638832D01*
X173737352Y-81702728D01*
X173679027Y-81741199D01*
X173651772Y-81746312D01*
X173636375Y-81747443D01*
X173636369Y-81747445D01*
X173633883Y-81748175D01*
X173612209Y-81752485D01*
X173600827Y-81753708D01*
X173552376Y-81771778D01*
X173543986Y-81774570D01*
X173498313Y-81787982D01*
X173498311Y-81787983D01*
X173494832Y-81790219D01*
X173471150Y-81802074D01*
X173465982Y-81804001D01*
X173465977Y-81804004D01*
X173440713Y-81822916D01*
X173424589Y-81834987D01*
X173417328Y-81840028D01*
X173377281Y-81865765D01*
X173377275Y-81865770D01*
X173374566Y-81868897D01*
X173355179Y-81886947D01*
X173350767Y-81890249D01*
X173350760Y-81890256D01*
X173319780Y-81931639D01*
X173314230Y-81938526D01*
X173283055Y-81974504D01*
X173283055Y-81974505D01*
X173281332Y-81978277D01*
X173267816Y-82001054D01*
X173264519Y-82005458D01*
X173264513Y-82005469D01*
X173246446Y-82053906D01*
X173243060Y-82062079D01*
X173223284Y-82105383D01*
X173223284Y-82105385D01*
X173222694Y-82109487D01*
X173216145Y-82135146D01*
X173214219Y-82140310D01*
X173214218Y-82140316D01*
X173207809Y-82199918D01*
X173207809Y-82204154D01*
X173206547Y-82221799D01*
X173202809Y-82247796D01*
X173202809Y-83975002D01*
X173207954Y-84046942D01*
X173208681Y-84049418D01*
X173212993Y-84071092D01*
X173214218Y-84082484D01*
X173232280Y-84130912D01*
X173235074Y-84139306D01*
X173250988Y-84193499D01*
X173248359Y-84194270D01*
X173256288Y-84249483D01*
X173249737Y-84275140D01*
X173246449Y-84283957D01*
X173243060Y-84292139D01*
X173223284Y-84335443D01*
X173223284Y-84335445D01*
X173222694Y-84339547D01*
X173216145Y-84365206D01*
X173214219Y-84370370D01*
X173214218Y-84370376D01*
X173207809Y-84429978D01*
X173207809Y-84434214D01*
X173206547Y-84451859D01*
X173202809Y-84477856D01*
X173202809Y-86205058D01*
X173207680Y-86275073D01*
X173207680Y-86275074D01*
X173208656Y-86278444D01*
X173212832Y-86299655D01*
X173214217Y-86312543D01*
X173231825Y-86359750D01*
X173234748Y-86368590D01*
X173242547Y-86395533D01*
X173247684Y-86413279D01*
X173247686Y-86413282D01*
X173250549Y-86417775D01*
X173262159Y-86441080D01*
X173264513Y-86447391D01*
X173294708Y-86487725D01*
X173300015Y-86495401D01*
X173325004Y-86534617D01*
X173325007Y-86534620D01*
X173329026Y-86538130D01*
X173346727Y-86557215D01*
X173350763Y-86562606D01*
X173382976Y-86586720D01*
X173391101Y-86592803D01*
X173398342Y-86598661D01*
X173406847Y-86606088D01*
X173433382Y-86629261D01*
X173438223Y-86631494D01*
X173460588Y-86644821D01*
X173465978Y-86648856D01*
X173480774Y-86654374D01*
X173513182Y-86666462D01*
X173521795Y-86670049D01*
X173564023Y-86689530D01*
X173564024Y-86689531D01*
X173564025Y-86689531D01*
X173564027Y-86689532D01*
X173569302Y-86690311D01*
X173594517Y-86696798D01*
X173600826Y-86699151D01*
X173616484Y-86700834D01*
X173655269Y-86705005D01*
X173719820Y-86731743D01*
X173759668Y-86789136D01*
X173764838Y-86811266D01*
X173784420Y-86952517D01*
X173784420Y-86952519D01*
X173845906Y-87098130D01*
X173845908Y-87098134D01*
X173942988Y-87222874D01*
X173942989Y-87222875D01*
X174069048Y-87318239D01*
X174215494Y-87377727D01*
X174372347Y-87397286D01*
X174372355Y-87397285D01*
X174372356Y-87397286D01*
X175703332Y-87388173D01*
X181393027Y-87349217D01*
X181460200Y-87368442D01*
X181497813Y-87405590D01*
X182574219Y-89060066D01*
X182579865Y-89068743D01*
X182599925Y-89135672D01*
X182580616Y-89202820D01*
X182573430Y-89212976D01*
X181555961Y-90507936D01*
X181499065Y-90548489D01*
X181458537Y-90555326D01*
X177760946Y-90557691D01*
X177756986Y-90557630D01*
X174440779Y-90453797D01*
X174421803Y-90453500D01*
X174421799Y-90453500D01*
X174265086Y-90474131D01*
X174265084Y-90474132D01*
X174119052Y-90534620D01*
X173993647Y-90630847D01*
X173897420Y-90756252D01*
X173836932Y-90902284D01*
X173836932Y-90902286D01*
X173819218Y-91036832D01*
X173790951Y-91100728D01*
X173732626Y-91139199D01*
X173705371Y-91144312D01*
X173689974Y-91145443D01*
X173689968Y-91145445D01*
X173687482Y-91146175D01*
X173665808Y-91150485D01*
X173654426Y-91151708D01*
X173605975Y-91169778D01*
X173597585Y-91172570D01*
X173551912Y-91185982D01*
X173551910Y-91185983D01*
X173548431Y-91188219D01*
X173524749Y-91200074D01*
X173519581Y-91202001D01*
X173519576Y-91202004D01*
X173494312Y-91220916D01*
X173478188Y-91232987D01*
X173470927Y-91238028D01*
X173430880Y-91263765D01*
X173430874Y-91263770D01*
X173428165Y-91266897D01*
X173408778Y-91284947D01*
X173404366Y-91288249D01*
X173404359Y-91288256D01*
X173373379Y-91329639D01*
X173367829Y-91336526D01*
X173336654Y-91372504D01*
X173336654Y-91372505D01*
X173334931Y-91376277D01*
X173321415Y-91399054D01*
X173318118Y-91403458D01*
X173318112Y-91403469D01*
X173300045Y-91451906D01*
X173296659Y-91460079D01*
X173276883Y-91503383D01*
X173276883Y-91503385D01*
X173276293Y-91507487D01*
X173269744Y-91533146D01*
X173267818Y-91538310D01*
X173267817Y-91538316D01*
X173261408Y-91597918D01*
X173261408Y-91602154D01*
X173260146Y-91619799D01*
X173256408Y-91645796D01*
X173256408Y-93373002D01*
X173261553Y-93444942D01*
X173262280Y-93447418D01*
X173266592Y-93469092D01*
X173267817Y-93480484D01*
X173285879Y-93528912D01*
X173288673Y-93537306D01*
X173304587Y-93591499D01*
X173301958Y-93592270D01*
X173309887Y-93647483D01*
X173303336Y-93673140D01*
X173300048Y-93681957D01*
X173296659Y-93690139D01*
X173276883Y-93733443D01*
X173276883Y-93733445D01*
X173276293Y-93737547D01*
X173269744Y-93763206D01*
X173267818Y-93768370D01*
X173267817Y-93768376D01*
X173261408Y-93827978D01*
X173261408Y-93832214D01*
X173260146Y-93849859D01*
X173256408Y-93875856D01*
X173256408Y-95603058D01*
X173261279Y-95673073D01*
X173261279Y-95673074D01*
X173262255Y-95676444D01*
X173266431Y-95697655D01*
X173267816Y-95710543D01*
X173285424Y-95757750D01*
X173288347Y-95766590D01*
X173295948Y-95792845D01*
X173301283Y-95811279D01*
X173301285Y-95811282D01*
X173304148Y-95815775D01*
X173315758Y-95839080D01*
X173318112Y-95845391D01*
X173348307Y-95885725D01*
X173353614Y-95893401D01*
X173378603Y-95932617D01*
X173378606Y-95932620D01*
X173382625Y-95936130D01*
X173400326Y-95955215D01*
X173404362Y-95960606D01*
X173436575Y-95984720D01*
X173444700Y-95990803D01*
X173451941Y-95996661D01*
X173472365Y-96014497D01*
X173486981Y-96027261D01*
X173491822Y-96029494D01*
X173514187Y-96042821D01*
X173519577Y-96046856D01*
X173534373Y-96052374D01*
X173566781Y-96064462D01*
X173575394Y-96068049D01*
X173617622Y-96087530D01*
X173617623Y-96087531D01*
X173617624Y-96087531D01*
X173617626Y-96087532D01*
X173622901Y-96088311D01*
X173648116Y-96094798D01*
X173654425Y-96097151D01*
X173671536Y-96098990D01*
X173708013Y-96102913D01*
X173772564Y-96129651D01*
X173812412Y-96187044D01*
X173817365Y-96207674D01*
X173840027Y-96357643D01*
X173899432Y-96493658D01*
X173903293Y-96502499D01*
X173945165Y-96554964D01*
X174001889Y-96626039D01*
X174001890Y-96626040D01*
X174001891Y-96626041D01*
X174001893Y-96626043D01*
X174129109Y-96719859D01*
X174276271Y-96777551D01*
X174433351Y-96795190D01*
X174433354Y-96795189D01*
X174433355Y-96795190D01*
X174607972Y-96791858D01*
X176391508Y-96757825D01*
X176458908Y-96776227D01*
X176505662Y-96828148D01*
X176516923Y-96897104D01*
X176489116Y-96961202D01*
X176481552Y-96969483D01*
X167357056Y-106093981D01*
X167295733Y-106127466D01*
X167269375Y-106130300D01*
X155511292Y-106130300D01*
X155444253Y-106110615D01*
X155409719Y-106077425D01*
X155279647Y-105891661D01*
X155279645Y-105891658D01*
X155118741Y-105730754D01*
X154932334Y-105600232D01*
X154932332Y-105600231D01*
X154726097Y-105504061D01*
X154726088Y-105504058D01*
X154506297Y-105445166D01*
X154506293Y-105445165D01*
X154506292Y-105445165D01*
X154506291Y-105445164D01*
X154506286Y-105445164D01*
X154279602Y-105425332D01*
X154279598Y-105425332D01*
X154052913Y-105445164D01*
X154052902Y-105445166D01*
X153833111Y-105504058D01*
X153833102Y-105504061D01*
X153626867Y-105600231D01*
X153626865Y-105600232D01*
X153440458Y-105730754D01*
X153279554Y-105891658D01*
X153149032Y-106078065D01*
X153149031Y-106078067D01*
X153052861Y-106284302D01*
X153052858Y-106284311D01*
X152993966Y-106504102D01*
X152993964Y-106504113D01*
X152974132Y-106730798D01*
X152974132Y-106730801D01*
X145425068Y-106730801D01*
X145425068Y-106730800D01*
X145405235Y-106504108D01*
X145359972Y-106335182D01*
X145346341Y-106284311D01*
X145346338Y-106284302D01*
X145317659Y-106222800D01*
X145250168Y-106078066D01*
X145119647Y-105891661D01*
X145119645Y-105891658D01*
X144958741Y-105730754D01*
X144772334Y-105600232D01*
X144772332Y-105600231D01*
X144566097Y-105504061D01*
X144566088Y-105504058D01*
X144346297Y-105445166D01*
X144346293Y-105445165D01*
X144346292Y-105445165D01*
X144346291Y-105445164D01*
X144346286Y-105445164D01*
X144119602Y-105425332D01*
X144119598Y-105425332D01*
X143892913Y-105445164D01*
X143892902Y-105445166D01*
X143673111Y-105504058D01*
X143673102Y-105504061D01*
X143466867Y-105600231D01*
X143466865Y-105600232D01*
X143280458Y-105730754D01*
X143119554Y-105891658D01*
X143076710Y-105952847D01*
X142989481Y-106077424D01*
X142934907Y-106121048D01*
X142887908Y-106130300D01*
X141750445Y-106130300D01*
X141683406Y-106110615D01*
X141637651Y-106057811D01*
X141626917Y-106017108D01*
X141624642Y-105991113D01*
X141620635Y-105945308D01*
X141563146Y-105730754D01*
X141561741Y-105725511D01*
X141561738Y-105725502D01*
X141543571Y-105686543D01*
X141465568Y-105519266D01*
X141335047Y-105332861D01*
X141335045Y-105332858D01*
X141174141Y-105171954D01*
X140987734Y-105041432D01*
X140987732Y-105041431D01*
X140781497Y-104945261D01*
X140781488Y-104945258D01*
X140561697Y-104886366D01*
X140561693Y-104886365D01*
X140561692Y-104886365D01*
X140561691Y-104886364D01*
X140561686Y-104886364D01*
X140335002Y-104866532D01*
X140334998Y-104866532D01*
X140108313Y-104886364D01*
X140108302Y-104886366D01*
X140012067Y-104912152D01*
X139942217Y-104910489D01*
X139892293Y-104880058D01*
X139603390Y-104591155D01*
X139603388Y-104591152D01*
X139484517Y-104472281D01*
X139484516Y-104472280D01*
X139397704Y-104422160D01*
X139397704Y-104422159D01*
X139397700Y-104422158D01*
X139347585Y-104393223D01*
X139194857Y-104352299D01*
X139036743Y-104352299D01*
X139029147Y-104352299D01*
X139029131Y-104352300D01*
X135673892Y-104352300D01*
X135606853Y-104332615D01*
X135572319Y-104299425D01*
X135442247Y-104113661D01*
X135442245Y-104113658D01*
X135281341Y-103952754D01*
X135094934Y-103822232D01*
X135094928Y-103822229D01*
X135048761Y-103800701D01*
X135036924Y-103795181D01*
X134984485Y-103749010D01*
X134965333Y-103681817D01*
X134985548Y-103614935D01*
X135036925Y-103570418D01*
X135094934Y-103543368D01*
X135281339Y-103412847D01*
X135442247Y-103251939D01*
X135572768Y-103065534D01*
X135668939Y-102859296D01*
X135727835Y-102639492D01*
X135747668Y-102412800D01*
X135727835Y-102186108D01*
X135668939Y-101966304D01*
X135572768Y-101760066D01*
X135442247Y-101573661D01*
X135442245Y-101573658D01*
X135281341Y-101412754D01*
X135094934Y-101282232D01*
X135094928Y-101282229D01*
X135036925Y-101255182D01*
X134984485Y-101209010D01*
X134965333Y-101141817D01*
X134985548Y-101074935D01*
X135036925Y-101030418D01*
X135094934Y-101003368D01*
X135281339Y-100872847D01*
X135442247Y-100711939D01*
X135572768Y-100525534D01*
X135668939Y-100319296D01*
X135727835Y-100099492D01*
X135747668Y-99872800D01*
X135727835Y-99646108D01*
X135668939Y-99426304D01*
X135572768Y-99220066D01*
X135442247Y-99033661D01*
X135442245Y-99033658D01*
X135281341Y-98872754D01*
X135094934Y-98742232D01*
X135094928Y-98742229D01*
X135065136Y-98728337D01*
X135036924Y-98715181D01*
X134984485Y-98669010D01*
X134965333Y-98601817D01*
X134985548Y-98534935D01*
X135036925Y-98490418D01*
X135094934Y-98463368D01*
X135281339Y-98332847D01*
X135442247Y-98171939D01*
X135572768Y-97985534D01*
X135668939Y-97779296D01*
X135727835Y-97559492D01*
X135747668Y-97332800D01*
X135745906Y-97312665D01*
X135734555Y-97182921D01*
X135727835Y-97106108D01*
X135668939Y-96886304D01*
X135572768Y-96680066D01*
X135442247Y-96493661D01*
X135442245Y-96493658D01*
X135281341Y-96332754D01*
X135094934Y-96202232D01*
X135094928Y-96202229D01*
X135039531Y-96176397D01*
X135036924Y-96175181D01*
X134984485Y-96129010D01*
X134965333Y-96061817D01*
X134985548Y-95994935D01*
X135036925Y-95950418D01*
X135094934Y-95923368D01*
X135281339Y-95792847D01*
X135442247Y-95631939D01*
X135572768Y-95445534D01*
X135668939Y-95239296D01*
X135727835Y-95019492D01*
X135747668Y-94792800D01*
X135727835Y-94566108D01*
X135668939Y-94346304D01*
X135572768Y-94140066D01*
X135442247Y-93953661D01*
X135442245Y-93953658D01*
X135281341Y-93792754D01*
X135094934Y-93662232D01*
X135094928Y-93662229D01*
X135036925Y-93635182D01*
X134984485Y-93589010D01*
X134965333Y-93521817D01*
X134985548Y-93454935D01*
X135036925Y-93410418D01*
X135094934Y-93383368D01*
X135281339Y-93252847D01*
X135442247Y-93091939D01*
X135572768Y-92905534D01*
X135668939Y-92699296D01*
X135727835Y-92479492D01*
X135747668Y-92252800D01*
X135727835Y-92026108D01*
X135668939Y-91806304D01*
X135572768Y-91600066D01*
X135442247Y-91413661D01*
X135442245Y-91413658D01*
X135281341Y-91252754D01*
X135094934Y-91122232D01*
X135094928Y-91122229D01*
X135036925Y-91095182D01*
X134984485Y-91049010D01*
X134965333Y-90981817D01*
X134985548Y-90914935D01*
X135036925Y-90870418D01*
X135094934Y-90843368D01*
X135281339Y-90712847D01*
X135442247Y-90551939D01*
X135572768Y-90365534D01*
X135668939Y-90159296D01*
X135727835Y-89939492D01*
X135747668Y-89712800D01*
X135727835Y-89486108D01*
X135668939Y-89266304D01*
X135572768Y-89060066D01*
X135442247Y-88873661D01*
X135442245Y-88873658D01*
X135281341Y-88712754D01*
X135094934Y-88582232D01*
X135094928Y-88582229D01*
X135036925Y-88555182D01*
X134984485Y-88509010D01*
X134965333Y-88441817D01*
X134985548Y-88374935D01*
X135036925Y-88330418D01*
X135094934Y-88303368D01*
X135281339Y-88172847D01*
X135442247Y-88011939D01*
X135572768Y-87825534D01*
X135668939Y-87619296D01*
X135727835Y-87399492D01*
X135747668Y-87172800D01*
X135727835Y-86946108D01*
X135671571Y-86736125D01*
X135668941Y-86726311D01*
X135668938Y-86726302D01*
X135661696Y-86710772D01*
X135572768Y-86520066D01*
X135442247Y-86333661D01*
X135442245Y-86333658D01*
X135281341Y-86172754D01*
X135094934Y-86042232D01*
X135094928Y-86042229D01*
X135036925Y-86015182D01*
X134984485Y-85969010D01*
X134965333Y-85901817D01*
X134985548Y-85834935D01*
X135036925Y-85790418D01*
X135094934Y-85763368D01*
X135281339Y-85632847D01*
X135442247Y-85471939D01*
X135572768Y-85285534D01*
X135668939Y-85079296D01*
X135727835Y-84859492D01*
X135747668Y-84632800D01*
X135727835Y-84406108D01*
X135672523Y-84199680D01*
X135668941Y-84186311D01*
X135668938Y-84186302D01*
X135647023Y-84139306D01*
X135572768Y-83980066D01*
X135442247Y-83793661D01*
X135442245Y-83793658D01*
X135281341Y-83632754D01*
X135094934Y-83502232D01*
X135094928Y-83502229D01*
X135036925Y-83475182D01*
X134984485Y-83429010D01*
X134965333Y-83361817D01*
X134985548Y-83294935D01*
X135036925Y-83250418D01*
X135094934Y-83223368D01*
X135281339Y-83092847D01*
X135442247Y-82931939D01*
X135572768Y-82745534D01*
X135668939Y-82539296D01*
X135727835Y-82319492D01*
X135747668Y-82092800D01*
X135727835Y-81866108D01*
X135668939Y-81646304D01*
X135572768Y-81440066D01*
X135451856Y-81267384D01*
X135442245Y-81253658D01*
X135281341Y-81092754D01*
X135094934Y-80962232D01*
X135094928Y-80962229D01*
X135036925Y-80935182D01*
X134984485Y-80889010D01*
X134965333Y-80821817D01*
X134985548Y-80754935D01*
X135036925Y-80710418D01*
X135094934Y-80683368D01*
X135281339Y-80552847D01*
X135442247Y-80391939D01*
X135572768Y-80205534D01*
X135668939Y-79999296D01*
X135727835Y-79779492D01*
X135747668Y-79552800D01*
X135727835Y-79326108D01*
X135668939Y-79106304D01*
X135572768Y-78900066D01*
X135451856Y-78727384D01*
X135442245Y-78713658D01*
X135281340Y-78552753D01*
X135277515Y-78550075D01*
X135233890Y-78495498D01*
X135226696Y-78426000D01*
X135258219Y-78363645D01*
X135318449Y-78328231D01*
X135348638Y-78324500D01*
X135767703Y-78324500D01*
X135834742Y-78344185D01*
X135855384Y-78360819D01*
X136929581Y-79435016D01*
X136963066Y-79496339D01*
X136965900Y-79522697D01*
X136965900Y-101487930D01*
X136965899Y-101487948D01*
X136965899Y-101653654D01*
X136965898Y-101653654D01*
X136965899Y-101653657D01*
X137002269Y-101789391D01*
X137006824Y-101806387D01*
X137020283Y-101829698D01*
X137020284Y-101829700D01*
X137085877Y-101943312D01*
X137085881Y-101943317D01*
X137204749Y-102062185D01*
X137204754Y-102062189D01*
X138823284Y-103680720D01*
X138823286Y-103680721D01*
X138823290Y-103680724D01*
X138941567Y-103749010D01*
X138960216Y-103759777D01*
X139112943Y-103800701D01*
X139112945Y-103800701D01*
X139278654Y-103800701D01*
X139278670Y-103800700D01*
X144597973Y-103800700D01*
X144665012Y-103820385D01*
X144696927Y-103849973D01*
X144769462Y-103946024D01*
X144803776Y-103991462D01*
X144963949Y-104137479D01*
X145148225Y-104251578D01*
X145350329Y-104329874D01*
X145563379Y-104369700D01*
X145563381Y-104369700D01*
X145780117Y-104369700D01*
X145780119Y-104369700D01*
X145993169Y-104329874D01*
X146195273Y-104251578D01*
X146379549Y-104137479D01*
X146539722Y-103991462D01*
X146670338Y-103818500D01*
X146766947Y-103624482D01*
X146826261Y-103416016D01*
X146846259Y-103200200D01*
X152437239Y-103200200D01*
X152457236Y-103416015D01*
X152457237Y-103416017D01*
X152516549Y-103624477D01*
X152516555Y-103624492D01*
X152599075Y-103790213D01*
X152613160Y-103818500D01*
X152743776Y-103991462D01*
X152903949Y-104137479D01*
X153088225Y-104251578D01*
X153290329Y-104329874D01*
X153503379Y-104369700D01*
X153503381Y-104369700D01*
X153720117Y-104369700D01*
X153720119Y-104369700D01*
X153933169Y-104329874D01*
X154135273Y-104251578D01*
X154319549Y-104137479D01*
X154479722Y-103991462D01*
X154585920Y-103850835D01*
X154586571Y-103849973D01*
X154642681Y-103808337D01*
X154685525Y-103800700D01*
X156250331Y-103800700D01*
X156250347Y-103800701D01*
X156257943Y-103800701D01*
X156416055Y-103800701D01*
X156416057Y-103800701D01*
X156455195Y-103790213D01*
X156519948Y-103791752D01*
X156520274Y-103790537D01*
X156525500Y-103791937D01*
X156525504Y-103791939D01*
X156745308Y-103850835D01*
X156907230Y-103865001D01*
X156971998Y-103870668D01*
X156972000Y-103870668D01*
X156972002Y-103870668D01*
X157028673Y-103865709D01*
X157198692Y-103850835D01*
X157418496Y-103791939D01*
X157624734Y-103695768D01*
X157811139Y-103565247D01*
X157972047Y-103404339D01*
X158102568Y-103217934D01*
X158198739Y-103011696D01*
X158257635Y-102791892D01*
X158277468Y-102565201D01*
X165826532Y-102565201D01*
X165846364Y-102791886D01*
X165846366Y-102791897D01*
X165905258Y-103011688D01*
X165905261Y-103011697D01*
X166001431Y-103217932D01*
X166001432Y-103217934D01*
X166131954Y-103404341D01*
X166292858Y-103565245D01*
X166292861Y-103565247D01*
X166479266Y-103695768D01*
X166685504Y-103791939D01*
X166685509Y-103791940D01*
X166685511Y-103791941D01*
X166718204Y-103800701D01*
X166905308Y-103850835D01*
X167067230Y-103865001D01*
X167131998Y-103870668D01*
X167132000Y-103870668D01*
X167132002Y-103870668D01*
X167188673Y-103865709D01*
X167358692Y-103850835D01*
X167578496Y-103791939D01*
X167784734Y-103695768D01*
X167971139Y-103565247D01*
X168132047Y-103404339D01*
X168262568Y-103217934D01*
X168358739Y-103011696D01*
X168417635Y-102791892D01*
X168437468Y-102565200D01*
X168417635Y-102338508D01*
X168391847Y-102242266D01*
X168393510Y-102172417D01*
X168423939Y-102122494D01*
X169014506Y-101531928D01*
X169014511Y-101531924D01*
X169024714Y-101521720D01*
X169024716Y-101521720D01*
X169136520Y-101409916D01*
X169215577Y-101272984D01*
X169256500Y-101120257D01*
X169256500Y-97455097D01*
X169276185Y-97388058D01*
X169292819Y-97367416D01*
X170494017Y-96166219D01*
X170555340Y-96132734D01*
X170581698Y-96129900D01*
X171259485Y-96129900D01*
X171326524Y-96149585D01*
X171333795Y-96154633D01*
X171362864Y-96176393D01*
X171362870Y-96176397D01*
X171497716Y-96226691D01*
X171497715Y-96226691D01*
X171504643Y-96227435D01*
X171557326Y-96233100D01*
X172364271Y-96233099D01*
X172423882Y-96226691D01*
X172558730Y-96176396D01*
X172673945Y-96090146D01*
X172760195Y-95974931D01*
X172810490Y-95840083D01*
X172816899Y-95780473D01*
X172816898Y-95278328D01*
X172810490Y-95218717D01*
X172787063Y-95155907D01*
X172760196Y-95083871D01*
X172760192Y-95083864D01*
X172673988Y-94968711D01*
X172649570Y-94903247D01*
X172664421Y-94834974D01*
X172673988Y-94820089D01*
X172760192Y-94704935D01*
X172760191Y-94704935D01*
X172760195Y-94704931D01*
X172810490Y-94570083D01*
X172816899Y-94510473D01*
X172816898Y-94008328D01*
X172811698Y-93959957D01*
X172810490Y-93948716D01*
X172760196Y-93813871D01*
X172760192Y-93813864D01*
X172673988Y-93698711D01*
X172649570Y-93633247D01*
X172664421Y-93564974D01*
X172673988Y-93550089D01*
X172760192Y-93434935D01*
X172760191Y-93434935D01*
X172760195Y-93434931D01*
X172810490Y-93300083D01*
X172816899Y-93240473D01*
X172816898Y-92738328D01*
X172810490Y-92678717D01*
X172760195Y-92543869D01*
X172760194Y-92543868D01*
X172760192Y-92543864D01*
X172673946Y-92428655D01*
X172673943Y-92428652D01*
X172558734Y-92342406D01*
X172558727Y-92342402D01*
X172423881Y-92292108D01*
X172423882Y-92292108D01*
X172364282Y-92285701D01*
X172364280Y-92285700D01*
X172364272Y-92285700D01*
X172364263Y-92285700D01*
X171557328Y-92285700D01*
X171557322Y-92285701D01*
X171497715Y-92292108D01*
X171362870Y-92342402D01*
X171362864Y-92342406D01*
X171333795Y-92364167D01*
X171268331Y-92388584D01*
X171259485Y-92388900D01*
X170233657Y-92388900D01*
X170075543Y-92388900D01*
X169922815Y-92429823D01*
X169922814Y-92429823D01*
X169922812Y-92429824D01*
X169922809Y-92429825D01*
X169872696Y-92458759D01*
X169872695Y-92458760D01*
X169836796Y-92479486D01*
X169785885Y-92508879D01*
X169785882Y-92508881D01*
X166738030Y-95556733D01*
X166738028Y-95556736D01*
X166708169Y-95608455D01*
X166708168Y-95608457D01*
X166658972Y-95693665D01*
X166658972Y-95693666D01*
X166618048Y-95846394D01*
X166618048Y-95846396D01*
X166618048Y-96014497D01*
X166618049Y-96014510D01*
X166618049Y-96786906D01*
X166598364Y-96853945D01*
X166565172Y-96888481D01*
X166379408Y-97018553D01*
X166218503Y-97179458D01*
X166087981Y-97365865D01*
X166087980Y-97365867D01*
X165991810Y-97572102D01*
X165991807Y-97572111D01*
X165932915Y-97791902D01*
X165932913Y-97791913D01*
X165913081Y-98018598D01*
X165913081Y-98018601D01*
X165932913Y-98245286D01*
X165932915Y-98245297D01*
X165991807Y-98465088D01*
X165991810Y-98465097D01*
X166087980Y-98671332D01*
X166087981Y-98671334D01*
X166218503Y-98857741D01*
X166379407Y-99018645D01*
X166379410Y-99018647D01*
X166565815Y-99149168D01*
X166772053Y-99245339D01*
X166772058Y-99245340D01*
X166772060Y-99245341D01*
X166817752Y-99257584D01*
X166991857Y-99304235D01*
X167153779Y-99318401D01*
X167218547Y-99324068D01*
X167218549Y-99324068D01*
X167218551Y-99324068D01*
X167275222Y-99319109D01*
X167445241Y-99304235D01*
X167665045Y-99245339D01*
X167871283Y-99149168D01*
X167871284Y-99149167D01*
X167876189Y-99146880D01*
X167876899Y-99148403D01*
X167937393Y-99133724D01*
X168003421Y-99156572D01*
X168046615Y-99211491D01*
X168055500Y-99257584D01*
X168055500Y-100741102D01*
X168035815Y-100808141D01*
X168019181Y-100828783D01*
X167574705Y-101273258D01*
X167513382Y-101306743D01*
X167454931Y-101305352D01*
X167358697Y-101279566D01*
X167358693Y-101279565D01*
X167358692Y-101279565D01*
X167358691Y-101279564D01*
X167358686Y-101279564D01*
X167132002Y-101259732D01*
X167131998Y-101259732D01*
X166905313Y-101279564D01*
X166905302Y-101279566D01*
X166685511Y-101338458D01*
X166685502Y-101338461D01*
X166479267Y-101434631D01*
X166479265Y-101434632D01*
X166292858Y-101565154D01*
X166131954Y-101726058D01*
X166001432Y-101912465D01*
X166001431Y-101912467D01*
X165905261Y-102118702D01*
X165905258Y-102118711D01*
X165846366Y-102338502D01*
X165846364Y-102338513D01*
X165826532Y-102565198D01*
X165826532Y-102565201D01*
X158277468Y-102565201D01*
X158277468Y-102565200D01*
X158257635Y-102338508D01*
X158198739Y-102118704D01*
X158102568Y-101912466D01*
X157972047Y-101726061D01*
X157972045Y-101726058D01*
X157811141Y-101565154D01*
X157624734Y-101434632D01*
X157624732Y-101434631D01*
X157418497Y-101338461D01*
X157418488Y-101338458D01*
X157198697Y-101279566D01*
X157198693Y-101279565D01*
X157198692Y-101279565D01*
X157198691Y-101279564D01*
X157198686Y-101279564D01*
X156972002Y-101259732D01*
X156971998Y-101259732D01*
X156745313Y-101279564D01*
X156745302Y-101279566D01*
X156525511Y-101338458D01*
X156525502Y-101338461D01*
X156319267Y-101434631D01*
X156319265Y-101434632D01*
X156132858Y-101565154D01*
X155971954Y-101726058D01*
X155841432Y-101912465D01*
X155841431Y-101912467D01*
X155745261Y-102118702D01*
X155745258Y-102118711D01*
X155686366Y-102338502D01*
X155686364Y-102338513D01*
X155673417Y-102486507D01*
X155647965Y-102551576D01*
X155591374Y-102592555D01*
X155549889Y-102599700D01*
X154685525Y-102599700D01*
X154618486Y-102580015D01*
X154586571Y-102550427D01*
X154479720Y-102408936D01*
X154319550Y-102262922D01*
X154319549Y-102262921D01*
X154195492Y-102186108D01*
X154135274Y-102148822D01*
X154135272Y-102148821D01*
X154046034Y-102114250D01*
X153933169Y-102070526D01*
X153833174Y-102051833D01*
X153770895Y-102020165D01*
X153735622Y-101959853D01*
X153738556Y-101890045D01*
X153778765Y-101832905D01*
X153833177Y-101808056D01*
X153933028Y-101789391D01*
X153933030Y-101789390D01*
X154135048Y-101711129D01*
X154135049Y-101711128D01*
X154242558Y-101644561D01*
X153671757Y-101073760D01*
X153771933Y-101046918D01*
X153866565Y-100992283D01*
X153943832Y-100915016D01*
X153998467Y-100820384D01*
X154025309Y-100720208D01*
X154598475Y-101293374D01*
X154598477Y-101293374D01*
X154609910Y-101278236D01*
X154706477Y-101084304D01*
X154765767Y-100875918D01*
X154785757Y-100660200D01*
X154785757Y-100660199D01*
X154765767Y-100444481D01*
X154706477Y-100236095D01*
X154609911Y-100042166D01*
X154609910Y-100042163D01*
X154598475Y-100027023D01*
X154025309Y-100600191D01*
X153998467Y-100500016D01*
X153943832Y-100405384D01*
X153866565Y-100328117D01*
X153771933Y-100273482D01*
X153671757Y-100246639D01*
X154242558Y-99675837D01*
X154242557Y-99675836D01*
X154135052Y-99609273D01*
X154135046Y-99609270D01*
X153933029Y-99531009D01*
X153833176Y-99512343D01*
X153770895Y-99480675D01*
X153735622Y-99420362D01*
X153738556Y-99350554D01*
X153778765Y-99293414D01*
X153833172Y-99268566D01*
X153933169Y-99249874D01*
X154135273Y-99171578D01*
X154319549Y-99057479D01*
X154479722Y-98911462D01*
X154583849Y-98773577D01*
X154586571Y-98769973D01*
X154642681Y-98728337D01*
X154685525Y-98720700D01*
X155897996Y-98720700D01*
X155965035Y-98740385D01*
X155999571Y-98773577D01*
X156058502Y-98857740D01*
X156219407Y-99018645D01*
X156219410Y-99018647D01*
X156405815Y-99149168D01*
X156612053Y-99245339D01*
X156612058Y-99245340D01*
X156612060Y-99245341D01*
X156657752Y-99257584D01*
X156831857Y-99304235D01*
X156993779Y-99318401D01*
X157058547Y-99324068D01*
X157058549Y-99324068D01*
X157058551Y-99324068D01*
X157115222Y-99319109D01*
X157285241Y-99304235D01*
X157505045Y-99245339D01*
X157711283Y-99149168D01*
X157897688Y-99018647D01*
X158058596Y-98857739D01*
X158189117Y-98671334D01*
X158285288Y-98465096D01*
X158344184Y-98245292D01*
X158364017Y-98018600D01*
X158344184Y-97791908D01*
X158285288Y-97572104D01*
X158189117Y-97365866D01*
X158058596Y-97179461D01*
X158058594Y-97179458D01*
X157897690Y-97018554D01*
X157711283Y-96888032D01*
X157711281Y-96888031D01*
X157505046Y-96791861D01*
X157505037Y-96791858D01*
X157285246Y-96732966D01*
X157285242Y-96732965D01*
X157285241Y-96732965D01*
X157285240Y-96732964D01*
X157285235Y-96732964D01*
X157058551Y-96713132D01*
X157058547Y-96713132D01*
X156831862Y-96732964D01*
X156831851Y-96732966D01*
X156612060Y-96791858D01*
X156612051Y-96791861D01*
X156405816Y-96888031D01*
X156405814Y-96888032D01*
X156219407Y-97018554D01*
X156058503Y-97179458D01*
X155927981Y-97365865D01*
X155927980Y-97365867D01*
X155889632Y-97448105D01*
X155843459Y-97500544D01*
X155777250Y-97519700D01*
X154685525Y-97519700D01*
X154618486Y-97500015D01*
X154586571Y-97470427D01*
X154479720Y-97328936D01*
X154319550Y-97182922D01*
X154319549Y-97182921D01*
X154195492Y-97106108D01*
X154135274Y-97068822D01*
X154135272Y-97068821D01*
X154032362Y-97028954D01*
X153933169Y-96990526D01*
X153834535Y-96972088D01*
X153772256Y-96940421D01*
X153736983Y-96880108D01*
X153739917Y-96810300D01*
X153780126Y-96753160D01*
X153834534Y-96728311D01*
X153933169Y-96709874D01*
X154135273Y-96631578D01*
X154319549Y-96517479D01*
X154479722Y-96371462D01*
X154610338Y-96198500D01*
X154706947Y-96004482D01*
X154766261Y-95796016D01*
X154786259Y-95580200D01*
X154784084Y-95556733D01*
X154766261Y-95364384D01*
X154766260Y-95364382D01*
X154764874Y-95359511D01*
X154706947Y-95155918D01*
X154610338Y-94961900D01*
X154479722Y-94788938D01*
X154319549Y-94642921D01*
X154195492Y-94566108D01*
X154135274Y-94528822D01*
X154135272Y-94528821D01*
X154065512Y-94501796D01*
X153933169Y-94450526D01*
X153720119Y-94410700D01*
X153503379Y-94410700D01*
X153290329Y-94450526D01*
X153246762Y-94467404D01*
X153088225Y-94528821D01*
X153088223Y-94528822D01*
X152903947Y-94642922D01*
X152743777Y-94788936D01*
X152613160Y-94961899D01*
X152516555Y-95155907D01*
X152516549Y-95155922D01*
X152457237Y-95364382D01*
X152457236Y-95364384D01*
X152437239Y-95580199D01*
X152437239Y-95580200D01*
X152457236Y-95796015D01*
X152457237Y-95796017D01*
X152516549Y-96004477D01*
X152516555Y-96004492D01*
X152602154Y-96176397D01*
X152613160Y-96198500D01*
X152743776Y-96371462D01*
X152903949Y-96517479D01*
X153044301Y-96604381D01*
X153079285Y-96626043D01*
X153088225Y-96631578D01*
X153290329Y-96709874D01*
X153388961Y-96728311D01*
X153451241Y-96759979D01*
X153486514Y-96820292D01*
X153483580Y-96890100D01*
X153443371Y-96947240D01*
X153388961Y-96972088D01*
X153290329Y-96990526D01*
X153233896Y-97012388D01*
X153088225Y-97068821D01*
X153088223Y-97068822D01*
X152903947Y-97182922D01*
X152743777Y-97328936D01*
X152613160Y-97501899D01*
X152516555Y-97695907D01*
X152516549Y-97695922D01*
X152457237Y-97904382D01*
X152457236Y-97904384D01*
X152437239Y-98120199D01*
X152437239Y-98120200D01*
X152457236Y-98336015D01*
X152457237Y-98336017D01*
X152516549Y-98544477D01*
X152516555Y-98544492D01*
X152598834Y-98709729D01*
X152613160Y-98738500D01*
X152743776Y-98911462D01*
X152903949Y-99057479D01*
X153027089Y-99133724D01*
X153063989Y-99156572D01*
X153088225Y-99171578D01*
X153290329Y-99249874D01*
X153390323Y-99268566D01*
X153452602Y-99300233D01*
X153487875Y-99360545D01*
X153484941Y-99430353D01*
X153444732Y-99487494D01*
X153390322Y-99512343D01*
X153290467Y-99531009D01*
X153088451Y-99609270D01*
X153088448Y-99609271D01*
X152980938Y-99675836D01*
X152980938Y-99675837D01*
X153551741Y-100246639D01*
X153451565Y-100273482D01*
X153356933Y-100328117D01*
X153279666Y-100405384D01*
X153225031Y-100500016D01*
X153198188Y-100600191D01*
X152625020Y-100027023D01*
X152613591Y-100042157D01*
X152613583Y-100042170D01*
X152517020Y-100236095D01*
X152457730Y-100444481D01*
X152437741Y-100660199D01*
X152437741Y-100660200D01*
X152457730Y-100875918D01*
X152517020Y-101084304D01*
X152613585Y-101278233D01*
X152613587Y-101278236D01*
X152625019Y-101293374D01*
X153198188Y-100720207D01*
X153225031Y-100820384D01*
X153279666Y-100915016D01*
X153356933Y-100992283D01*
X153451565Y-101046918D01*
X153551741Y-101073760D01*
X152980938Y-101644561D01*
X152980939Y-101644562D01*
X153088445Y-101711127D01*
X153088451Y-101711129D01*
X153290467Y-101789390D01*
X153290469Y-101789391D01*
X153390320Y-101808056D01*
X153452601Y-101839724D01*
X153487875Y-101900036D01*
X153484942Y-101969844D01*
X153444733Y-102026984D01*
X153390322Y-102051833D01*
X153290340Y-102070523D01*
X153290331Y-102070525D01*
X153290329Y-102070526D01*
X153233896Y-102092388D01*
X153088225Y-102148821D01*
X153088223Y-102148822D01*
X152903947Y-102262922D01*
X152743777Y-102408936D01*
X152613160Y-102581899D01*
X152516555Y-102775907D01*
X152516549Y-102775922D01*
X152457237Y-102984382D01*
X152457236Y-102984384D01*
X152437239Y-103200199D01*
X152437239Y-103200200D01*
X146846259Y-103200200D01*
X146826261Y-102984384D01*
X146766947Y-102775918D01*
X146670338Y-102581900D01*
X146539722Y-102408938D01*
X146462469Y-102338513D01*
X146379550Y-102262922D01*
X146379549Y-102262921D01*
X146255492Y-102186108D01*
X146195274Y-102148822D01*
X146195272Y-102148821D01*
X146117525Y-102118702D01*
X145993169Y-102070526D01*
X145894535Y-102052088D01*
X145832256Y-102020421D01*
X145796983Y-101960108D01*
X145799917Y-101890300D01*
X145840126Y-101833160D01*
X145894534Y-101808311D01*
X145993169Y-101789874D01*
X146195273Y-101711578D01*
X146379549Y-101597479D01*
X146539722Y-101451462D01*
X146670338Y-101278500D01*
X146766947Y-101084482D01*
X146826261Y-100876016D01*
X146846259Y-100660200D01*
X146826261Y-100444384D01*
X146766947Y-100235918D01*
X146670338Y-100041900D01*
X146539722Y-99868938D01*
X146379549Y-99722921D01*
X146255492Y-99646108D01*
X146195274Y-99608822D01*
X146195272Y-99608821D01*
X146125512Y-99581796D01*
X145993169Y-99530526D01*
X145894535Y-99512088D01*
X145832256Y-99480421D01*
X145796983Y-99420108D01*
X145799917Y-99350300D01*
X145840126Y-99293160D01*
X145894534Y-99268311D01*
X145993169Y-99249874D01*
X146195273Y-99171578D01*
X146379549Y-99057479D01*
X146539722Y-98911462D01*
X146670338Y-98738500D01*
X146766947Y-98544482D01*
X146826261Y-98336016D01*
X146846259Y-98120200D01*
X146826261Y-97904384D01*
X146766947Y-97695918D01*
X146670338Y-97501900D01*
X146539722Y-97328938D01*
X146521871Y-97312665D01*
X146379550Y-97182922D01*
X146379549Y-97182921D01*
X146255492Y-97106108D01*
X146195274Y-97068822D01*
X146195272Y-97068821D01*
X146092362Y-97028954D01*
X145993169Y-96990526D01*
X145993164Y-96990525D01*
X145990069Y-96989326D01*
X145934668Y-96946753D01*
X145911077Y-96880986D01*
X145926788Y-96812906D01*
X145976812Y-96764127D01*
X146034862Y-96749699D01*
X146388621Y-96749699D01*
X146448232Y-96743291D01*
X146583080Y-96692996D01*
X146698295Y-96606746D01*
X146784545Y-96491531D01*
X146834840Y-96356683D01*
X146841249Y-96297073D01*
X146841248Y-94863328D01*
X146834840Y-94803717D01*
X146830768Y-94792800D01*
X146784546Y-94668871D01*
X146784542Y-94668864D01*
X146698296Y-94553655D01*
X146698293Y-94553652D01*
X146583084Y-94467406D01*
X146583077Y-94467402D01*
X146448231Y-94417108D01*
X146448232Y-94417108D01*
X146388632Y-94410701D01*
X146388630Y-94410700D01*
X146388622Y-94410700D01*
X146388613Y-94410700D01*
X144954878Y-94410700D01*
X144954872Y-94410701D01*
X144895265Y-94417108D01*
X144760420Y-94467402D01*
X144760413Y-94467406D01*
X144645204Y-94553652D01*
X144645201Y-94553655D01*
X144558955Y-94668864D01*
X144558951Y-94668871D01*
X144508657Y-94803717D01*
X144505297Y-94834974D01*
X144502250Y-94863323D01*
X144502249Y-94863335D01*
X144502249Y-96297070D01*
X144502250Y-96297076D01*
X144508657Y-96356683D01*
X144558951Y-96491528D01*
X144558955Y-96491535D01*
X144645201Y-96606744D01*
X144645204Y-96606747D01*
X144760413Y-96692993D01*
X144760420Y-96692997D01*
X144895266Y-96743291D01*
X144895265Y-96743291D01*
X144902193Y-96744035D01*
X144954876Y-96749700D01*
X145308635Y-96749699D01*
X145375672Y-96769383D01*
X145421427Y-96822187D01*
X145431371Y-96891346D01*
X145402346Y-96954901D01*
X145353427Y-96989326D01*
X145148225Y-97068821D01*
X145148223Y-97068822D01*
X144963947Y-97182922D01*
X144803777Y-97328936D01*
X144696927Y-97470427D01*
X144640817Y-97512063D01*
X144597973Y-97519700D01*
X141193897Y-97519700D01*
X141126858Y-97500015D01*
X141106216Y-97483381D01*
X139016019Y-95393184D01*
X138982534Y-95331861D01*
X138979700Y-95305503D01*
X138979700Y-91820295D01*
X162022000Y-91820295D01*
X162028401Y-91879823D01*
X162028403Y-91879830D01*
X162078645Y-92014537D01*
X162078649Y-92014544D01*
X162164809Y-92129638D01*
X162164812Y-92129641D01*
X162279906Y-92215801D01*
X162279913Y-92215805D01*
X162414620Y-92266047D01*
X162414627Y-92266049D01*
X162474155Y-92272450D01*
X162474172Y-92272451D01*
X163072000Y-92272451D01*
X163072000Y-91288137D01*
X163076394Y-91292531D01*
X163167606Y-91345192D01*
X163269339Y-91372451D01*
X163374661Y-91372451D01*
X163476394Y-91345192D01*
X163567606Y-91292531D01*
X163572000Y-91288137D01*
X163572000Y-92272451D01*
X164169828Y-92272451D01*
X164169844Y-92272450D01*
X164229372Y-92266049D01*
X164229379Y-92266047D01*
X164364086Y-92215805D01*
X164364093Y-92215801D01*
X164479187Y-92129641D01*
X164479190Y-92129638D01*
X164565350Y-92014544D01*
X164565354Y-92014537D01*
X164615596Y-91879830D01*
X164615598Y-91879823D01*
X164621999Y-91820295D01*
X164622000Y-91820278D01*
X164622000Y-91222451D01*
X163637686Y-91222451D01*
X163642080Y-91218057D01*
X163694741Y-91126845D01*
X163722000Y-91025112D01*
X163722000Y-90919790D01*
X163694741Y-90818057D01*
X163642080Y-90726845D01*
X163637686Y-90722451D01*
X164622000Y-90722451D01*
X164622000Y-90124623D01*
X164621999Y-90124606D01*
X164615598Y-90065078D01*
X164615596Y-90065071D01*
X164565354Y-89930364D01*
X164565350Y-89930357D01*
X164479190Y-89815263D01*
X164479187Y-89815260D01*
X164364093Y-89729100D01*
X164364086Y-89729096D01*
X164229379Y-89678854D01*
X164229372Y-89678852D01*
X164169844Y-89672451D01*
X163572000Y-89672451D01*
X163572000Y-90656765D01*
X163567606Y-90652371D01*
X163476394Y-90599710D01*
X163374661Y-90572451D01*
X163269339Y-90572451D01*
X163167606Y-90599710D01*
X163076394Y-90652371D01*
X163072000Y-90656765D01*
X163072000Y-89672451D01*
X162474155Y-89672451D01*
X162414627Y-89678852D01*
X162414620Y-89678854D01*
X162279913Y-89729096D01*
X162279906Y-89729100D01*
X162164812Y-89815260D01*
X162164809Y-89815263D01*
X162078649Y-89930357D01*
X162078645Y-89930364D01*
X162028403Y-90065071D01*
X162028401Y-90065078D01*
X162022000Y-90124606D01*
X162022000Y-90722451D01*
X163006314Y-90722451D01*
X163001920Y-90726845D01*
X162949259Y-90818057D01*
X162922000Y-90919790D01*
X162922000Y-91025112D01*
X162949259Y-91126845D01*
X163001920Y-91218057D01*
X163006314Y-91222451D01*
X162022000Y-91222451D01*
X162022000Y-91820295D01*
X138979700Y-91820295D01*
X138979700Y-89027001D01*
X145815132Y-89027001D01*
X145834964Y-89253686D01*
X145834966Y-89253697D01*
X145893858Y-89473488D01*
X145893861Y-89473497D01*
X145990031Y-89679732D01*
X145990032Y-89679734D01*
X146120554Y-89866141D01*
X146281458Y-90027045D01*
X146281461Y-90027047D01*
X146467866Y-90157568D01*
X146674104Y-90253739D01*
X146893908Y-90312635D01*
X147055830Y-90326801D01*
X147120598Y-90332468D01*
X147120600Y-90332468D01*
X147120602Y-90332468D01*
X147183111Y-90326999D01*
X147347292Y-90312635D01*
X147567096Y-90253739D01*
X147773334Y-90157568D01*
X147959739Y-90027047D01*
X148111942Y-89874844D01*
X150820600Y-89874844D01*
X150827001Y-89934372D01*
X150827003Y-89934379D01*
X150877245Y-90069086D01*
X150877249Y-90069093D01*
X150963409Y-90184187D01*
X150963412Y-90184190D01*
X151078506Y-90270350D01*
X151078513Y-90270354D01*
X151213220Y-90320596D01*
X151213227Y-90320598D01*
X151272755Y-90326999D01*
X151272772Y-90327000D01*
X151870600Y-90327000D01*
X151870600Y-89342686D01*
X151874994Y-89347080D01*
X151966206Y-89399741D01*
X152067939Y-89427000D01*
X152173261Y-89427000D01*
X152274994Y-89399741D01*
X152366206Y-89347080D01*
X152370600Y-89342686D01*
X152370600Y-90327000D01*
X152968428Y-90327000D01*
X152968444Y-90326999D01*
X153027972Y-90320598D01*
X153027979Y-90320596D01*
X153162686Y-90270354D01*
X153162693Y-90270350D01*
X153277787Y-90184190D01*
X153277790Y-90184187D01*
X153363950Y-90069093D01*
X153363954Y-90069086D01*
X153414196Y-89934379D01*
X153414198Y-89934372D01*
X153420599Y-89874844D01*
X153420600Y-89874827D01*
X153420600Y-89277000D01*
X152436286Y-89277000D01*
X152440680Y-89272606D01*
X152493341Y-89181394D01*
X152520600Y-89079661D01*
X152520600Y-88974339D01*
X152493341Y-88872606D01*
X152440680Y-88781394D01*
X152436286Y-88777000D01*
X153420600Y-88777000D01*
X153420600Y-88179172D01*
X153420599Y-88179155D01*
X153414198Y-88119627D01*
X153414196Y-88119620D01*
X153363954Y-87984913D01*
X153363950Y-87984906D01*
X153277790Y-87869812D01*
X153277787Y-87869809D01*
X153162693Y-87783649D01*
X153162686Y-87783645D01*
X153027979Y-87733403D01*
X153027972Y-87733401D01*
X152968444Y-87727000D01*
X152370600Y-87727000D01*
X152370600Y-88711314D01*
X152366206Y-88706920D01*
X152274994Y-88654259D01*
X152173261Y-88627000D01*
X152067939Y-88627000D01*
X151966206Y-88654259D01*
X151874994Y-88706920D01*
X151870600Y-88711314D01*
X151870600Y-87727000D01*
X151272755Y-87727000D01*
X151213227Y-87733401D01*
X151213220Y-87733403D01*
X151078513Y-87783645D01*
X151078506Y-87783649D01*
X150963412Y-87869809D01*
X150963409Y-87869812D01*
X150877249Y-87984906D01*
X150877245Y-87984913D01*
X150827003Y-88119620D01*
X150827001Y-88119627D01*
X150820600Y-88179155D01*
X150820600Y-88777000D01*
X151804914Y-88777000D01*
X151800520Y-88781394D01*
X151747859Y-88872606D01*
X151720600Y-88974339D01*
X151720600Y-89079661D01*
X151747859Y-89181394D01*
X151800520Y-89272606D01*
X151804914Y-89277000D01*
X150820600Y-89277000D01*
X150820600Y-89874844D01*
X148111942Y-89874844D01*
X148120647Y-89866139D01*
X148251168Y-89679734D01*
X148347339Y-89473496D01*
X148406235Y-89253692D01*
X148426068Y-89027000D01*
X148406235Y-88800308D01*
X148347339Y-88580504D01*
X148251168Y-88374266D01*
X148120647Y-88187861D01*
X148120645Y-88187858D01*
X147959741Y-88026954D01*
X147773334Y-87896432D01*
X147773332Y-87896431D01*
X147567097Y-87800261D01*
X147567088Y-87800258D01*
X147347297Y-87741366D01*
X147347293Y-87741365D01*
X147347292Y-87741365D01*
X147347291Y-87741364D01*
X147347286Y-87741364D01*
X147120602Y-87721532D01*
X147120598Y-87721532D01*
X146893913Y-87741364D01*
X146893902Y-87741366D01*
X146674111Y-87800258D01*
X146674102Y-87800261D01*
X146467867Y-87896431D01*
X146467865Y-87896432D01*
X146281458Y-88026954D01*
X146120554Y-88187858D01*
X145990032Y-88374265D01*
X145990031Y-88374267D01*
X145893861Y-88580502D01*
X145893858Y-88580511D01*
X145834966Y-88800302D01*
X145834964Y-88800313D01*
X145815132Y-89026998D01*
X145815132Y-89027001D01*
X138979700Y-89027001D01*
X138979700Y-85972452D01*
X162016532Y-85972452D01*
X162036364Y-86199137D01*
X162036366Y-86199148D01*
X162095258Y-86418939D01*
X162095261Y-86418948D01*
X162191431Y-86625183D01*
X162191432Y-86625185D01*
X162321954Y-86811592D01*
X162482858Y-86972496D01*
X162482861Y-86972498D01*
X162669266Y-87103019D01*
X162875504Y-87199190D01*
X163095308Y-87258086D01*
X163257230Y-87272252D01*
X163321998Y-87277919D01*
X163322000Y-87277919D01*
X163322002Y-87277919D01*
X163378673Y-87272960D01*
X163548692Y-87258086D01*
X163768496Y-87199190D01*
X163974734Y-87103019D01*
X164161139Y-86972498D01*
X164322047Y-86811590D01*
X164452568Y-86625185D01*
X164548739Y-86418947D01*
X164607635Y-86199143D01*
X164627468Y-85972451D01*
X164607635Y-85745759D01*
X164548739Y-85525955D01*
X164452568Y-85319717D01*
X164349197Y-85172086D01*
X164322045Y-85133309D01*
X164161141Y-84972405D01*
X163974734Y-84841883D01*
X163974732Y-84841882D01*
X163768497Y-84745712D01*
X163768488Y-84745709D01*
X163548697Y-84686817D01*
X163548693Y-84686816D01*
X163548692Y-84686816D01*
X163548691Y-84686815D01*
X163548686Y-84686815D01*
X163322002Y-84666983D01*
X163321998Y-84666983D01*
X163095313Y-84686815D01*
X163095302Y-84686817D01*
X162875511Y-84745709D01*
X162875502Y-84745712D01*
X162669267Y-84841882D01*
X162669265Y-84841883D01*
X162482858Y-84972405D01*
X162321954Y-85133309D01*
X162191432Y-85319716D01*
X162191431Y-85319718D01*
X162095261Y-85525953D01*
X162095258Y-85525962D01*
X162036366Y-85745753D01*
X162036364Y-85745764D01*
X162016532Y-85972449D01*
X162016532Y-85972452D01*
X138979700Y-85972452D01*
X138979700Y-79574697D01*
X138999385Y-79507658D01*
X139052189Y-79461903D01*
X139121347Y-79451959D01*
X139184903Y-79480984D01*
X139191381Y-79487016D01*
X141551939Y-81847574D01*
X141551949Y-81847585D01*
X141556279Y-81851915D01*
X141556280Y-81851916D01*
X141668084Y-81963720D01*
X141686766Y-81974506D01*
X141720980Y-81994259D01*
X141720979Y-81994259D01*
X141720982Y-81994260D01*
X141805009Y-82042774D01*
X141805010Y-82042775D01*
X141805012Y-82042775D01*
X141805015Y-82042777D01*
X141957743Y-82083701D01*
X141957746Y-82083701D01*
X142123453Y-82083701D01*
X142123469Y-82083700D01*
X144293173Y-82083700D01*
X144360212Y-82103385D01*
X144392127Y-82132973D01*
X144397673Y-82140317D01*
X144498976Y-82274462D01*
X144659149Y-82420479D01*
X144843425Y-82534578D01*
X145045529Y-82612874D01*
X145258579Y-82652700D01*
X145258581Y-82652700D01*
X145475317Y-82652700D01*
X145475319Y-82652700D01*
X145688369Y-82612874D01*
X145890473Y-82534578D01*
X146074749Y-82420479D01*
X146234922Y-82274462D01*
X146365538Y-82101500D01*
X146462147Y-81907482D01*
X146521461Y-81699016D01*
X146541459Y-81483200D01*
X152132439Y-81483200D01*
X152152436Y-81699015D01*
X152152437Y-81699017D01*
X152211749Y-81907477D01*
X152211755Y-81907492D01*
X152284661Y-82053906D01*
X152308360Y-82101500D01*
X152438976Y-82274462D01*
X152599149Y-82420479D01*
X152783425Y-82534578D01*
X152985529Y-82612874D01*
X153198579Y-82652700D01*
X153198581Y-82652700D01*
X153415317Y-82652700D01*
X153415319Y-82652700D01*
X153628369Y-82612874D01*
X153830473Y-82534578D01*
X154014749Y-82420479D01*
X154174922Y-82274462D01*
X154305538Y-82101500D01*
X154402147Y-81907482D01*
X154461461Y-81699016D01*
X154481459Y-81483200D01*
X154461461Y-81267384D01*
X154461460Y-81267379D01*
X154460408Y-81261749D01*
X154461640Y-81261518D01*
X154462172Y-81197963D01*
X154493170Y-81146213D01*
X156700992Y-78938391D01*
X156762313Y-78904908D01*
X156832005Y-78909892D01*
X156841075Y-78913692D01*
X156866046Y-78925336D01*
X156866048Y-78925336D01*
X156866053Y-78925339D01*
X157085857Y-78984235D01*
X157241317Y-78997836D01*
X157312547Y-79004068D01*
X157312549Y-79004068D01*
X157312551Y-79004068D01*
X157383781Y-78997836D01*
X157539241Y-78984235D01*
X157759045Y-78925339D01*
X157965283Y-78829168D01*
X158151688Y-78698647D01*
X158312596Y-78537739D01*
X158443117Y-78351334D01*
X158539288Y-78145096D01*
X158598184Y-77925292D01*
X158618017Y-77698600D01*
X158598184Y-77471908D01*
X158539288Y-77252104D01*
X158443117Y-77045866D01*
X158312596Y-76859461D01*
X158312594Y-76859458D01*
X158151690Y-76698554D01*
X157965283Y-76568032D01*
X157965281Y-76568031D01*
X157759046Y-76471861D01*
X157759037Y-76471858D01*
X157539246Y-76412966D01*
X157539242Y-76412965D01*
X157539241Y-76412965D01*
X157539240Y-76412964D01*
X157539235Y-76412964D01*
X157312551Y-76393132D01*
X157312547Y-76393132D01*
X157085862Y-76412964D01*
X157085851Y-76412966D01*
X156866060Y-76471858D01*
X156866051Y-76471861D01*
X156659816Y-76568031D01*
X156659814Y-76568032D01*
X156473407Y-76698554D01*
X156312503Y-76859458D01*
X156181981Y-77045865D01*
X156181980Y-77045867D01*
X156085810Y-77252102D01*
X156085807Y-77252111D01*
X156026915Y-77471902D01*
X156026913Y-77471913D01*
X156007081Y-77698598D01*
X156007081Y-77698602D01*
X156020965Y-77857305D01*
X156007198Y-77925805D01*
X155985118Y-77955793D01*
X154670309Y-79270603D01*
X154608986Y-79304088D01*
X154539294Y-79299104D01*
X154483361Y-79257232D01*
X154458944Y-79191768D01*
X154460485Y-79164636D01*
X154460438Y-79164632D01*
X154460561Y-79163295D01*
X154460742Y-79160125D01*
X154460967Y-79158920D01*
X154480957Y-78943200D01*
X154480957Y-78943199D01*
X154460967Y-78727481D01*
X154401677Y-78519095D01*
X154305111Y-78325166D01*
X154305110Y-78325163D01*
X154293675Y-78310023D01*
X153720509Y-78883191D01*
X153693667Y-78783016D01*
X153639032Y-78688384D01*
X153561765Y-78611117D01*
X153467133Y-78556482D01*
X153366957Y-78529639D01*
X153937758Y-77958837D01*
X153937757Y-77958836D01*
X153830252Y-77892273D01*
X153830246Y-77892270D01*
X153628229Y-77814009D01*
X153528376Y-77795343D01*
X153466095Y-77763675D01*
X153430822Y-77703362D01*
X153433756Y-77633554D01*
X153473965Y-77576414D01*
X153528372Y-77551566D01*
X153628369Y-77532874D01*
X153830473Y-77454578D01*
X154014749Y-77340479D01*
X154174922Y-77194462D01*
X154250393Y-77094522D01*
X154281771Y-77052973D01*
X154337881Y-77011337D01*
X154380725Y-77003700D01*
X154939880Y-77003700D01*
X154939896Y-77003701D01*
X154947492Y-77003701D01*
X155105603Y-77003701D01*
X155105606Y-77003701D01*
X155258334Y-76962777D01*
X155308624Y-76933742D01*
X155308625Y-76933742D01*
X155395258Y-76883724D01*
X155395257Y-76883724D01*
X155395265Y-76883720D01*
X155507069Y-76771916D01*
X155507069Y-76771914D01*
X155517273Y-76761711D01*
X155517277Y-76761706D01*
X156844443Y-75434539D01*
X156905764Y-75401056D01*
X156964215Y-75402447D01*
X156983753Y-75407682D01*
X157060457Y-75428235D01*
X157222379Y-75442401D01*
X157287147Y-75448068D01*
X157287149Y-75448068D01*
X157287151Y-75448068D01*
X157343822Y-75443109D01*
X157513841Y-75428235D01*
X157733645Y-75369339D01*
X157939883Y-75273168D01*
X158126288Y-75142647D01*
X158287196Y-74981739D01*
X158417717Y-74795334D01*
X158513888Y-74589096D01*
X158572784Y-74369292D01*
X158592617Y-74142601D01*
X166141681Y-74142601D01*
X166161513Y-74369286D01*
X166161515Y-74369297D01*
X166220407Y-74589088D01*
X166220410Y-74589097D01*
X166316580Y-74795332D01*
X166316581Y-74795334D01*
X166447103Y-74981741D01*
X166608007Y-75142645D01*
X166651502Y-75173100D01*
X166794415Y-75273168D01*
X167000653Y-75369339D01*
X167000658Y-75369340D01*
X167000660Y-75369341D01*
X167018369Y-75374086D01*
X167220457Y-75428235D01*
X167382379Y-75442401D01*
X167447147Y-75448068D01*
X167447149Y-75448068D01*
X167447151Y-75448068D01*
X167503822Y-75443109D01*
X167673841Y-75428235D01*
X167893645Y-75369339D01*
X168031495Y-75305057D01*
X168100573Y-75294566D01*
X168164357Y-75323086D01*
X168202596Y-75381562D01*
X168207900Y-75417440D01*
X168207900Y-76411915D01*
X168188215Y-76478954D01*
X168135411Y-76524709D01*
X168066253Y-76534653D01*
X168031496Y-76524297D01*
X167919051Y-76471863D01*
X167919037Y-76471858D01*
X167699246Y-76412966D01*
X167699242Y-76412965D01*
X167699241Y-76412965D01*
X167699240Y-76412964D01*
X167699235Y-76412964D01*
X167472551Y-76393132D01*
X167472547Y-76393132D01*
X167245862Y-76412964D01*
X167245851Y-76412966D01*
X167026060Y-76471858D01*
X167026051Y-76471861D01*
X166819816Y-76568031D01*
X166819814Y-76568032D01*
X166633407Y-76698554D01*
X166472503Y-76859458D01*
X166341981Y-77045865D01*
X166341980Y-77045867D01*
X166245810Y-77252102D01*
X166245807Y-77252111D01*
X166186915Y-77471902D01*
X166186913Y-77471913D01*
X166167081Y-77698598D01*
X166167081Y-77698601D01*
X166186913Y-77925286D01*
X166186915Y-77925297D01*
X166245807Y-78145088D01*
X166245810Y-78145097D01*
X166341980Y-78351332D01*
X166341981Y-78351334D01*
X166472503Y-78537741D01*
X166633407Y-78698645D01*
X166633410Y-78698647D01*
X166819173Y-78828718D01*
X166862797Y-78883293D01*
X166872049Y-78930292D01*
X166872049Y-83591279D01*
X166872048Y-83591297D01*
X166872048Y-83757003D01*
X166872047Y-83757003D01*
X166912972Y-83909735D01*
X166926164Y-83932582D01*
X166926165Y-83932587D01*
X166926167Y-83932587D01*
X166992028Y-84046663D01*
X166992030Y-84046666D01*
X167110898Y-84165534D01*
X167110903Y-84165538D01*
X169582684Y-86637320D01*
X169642605Y-86671915D01*
X169719615Y-86716377D01*
X169872343Y-86757301D01*
X169872346Y-86757301D01*
X170030456Y-86757301D01*
X170030457Y-86757301D01*
X170030458Y-86757301D01*
X170109486Y-86736124D01*
X170141580Y-86731900D01*
X171205886Y-86731900D01*
X171272925Y-86751585D01*
X171280196Y-86756633D01*
X171309265Y-86778393D01*
X171309271Y-86778397D01*
X171444117Y-86828691D01*
X171444116Y-86828691D01*
X171451044Y-86829435D01*
X171503727Y-86835100D01*
X172310672Y-86835099D01*
X172370283Y-86828691D01*
X172505131Y-86778396D01*
X172620346Y-86692146D01*
X172706596Y-86576931D01*
X172756891Y-86442083D01*
X172763300Y-86382473D01*
X172763299Y-85880328D01*
X172756891Y-85820717D01*
X172745590Y-85790418D01*
X172706597Y-85685871D01*
X172706593Y-85685864D01*
X172620389Y-85570711D01*
X172595971Y-85505247D01*
X172610822Y-85436974D01*
X172620389Y-85422089D01*
X172706593Y-85306935D01*
X172706592Y-85306935D01*
X172706596Y-85306931D01*
X172756891Y-85172083D01*
X172763300Y-85112473D01*
X172763299Y-84610328D01*
X172756891Y-84550717D01*
X172729274Y-84476673D01*
X172706597Y-84415871D01*
X172706593Y-84415864D01*
X172620389Y-84300711D01*
X172595971Y-84235247D01*
X172610822Y-84166974D01*
X172620389Y-84152089D01*
X172706593Y-84036935D01*
X172706592Y-84036935D01*
X172706596Y-84036931D01*
X172756891Y-83902083D01*
X172763300Y-83842473D01*
X172763299Y-83340328D01*
X172756891Y-83280717D01*
X172745590Y-83250418D01*
X172706597Y-83145871D01*
X172706593Y-83145864D01*
X172620347Y-83030655D01*
X172620344Y-83030652D01*
X172505135Y-82944406D01*
X172505128Y-82944402D01*
X172370282Y-82894108D01*
X172370283Y-82894108D01*
X172310683Y-82887701D01*
X172310681Y-82887700D01*
X172310673Y-82887700D01*
X172310664Y-82887700D01*
X171503729Y-82887700D01*
X171503723Y-82887701D01*
X171444116Y-82894108D01*
X171309271Y-82944402D01*
X171309265Y-82944406D01*
X171280196Y-82966167D01*
X171214732Y-82990584D01*
X171205886Y-82990900D01*
X170708698Y-82990900D01*
X170641659Y-82971215D01*
X170621017Y-82954581D01*
X169445219Y-81778783D01*
X169411734Y-81717460D01*
X169408900Y-81691102D01*
X169408900Y-74892060D01*
X169408901Y-74892047D01*
X169408901Y-74723944D01*
X169386323Y-74639683D01*
X169367977Y-74571216D01*
X169316180Y-74481500D01*
X169288924Y-74434290D01*
X169288918Y-74434282D01*
X168742457Y-73887821D01*
X168710363Y-73832233D01*
X168708181Y-73824090D01*
X168673888Y-73696104D01*
X168577717Y-73489866D01*
X168447196Y-73303461D01*
X168447194Y-73303458D01*
X168286290Y-73142554D01*
X168099883Y-73012032D01*
X168099881Y-73012031D01*
X167893646Y-72915861D01*
X167893637Y-72915858D01*
X167673846Y-72856966D01*
X167673842Y-72856965D01*
X167673841Y-72856965D01*
X167673840Y-72856964D01*
X167673835Y-72856964D01*
X167447151Y-72837132D01*
X167447147Y-72837132D01*
X167220462Y-72856964D01*
X167220451Y-72856966D01*
X167000660Y-72915858D01*
X167000651Y-72915861D01*
X166794416Y-73012031D01*
X166794414Y-73012032D01*
X166608007Y-73142554D01*
X166447103Y-73303458D01*
X166316581Y-73489865D01*
X166316580Y-73489867D01*
X166220410Y-73696102D01*
X166220407Y-73696111D01*
X166161515Y-73915902D01*
X166161513Y-73915913D01*
X166141681Y-74142598D01*
X166141681Y-74142601D01*
X158592617Y-74142601D01*
X158592617Y-74142600D01*
X158572784Y-73915908D01*
X158513888Y-73696104D01*
X158417717Y-73489866D01*
X158287196Y-73303461D01*
X158287194Y-73303458D01*
X158126290Y-73142554D01*
X157939883Y-73012032D01*
X157939881Y-73012031D01*
X157733646Y-72915861D01*
X157733637Y-72915858D01*
X157513846Y-72856966D01*
X157513842Y-72856965D01*
X157513841Y-72856965D01*
X157513840Y-72856964D01*
X157513835Y-72856964D01*
X157287151Y-72837132D01*
X157287147Y-72837132D01*
X157060462Y-72856964D01*
X157060451Y-72856966D01*
X156840660Y-72915858D01*
X156840651Y-72915861D01*
X156634416Y-73012031D01*
X156634414Y-73012032D01*
X156448007Y-73142554D01*
X156287103Y-73303458D01*
X156156581Y-73489865D01*
X156156580Y-73489867D01*
X156060410Y-73696102D01*
X156060407Y-73696111D01*
X156001515Y-73915902D01*
X156001513Y-73915913D01*
X155981681Y-74142598D01*
X155981681Y-74142601D01*
X156001513Y-74369286D01*
X156001515Y-74369297D01*
X156027301Y-74465531D01*
X156025638Y-74535381D01*
X155995207Y-74585305D01*
X154814133Y-75766381D01*
X154752810Y-75799866D01*
X154726452Y-75802700D01*
X154380725Y-75802700D01*
X154313686Y-75783015D01*
X154281771Y-75753427D01*
X154174920Y-75611936D01*
X154014750Y-75465922D01*
X154014749Y-75465921D01*
X153878505Y-75381562D01*
X153830474Y-75351822D01*
X153830472Y-75351821D01*
X153756297Y-75323086D01*
X153628369Y-75273526D01*
X153529735Y-75255088D01*
X153467456Y-75223421D01*
X153432183Y-75163108D01*
X153435117Y-75093300D01*
X153475326Y-75036160D01*
X153529734Y-75011311D01*
X153628369Y-74992874D01*
X153830473Y-74914578D01*
X154014749Y-74800479D01*
X154174922Y-74654462D01*
X154305538Y-74481500D01*
X154402147Y-74287482D01*
X154461461Y-74079016D01*
X154481459Y-73863200D01*
X154479229Y-73839139D01*
X154461461Y-73647384D01*
X154461460Y-73647382D01*
X154447237Y-73597394D01*
X154402147Y-73438918D01*
X154305538Y-73244900D01*
X154174922Y-73071938D01*
X154144105Y-73043845D01*
X154014750Y-72925922D01*
X154014749Y-72925921D01*
X153903383Y-72856966D01*
X153830474Y-72811822D01*
X153830472Y-72811821D01*
X153731070Y-72773313D01*
X153628369Y-72733526D01*
X153415319Y-72693700D01*
X153198579Y-72693700D01*
X152985529Y-72733526D01*
X152941962Y-72750404D01*
X152783425Y-72811821D01*
X152783423Y-72811822D01*
X152599147Y-72925922D01*
X152438977Y-73071936D01*
X152308360Y-73244899D01*
X152211755Y-73438907D01*
X152211749Y-73438922D01*
X152152437Y-73647382D01*
X152152436Y-73647384D01*
X152132439Y-73863199D01*
X152132439Y-73863200D01*
X152152436Y-74079015D01*
X152152437Y-74079017D01*
X152211749Y-74287477D01*
X152211755Y-74287492D01*
X152284848Y-74434282D01*
X152308360Y-74481500D01*
X152438976Y-74654462D01*
X152599149Y-74800479D01*
X152783425Y-74914578D01*
X152985529Y-74992874D01*
X153084161Y-75011311D01*
X153146441Y-75042979D01*
X153181714Y-75103292D01*
X153178780Y-75173100D01*
X153138571Y-75230240D01*
X153084161Y-75255088D01*
X152985529Y-75273526D01*
X152931219Y-75294566D01*
X152783425Y-75351821D01*
X152783423Y-75351822D01*
X152599147Y-75465922D01*
X152438977Y-75611936D01*
X152308360Y-75784899D01*
X152211755Y-75978907D01*
X152211749Y-75978922D01*
X152152437Y-76187382D01*
X152152436Y-76187384D01*
X152132439Y-76403199D01*
X152132439Y-76403200D01*
X152152436Y-76619015D01*
X152152437Y-76619017D01*
X152211749Y-76827477D01*
X152211755Y-76827492D01*
X152299497Y-77003700D01*
X152308360Y-77021500D01*
X152438976Y-77194462D01*
X152599149Y-77340479D01*
X152783425Y-77454578D01*
X152985529Y-77532874D01*
X153085523Y-77551566D01*
X153147802Y-77583233D01*
X153183075Y-77643545D01*
X153180141Y-77713353D01*
X153139932Y-77770494D01*
X153085522Y-77795343D01*
X152985667Y-77814009D01*
X152783651Y-77892270D01*
X152783648Y-77892271D01*
X152676138Y-77958836D01*
X152676138Y-77958837D01*
X153246941Y-78529639D01*
X153146765Y-78556482D01*
X153052133Y-78611117D01*
X152974866Y-78688384D01*
X152920231Y-78783016D01*
X152893388Y-78883191D01*
X152320220Y-78310023D01*
X152308791Y-78325157D01*
X152308783Y-78325170D01*
X152212220Y-78519095D01*
X152152930Y-78727481D01*
X152132941Y-78943199D01*
X152132941Y-78943200D01*
X152152930Y-79158918D01*
X152212220Y-79367304D01*
X152308785Y-79561233D01*
X152308787Y-79561236D01*
X152320219Y-79576374D01*
X152893388Y-79003207D01*
X152920231Y-79103384D01*
X152974866Y-79198016D01*
X153052133Y-79275283D01*
X153146765Y-79329918D01*
X153246941Y-79356760D01*
X152676138Y-79927561D01*
X152676139Y-79927562D01*
X152783645Y-79994127D01*
X152783651Y-79994129D01*
X152985667Y-80072390D01*
X152985669Y-80072391D01*
X153085520Y-80091056D01*
X153147801Y-80122724D01*
X153183075Y-80183036D01*
X153180142Y-80252844D01*
X153139933Y-80309984D01*
X153085522Y-80334833D01*
X152985540Y-80353523D01*
X152985531Y-80353525D01*
X152985529Y-80353526D01*
X152929096Y-80375388D01*
X152783425Y-80431821D01*
X152783423Y-80431822D01*
X152599147Y-80545922D01*
X152438977Y-80691936D01*
X152308360Y-80864899D01*
X152211755Y-81058907D01*
X152211749Y-81058922D01*
X152152437Y-81267382D01*
X152152436Y-81267384D01*
X152132439Y-81483199D01*
X152132439Y-81483200D01*
X146541459Y-81483200D01*
X146521461Y-81267384D01*
X146462147Y-81058918D01*
X146447803Y-81030112D01*
X146414002Y-80962229D01*
X146365538Y-80864900D01*
X146234922Y-80691938D01*
X146225523Y-80683370D01*
X146074750Y-80545922D01*
X146074749Y-80545921D01*
X146004573Y-80502469D01*
X145890474Y-80431822D01*
X145890472Y-80431821D01*
X145810076Y-80400676D01*
X145688369Y-80353526D01*
X145589735Y-80335088D01*
X145527456Y-80303421D01*
X145492183Y-80243108D01*
X145495117Y-80173300D01*
X145535326Y-80116160D01*
X145589734Y-80091311D01*
X145688369Y-80072874D01*
X145890473Y-79994578D01*
X146074749Y-79880479D01*
X146234922Y-79734462D01*
X146365538Y-79561500D01*
X146462147Y-79367482D01*
X146521461Y-79159016D01*
X146541459Y-78943200D01*
X146521461Y-78727384D01*
X146462147Y-78518918D01*
X146457937Y-78510464D01*
X146400569Y-78395252D01*
X146365538Y-78324900D01*
X146234922Y-78151938D01*
X146074749Y-78005921D01*
X145950970Y-77929280D01*
X145890474Y-77891822D01*
X145890472Y-77891821D01*
X145820712Y-77864796D01*
X145688369Y-77813526D01*
X145589735Y-77795088D01*
X145527456Y-77763421D01*
X145492183Y-77703108D01*
X145495117Y-77633300D01*
X145535326Y-77576160D01*
X145589734Y-77551311D01*
X145688369Y-77532874D01*
X145890473Y-77454578D01*
X146074749Y-77340479D01*
X146234922Y-77194462D01*
X146365538Y-77021500D01*
X146462147Y-76827482D01*
X146521461Y-76619016D01*
X146541459Y-76403200D01*
X146521461Y-76187384D01*
X146462147Y-75978918D01*
X146365538Y-75784900D01*
X146234922Y-75611938D01*
X146074749Y-75465921D01*
X145938505Y-75381562D01*
X145890474Y-75351822D01*
X145890472Y-75351821D01*
X145810228Y-75320734D01*
X145688369Y-75273526D01*
X145688364Y-75273525D01*
X145685269Y-75272326D01*
X145629868Y-75229753D01*
X145606277Y-75163986D01*
X145621988Y-75095906D01*
X145672012Y-75047127D01*
X145730062Y-75032699D01*
X146083821Y-75032699D01*
X146143432Y-75026291D01*
X146278280Y-74975996D01*
X146393495Y-74889746D01*
X146479745Y-74774531D01*
X146530040Y-74639683D01*
X146536449Y-74580073D01*
X146536448Y-73146328D01*
X146530040Y-73086717D01*
X146514050Y-73043846D01*
X146479746Y-72951871D01*
X146479742Y-72951864D01*
X146393496Y-72836655D01*
X146393493Y-72836652D01*
X146278284Y-72750406D01*
X146278277Y-72750402D01*
X146143431Y-72700108D01*
X146143432Y-72700108D01*
X146083832Y-72693701D01*
X146083830Y-72693700D01*
X146083822Y-72693700D01*
X146083813Y-72693700D01*
X144650078Y-72693700D01*
X144650072Y-72693701D01*
X144590465Y-72700108D01*
X144455620Y-72750402D01*
X144455613Y-72750406D01*
X144340404Y-72836652D01*
X144340401Y-72836655D01*
X144254155Y-72951864D01*
X144254151Y-72951871D01*
X144203857Y-73086717D01*
X144197450Y-73146316D01*
X144197450Y-73146323D01*
X144197449Y-73146335D01*
X144197449Y-74580070D01*
X144197450Y-74580076D01*
X144203857Y-74639683D01*
X144254151Y-74774528D01*
X144254155Y-74774535D01*
X144340401Y-74889744D01*
X144340404Y-74889747D01*
X144455613Y-74975993D01*
X144455620Y-74975997D01*
X144590466Y-75026291D01*
X144590465Y-75026291D01*
X144597393Y-75027035D01*
X144650076Y-75032700D01*
X145003835Y-75032699D01*
X145070872Y-75052383D01*
X145116627Y-75105187D01*
X145126571Y-75174346D01*
X145097546Y-75237901D01*
X145048627Y-75272326D01*
X144843425Y-75351821D01*
X144843423Y-75351822D01*
X144659147Y-75465922D01*
X144498977Y-75611936D01*
X144392127Y-75753427D01*
X144336017Y-75795063D01*
X144293173Y-75802700D01*
X138272898Y-75802700D01*
X138205859Y-75783015D01*
X138185217Y-75766381D01*
X137799990Y-75381155D01*
X137799988Y-75381152D01*
X137681117Y-75262281D01*
X137681116Y-75262280D01*
X137594304Y-75212160D01*
X137594304Y-75212159D01*
X137594300Y-75212158D01*
X137544185Y-75183223D01*
X137391457Y-75142299D01*
X137233343Y-75142299D01*
X137225747Y-75142299D01*
X137225731Y-75142300D01*
X132903270Y-75142300D01*
X132903254Y-75142299D01*
X132895658Y-75142299D01*
X132737543Y-75142299D01*
X132661179Y-75162761D01*
X132584814Y-75183223D01*
X132584809Y-75183226D01*
X132447890Y-75262275D01*
X132447882Y-75262281D01*
X129669081Y-78041082D01*
X129669079Y-78041085D01*
X129639272Y-78092714D01*
X129639271Y-78092716D01*
X129590023Y-78178014D01*
X129590023Y-78178015D01*
X129549099Y-78330743D01*
X129549099Y-78330745D01*
X129549099Y-78498846D01*
X129549100Y-78498859D01*
X129549100Y-93603703D01*
X129529415Y-93670742D01*
X129512781Y-93691384D01*
X126508184Y-96695981D01*
X126446861Y-96729466D01*
X126420503Y-96732300D01*
X120433892Y-96732300D01*
X120366853Y-96712615D01*
X120332319Y-96679425D01*
X120202247Y-96493661D01*
X120202245Y-96493658D01*
X120041341Y-96332754D01*
X119854934Y-96202232D01*
X119854928Y-96202229D01*
X119799531Y-96176397D01*
X119796924Y-96175181D01*
X119744485Y-96129010D01*
X119725333Y-96061817D01*
X119745548Y-95994935D01*
X119796925Y-95950418D01*
X119854934Y-95923368D01*
X120041339Y-95792847D01*
X120202247Y-95631939D01*
X120332768Y-95445534D01*
X120428939Y-95239296D01*
X120487835Y-95019492D01*
X120507668Y-94792800D01*
X120487835Y-94566108D01*
X120428939Y-94346304D01*
X120332768Y-94140066D01*
X120202247Y-93953661D01*
X120202245Y-93953658D01*
X120041341Y-93792754D01*
X119854934Y-93662232D01*
X119854928Y-93662229D01*
X119796925Y-93635182D01*
X119744485Y-93589010D01*
X119725333Y-93521817D01*
X119745548Y-93454935D01*
X119796925Y-93410418D01*
X119854934Y-93383368D01*
X120041339Y-93252847D01*
X120202247Y-93091939D01*
X120332768Y-92905534D01*
X120428939Y-92699296D01*
X120487835Y-92479492D01*
X120507668Y-92252800D01*
X120487835Y-92026108D01*
X120428939Y-91806304D01*
X120332768Y-91600066D01*
X120202247Y-91413661D01*
X120202245Y-91413658D01*
X120041341Y-91252754D01*
X119854934Y-91122232D01*
X119854928Y-91122229D01*
X119796925Y-91095182D01*
X119744485Y-91049010D01*
X119725333Y-90981817D01*
X119745548Y-90914935D01*
X119796925Y-90870418D01*
X119854934Y-90843368D01*
X120041339Y-90712847D01*
X120202247Y-90551939D01*
X120332768Y-90365534D01*
X120428939Y-90159296D01*
X120487835Y-89939492D01*
X120507668Y-89712800D01*
X120487835Y-89486108D01*
X120428939Y-89266304D01*
X120332768Y-89060066D01*
X120202247Y-88873661D01*
X120202245Y-88873658D01*
X120041341Y-88712754D01*
X119854934Y-88582232D01*
X119854928Y-88582229D01*
X119796925Y-88555182D01*
X119744485Y-88509010D01*
X119725333Y-88441817D01*
X119745548Y-88374935D01*
X119796925Y-88330418D01*
X119854934Y-88303368D01*
X120041339Y-88172847D01*
X120202247Y-88011939D01*
X120332768Y-87825534D01*
X120428939Y-87619296D01*
X120487835Y-87399492D01*
X120507668Y-87172800D01*
X120487835Y-86946108D01*
X120431571Y-86736125D01*
X120428941Y-86726311D01*
X120428938Y-86726302D01*
X120421696Y-86710772D01*
X120332768Y-86520066D01*
X120202247Y-86333661D01*
X120202245Y-86333658D01*
X120041341Y-86172754D01*
X119854934Y-86042232D01*
X119854928Y-86042229D01*
X119796925Y-86015182D01*
X119744485Y-85969010D01*
X119725333Y-85901817D01*
X119745548Y-85834935D01*
X119796925Y-85790418D01*
X119854934Y-85763368D01*
X120041339Y-85632847D01*
X120202247Y-85471939D01*
X120332768Y-85285534D01*
X120428939Y-85079296D01*
X120487835Y-84859492D01*
X120507668Y-84632800D01*
X120487835Y-84406108D01*
X120432523Y-84199680D01*
X120428941Y-84186311D01*
X120428938Y-84186302D01*
X120407023Y-84139306D01*
X120332768Y-83980066D01*
X120202247Y-83793661D01*
X120202245Y-83793658D01*
X120041341Y-83632754D01*
X119854934Y-83502232D01*
X119854928Y-83502229D01*
X119796925Y-83475182D01*
X119744485Y-83429010D01*
X119725333Y-83361817D01*
X119745548Y-83294935D01*
X119796925Y-83250418D01*
X119854934Y-83223368D01*
X120041339Y-83092847D01*
X120202247Y-82931939D01*
X120332768Y-82745534D01*
X120428939Y-82539296D01*
X120487835Y-82319492D01*
X120507668Y-82092800D01*
X120487835Y-81866108D01*
X120428939Y-81646304D01*
X120332768Y-81440066D01*
X120211856Y-81267384D01*
X120202245Y-81253658D01*
X120041343Y-81092756D01*
X120030053Y-81084851D01*
X120016735Y-81075525D01*
X119973112Y-81020949D01*
X119965919Y-80951450D01*
X119997441Y-80889096D01*
X120057671Y-80853682D01*
X120074604Y-80850661D01*
X120109683Y-80846891D01*
X120244531Y-80796596D01*
X120359746Y-80710346D01*
X120445996Y-80595131D01*
X120496291Y-80460283D01*
X120502700Y-80400673D01*
X120502699Y-78704928D01*
X120496291Y-78645317D01*
X120483535Y-78611117D01*
X120445997Y-78510471D01*
X120445993Y-78510464D01*
X120359747Y-78395255D01*
X120359744Y-78395252D01*
X120244535Y-78309006D01*
X120244528Y-78309002D01*
X120109682Y-78258708D01*
X120109683Y-78258708D01*
X120050083Y-78252301D01*
X120050081Y-78252300D01*
X120050073Y-78252300D01*
X120050064Y-78252300D01*
X118354329Y-78252300D01*
X118354323Y-78252301D01*
X118294716Y-78258708D01*
X118159871Y-78309002D01*
X118159864Y-78309006D01*
X118044655Y-78395252D01*
X118044652Y-78395255D01*
X117958406Y-78510464D01*
X117958402Y-78510471D01*
X117908108Y-78645317D01*
X117902375Y-78698645D01*
X117901701Y-78704923D01*
X117901700Y-78704935D01*
X117901700Y-80400670D01*
X117901701Y-80400676D01*
X117908108Y-80460283D01*
X117958402Y-80595128D01*
X117958406Y-80595135D01*
X118044652Y-80710344D01*
X118044655Y-80710347D01*
X118159864Y-80796593D01*
X118159871Y-80796597D01*
X118204818Y-80813361D01*
X118294717Y-80846891D01*
X118329796Y-80850662D01*
X118394344Y-80877399D01*
X118434193Y-80934791D01*
X118436688Y-81004616D01*
X118401036Y-81064705D01*
X118387664Y-81075525D01*
X118363058Y-81092754D01*
X118202154Y-81253658D01*
X118071632Y-81440065D01*
X118071631Y-81440067D01*
X117975461Y-81646302D01*
X117975458Y-81646311D01*
X117916566Y-81866102D01*
X117916564Y-81866113D01*
X117896732Y-82092798D01*
X117896732Y-82092801D01*
X117916564Y-82319486D01*
X117916566Y-82319497D01*
X117975458Y-82539288D01*
X117975461Y-82539297D01*
X118071631Y-82745532D01*
X118071632Y-82745534D01*
X118202154Y-82931941D01*
X118363058Y-83092845D01*
X118363061Y-83092847D01*
X118549466Y-83223368D01*
X118607475Y-83250418D01*
X118659914Y-83296591D01*
X118679066Y-83363784D01*
X118658850Y-83430665D01*
X118607475Y-83475182D01*
X118549467Y-83502231D01*
X118549465Y-83502232D01*
X118363058Y-83632754D01*
X118202154Y-83793658D01*
X118071632Y-83980065D01*
X118071631Y-83980067D01*
X117975461Y-84186302D01*
X117975458Y-84186311D01*
X117916566Y-84406102D01*
X117916564Y-84406113D01*
X117896732Y-84632798D01*
X117896732Y-84632801D01*
X117916564Y-84859486D01*
X117916566Y-84859497D01*
X117975458Y-85079288D01*
X117975461Y-85079297D01*
X118071631Y-85285532D01*
X118071632Y-85285534D01*
X118202154Y-85471941D01*
X118363058Y-85632845D01*
X118363061Y-85632847D01*
X118549466Y-85763368D01*
X118607475Y-85790418D01*
X118659914Y-85836591D01*
X118679066Y-85903784D01*
X118658850Y-85970665D01*
X118607475Y-86015182D01*
X118549467Y-86042231D01*
X118549465Y-86042232D01*
X118363058Y-86172754D01*
X118202154Y-86333658D01*
X118071632Y-86520065D01*
X118071631Y-86520067D01*
X117975461Y-86726302D01*
X117975458Y-86726311D01*
X117916566Y-86946102D01*
X117916564Y-86946113D01*
X117896732Y-87172798D01*
X117896732Y-87172801D01*
X117916564Y-87399486D01*
X117916566Y-87399497D01*
X117975458Y-87619288D01*
X117975461Y-87619297D01*
X118071631Y-87825532D01*
X118071632Y-87825534D01*
X118202154Y-88011941D01*
X118363058Y-88172845D01*
X118363061Y-88172847D01*
X118549466Y-88303368D01*
X118607475Y-88330418D01*
X118659914Y-88376591D01*
X118679066Y-88443784D01*
X118658850Y-88510665D01*
X118607475Y-88555182D01*
X118549467Y-88582231D01*
X118549465Y-88582232D01*
X118363058Y-88712754D01*
X118202154Y-88873658D01*
X118071632Y-89060065D01*
X118071631Y-89060067D01*
X117975461Y-89266302D01*
X117975458Y-89266311D01*
X117916566Y-89486102D01*
X117916564Y-89486113D01*
X117896732Y-89712798D01*
X117896732Y-89712801D01*
X117916564Y-89939486D01*
X117916566Y-89939497D01*
X117975458Y-90159288D01*
X117975461Y-90159297D01*
X118071631Y-90365532D01*
X118071632Y-90365534D01*
X118202154Y-90551941D01*
X118363058Y-90712845D01*
X118363061Y-90712847D01*
X118549466Y-90843368D01*
X118607475Y-90870418D01*
X118659914Y-90916591D01*
X118679066Y-90983784D01*
X118658850Y-91050665D01*
X118607475Y-91095182D01*
X118549467Y-91122231D01*
X118549465Y-91122232D01*
X118363058Y-91252754D01*
X118202154Y-91413658D01*
X118071632Y-91600065D01*
X118071631Y-91600067D01*
X117975461Y-91806302D01*
X117975458Y-91806311D01*
X117916566Y-92026102D01*
X117916564Y-92026113D01*
X117896732Y-92252798D01*
X117896732Y-92252801D01*
X117916564Y-92479486D01*
X117916566Y-92479497D01*
X117975458Y-92699288D01*
X117975461Y-92699297D01*
X118071631Y-92905532D01*
X118071632Y-92905534D01*
X118202154Y-93091941D01*
X118363058Y-93252845D01*
X118363061Y-93252847D01*
X118549466Y-93383368D01*
X118607475Y-93410418D01*
X118659914Y-93456591D01*
X118679066Y-93523784D01*
X118658850Y-93590665D01*
X118607475Y-93635182D01*
X118549467Y-93662231D01*
X118549465Y-93662232D01*
X118363058Y-93792754D01*
X118202154Y-93953658D01*
X118071632Y-94140065D01*
X118071631Y-94140067D01*
X117975461Y-94346302D01*
X117975458Y-94346311D01*
X117916566Y-94566102D01*
X117916564Y-94566113D01*
X117896732Y-94792798D01*
X117896732Y-94792800D01*
X117916564Y-95019486D01*
X117916566Y-95019497D01*
X117975458Y-95239288D01*
X117975461Y-95239297D01*
X118071631Y-95445532D01*
X118071632Y-95445534D01*
X118202154Y-95631941D01*
X118363058Y-95792845D01*
X118363061Y-95792847D01*
X118549466Y-95923368D01*
X118607475Y-95950418D01*
X118659914Y-95996591D01*
X118679066Y-96063784D01*
X118658850Y-96130665D01*
X118607475Y-96175181D01*
X118604869Y-96176397D01*
X118549467Y-96202231D01*
X118549465Y-96202232D01*
X118363058Y-96332754D01*
X118202154Y-96493658D01*
X118071632Y-96680065D01*
X118071631Y-96680067D01*
X117975461Y-96886302D01*
X117975458Y-96886311D01*
X117916566Y-97106102D01*
X117916564Y-97106113D01*
X117896732Y-97332798D01*
X117896732Y-97332800D01*
X117916564Y-97559486D01*
X117916566Y-97559497D01*
X117975458Y-97779288D01*
X117975461Y-97779297D01*
X118071631Y-97985532D01*
X118071632Y-97985534D01*
X118202154Y-98171941D01*
X118363058Y-98332845D01*
X118363061Y-98332847D01*
X118549466Y-98463368D01*
X118607475Y-98490418D01*
X118659914Y-98536591D01*
X118679066Y-98603784D01*
X118658850Y-98670665D01*
X118607475Y-98715182D01*
X118549467Y-98742231D01*
X118549465Y-98742232D01*
X118363058Y-98872754D01*
X118202154Y-99033658D01*
X118071632Y-99220065D01*
X118071631Y-99220067D01*
X117975461Y-99426302D01*
X117975458Y-99426311D01*
X117916566Y-99646102D01*
X117916564Y-99646113D01*
X117896732Y-99872798D01*
X117896732Y-99872800D01*
X117916564Y-100099486D01*
X117916566Y-100099497D01*
X117975458Y-100319288D01*
X117975461Y-100319297D01*
X118071631Y-100525532D01*
X118071632Y-100525534D01*
X118202154Y-100711941D01*
X118363058Y-100872845D01*
X118363061Y-100872847D01*
X118549466Y-101003368D01*
X118571737Y-101013753D01*
X118607475Y-101030418D01*
X118659914Y-101076591D01*
X118679066Y-101143784D01*
X118658850Y-101210665D01*
X118607475Y-101255182D01*
X118549467Y-101282231D01*
X118549465Y-101282232D01*
X118363058Y-101412754D01*
X118202154Y-101573658D01*
X118071632Y-101760065D01*
X118071631Y-101760067D01*
X117975461Y-101966302D01*
X117975458Y-101966311D01*
X117916566Y-102186102D01*
X117916564Y-102186113D01*
X117896732Y-102412798D01*
X117896732Y-102412800D01*
X117916564Y-102639486D01*
X117916566Y-102639497D01*
X117975458Y-102859288D01*
X117975461Y-102859297D01*
X118071631Y-103065532D01*
X118071632Y-103065534D01*
X118202154Y-103251941D01*
X118363058Y-103412845D01*
X118363061Y-103412847D01*
X118549466Y-103543368D01*
X118607475Y-103570418D01*
X118659914Y-103616591D01*
X118679066Y-103683784D01*
X118658850Y-103750665D01*
X118607475Y-103795182D01*
X118549467Y-103822231D01*
X118549465Y-103822232D01*
X118363058Y-103952754D01*
X118202154Y-104113658D01*
X118071632Y-104300065D01*
X118071631Y-104300067D01*
X117975461Y-104506302D01*
X117975458Y-104506311D01*
X117916566Y-104726102D01*
X117916564Y-104726113D01*
X117896732Y-104952798D01*
X117896732Y-104952801D01*
X117916564Y-105179486D01*
X117916566Y-105179497D01*
X117975458Y-105399288D01*
X117975461Y-105399297D01*
X118071631Y-105605532D01*
X118071632Y-105605534D01*
X118202154Y-105791941D01*
X118363058Y-105952845D01*
X118363061Y-105952847D01*
X118549466Y-106083368D01*
X118572226Y-106093981D01*
X118607475Y-106110418D01*
X118659914Y-106156591D01*
X118679066Y-106223784D01*
X118658850Y-106290665D01*
X118607475Y-106335182D01*
X118549467Y-106362231D01*
X118549465Y-106362232D01*
X118363058Y-106492754D01*
X118202154Y-106653658D01*
X118071632Y-106840065D01*
X118071631Y-106840067D01*
X117975461Y-107046302D01*
X117975458Y-107046311D01*
X117916566Y-107266102D01*
X117916564Y-107266113D01*
X117896732Y-107492798D01*
X117896732Y-107492801D01*
X117916564Y-107719486D01*
X117916566Y-107719497D01*
X117975458Y-107939288D01*
X117975461Y-107939297D01*
X118071631Y-108145532D01*
X118071632Y-108145534D01*
X118202154Y-108331941D01*
X118363058Y-108492845D01*
X118363061Y-108492847D01*
X118549466Y-108623368D01*
X118607475Y-108650418D01*
X118659914Y-108696591D01*
X118679066Y-108763784D01*
X118658850Y-108830665D01*
X118607475Y-108875182D01*
X118549467Y-108902231D01*
X118549465Y-108902232D01*
X118363058Y-109032754D01*
X118202154Y-109193658D01*
X118071632Y-109380065D01*
X118071631Y-109380067D01*
X117975461Y-109586302D01*
X117975458Y-109586311D01*
X117916566Y-109806102D01*
X117916564Y-109806113D01*
X117896732Y-110032798D01*
X117896732Y-110032801D01*
X117916564Y-110259486D01*
X117916566Y-110259497D01*
X117975458Y-110479288D01*
X117975461Y-110479297D01*
X118071631Y-110685532D01*
X118071632Y-110685534D01*
X118202154Y-110871941D01*
X118363058Y-111032845D01*
X118363061Y-111032847D01*
X118549466Y-111163368D01*
X118607475Y-111190418D01*
X118659914Y-111236591D01*
X118679066Y-111303784D01*
X118658850Y-111370665D01*
X118607475Y-111415182D01*
X118549467Y-111442231D01*
X118549465Y-111442232D01*
X118363058Y-111572754D01*
X118202154Y-111733658D01*
X118071632Y-111920065D01*
X118071631Y-111920067D01*
X117975461Y-112126302D01*
X117975458Y-112126311D01*
X117916566Y-112346102D01*
X117916564Y-112346113D01*
X117896732Y-112572798D01*
X117896732Y-112572801D01*
X117916564Y-112799486D01*
X117916566Y-112799497D01*
X117975458Y-113019288D01*
X117975461Y-113019297D01*
X118071631Y-113225532D01*
X118071632Y-113225534D01*
X118202154Y-113411941D01*
X118363058Y-113572845D01*
X118363061Y-113572847D01*
X118549466Y-113703368D01*
X118607475Y-113730418D01*
X118659914Y-113776591D01*
X118679066Y-113843784D01*
X118658850Y-113910665D01*
X118607475Y-113955182D01*
X118549467Y-113982231D01*
X118549465Y-113982232D01*
X118363058Y-114112754D01*
X118202154Y-114273658D01*
X118071632Y-114460065D01*
X118071631Y-114460067D01*
X117975461Y-114666302D01*
X117975458Y-114666311D01*
X117916566Y-114886102D01*
X117916564Y-114886113D01*
X117896732Y-115112798D01*
X117896732Y-115112801D01*
X109796700Y-115112801D01*
X109796700Y-72597350D01*
X128694532Y-72597350D01*
X128714364Y-72824035D01*
X128714366Y-72824046D01*
X128773258Y-73043837D01*
X128773261Y-73043846D01*
X128869431Y-73250081D01*
X128869432Y-73250083D01*
X128999954Y-73436490D01*
X129160858Y-73597394D01*
X129160861Y-73597396D01*
X129347266Y-73727917D01*
X129553504Y-73824088D01*
X129773308Y-73882984D01*
X129935230Y-73897150D01*
X129999998Y-73902817D01*
X130000000Y-73902817D01*
X130000002Y-73902817D01*
X130056673Y-73897858D01*
X130226692Y-73882984D01*
X130446496Y-73824088D01*
X130652734Y-73727917D01*
X130839139Y-73597396D01*
X131000047Y-73436488D01*
X131130568Y-73250083D01*
X131226739Y-73043845D01*
X131238487Y-73000001D01*
X137694532Y-73000001D01*
X137714364Y-73226686D01*
X137714366Y-73226697D01*
X137773258Y-73446488D01*
X137773261Y-73446497D01*
X137869431Y-73652732D01*
X137869432Y-73652734D01*
X137999954Y-73839141D01*
X138160858Y-74000045D01*
X138160861Y-74000047D01*
X138347266Y-74130568D01*
X138553504Y-74226739D01*
X138773308Y-74285635D01*
X138935230Y-74299801D01*
X138999998Y-74305468D01*
X139000000Y-74305468D01*
X139000002Y-74305468D01*
X139056673Y-74300509D01*
X139226692Y-74285635D01*
X139446496Y-74226739D01*
X139652734Y-74130568D01*
X139839139Y-74000047D01*
X140000047Y-73839139D01*
X140130568Y-73652734D01*
X140226739Y-73446496D01*
X140285635Y-73226692D01*
X140305468Y-73000000D01*
X140285635Y-72773308D01*
X140226739Y-72553504D01*
X140130568Y-72347266D01*
X140010125Y-72175254D01*
X140000045Y-72160858D01*
X139839141Y-71999954D01*
X139652734Y-71869432D01*
X139652732Y-71869431D01*
X139446497Y-71773261D01*
X139446488Y-71773258D01*
X139226697Y-71714366D01*
X139226693Y-71714365D01*
X139226692Y-71714365D01*
X139226691Y-71714364D01*
X139226686Y-71714364D01*
X139000002Y-71694532D01*
X138999998Y-71694532D01*
X138773313Y-71714364D01*
X138773302Y-71714366D01*
X138553511Y-71773258D01*
X138553502Y-71773261D01*
X138347267Y-71869431D01*
X138347265Y-71869432D01*
X138160858Y-71999954D01*
X137999954Y-72160858D01*
X137869432Y-72347265D01*
X137869431Y-72347267D01*
X137773261Y-72553502D01*
X137773258Y-72553511D01*
X137714366Y-72773302D01*
X137714364Y-72773313D01*
X137694532Y-72999998D01*
X137694532Y-73000001D01*
X131238487Y-73000001D01*
X131285635Y-72824041D01*
X131305468Y-72597349D01*
X131285635Y-72370657D01*
X131240916Y-72203764D01*
X131226741Y-72150860D01*
X131226738Y-72150851D01*
X131130568Y-71944615D01*
X131000047Y-71758210D01*
X131000045Y-71758207D01*
X130839141Y-71597303D01*
X130652734Y-71466781D01*
X130652732Y-71466780D01*
X130446497Y-71370610D01*
X130446488Y-71370607D01*
X130226697Y-71311715D01*
X130226693Y-71311714D01*
X130226692Y-71311714D01*
X130226691Y-71311713D01*
X130226686Y-71311713D01*
X130000002Y-71291881D01*
X129999998Y-71291881D01*
X129773313Y-71311713D01*
X129773302Y-71311715D01*
X129553511Y-71370607D01*
X129553502Y-71370610D01*
X129347267Y-71466780D01*
X129347265Y-71466781D01*
X129160858Y-71597303D01*
X128999954Y-71758207D01*
X128869432Y-71944614D01*
X128869431Y-71944616D01*
X128773261Y-72150851D01*
X128773258Y-72150860D01*
X128714366Y-72370651D01*
X128714364Y-72370662D01*
X128694532Y-72597347D01*
X128694532Y-72597350D01*
X109796700Y-72597350D01*
X109796700Y-70258490D01*
X120844570Y-70258490D01*
X120867438Y-70400545D01*
X120867439Y-70400548D01*
X120929399Y-70530401D01*
X121196609Y-70931216D01*
X121217417Y-70997915D01*
X121198862Y-71065276D01*
X121196609Y-71068782D01*
X120929399Y-71469598D01*
X120890182Y-71540005D01*
X120890179Y-71540012D01*
X120849645Y-71678058D01*
X120849645Y-71678060D01*
X120849645Y-71821940D01*
X120885666Y-71944616D01*
X120890182Y-71959994D01*
X120967967Y-72081030D01*
X120967971Y-72081034D01*
X121048546Y-72150853D01*
X121076706Y-72175254D01*
X121117174Y-72193735D01*
X121207580Y-72235023D01*
X121207583Y-72235023D01*
X121207584Y-72235024D01*
X121350000Y-72255500D01*
X121350003Y-72255500D01*
X122500000Y-72255500D01*
X122571940Y-72250355D01*
X122709992Y-72209819D01*
X122831032Y-72132031D01*
X122925254Y-72023294D01*
X122985024Y-71892416D01*
X122985217Y-71891068D01*
X122985783Y-71889829D01*
X122987522Y-71883908D01*
X122988373Y-71884157D01*
X123014239Y-71827513D01*
X123073016Y-71789735D01*
X123121838Y-71785491D01*
X123215624Y-71796058D01*
X123299997Y-71805565D01*
X123300000Y-71805565D01*
X123300004Y-71805565D01*
X123479249Y-71785369D01*
X123479252Y-71785368D01*
X123479255Y-71785368D01*
X123649522Y-71725789D01*
X123802262Y-71629816D01*
X123929816Y-71502262D01*
X124025789Y-71349522D01*
X124085368Y-71179255D01*
X124085369Y-71179249D01*
X124105565Y-71000003D01*
X124105565Y-70999996D01*
X124085369Y-70820750D01*
X124085368Y-70820745D01*
X124025788Y-70650476D01*
X123986582Y-70588080D01*
X123929816Y-70497738D01*
X123802262Y-70370184D01*
X123649523Y-70274211D01*
X123479254Y-70214631D01*
X123479249Y-70214630D01*
X123300004Y-70194435D01*
X123299996Y-70194435D01*
X123118117Y-70214927D01*
X123049295Y-70202872D01*
X122997916Y-70155523D01*
X122985257Y-70126642D01*
X122982060Y-70115754D01*
X122959819Y-70040008D01*
X122882031Y-69918968D01*
X122773294Y-69824746D01*
X122773290Y-69824744D01*
X122642419Y-69764976D01*
X122642414Y-69764975D01*
X122500000Y-69744500D01*
X121350000Y-69744500D01*
X121349978Y-69744500D01*
X121269669Y-69750923D01*
X121269656Y-69750926D01*
X121132310Y-69793773D01*
X121132308Y-69793775D01*
X121012595Y-69873584D01*
X120920211Y-69983894D01*
X120862651Y-70115754D01*
X120844570Y-70258490D01*
X109796700Y-70258490D01*
X109796700Y-68445193D01*
X128700000Y-68445193D01*
X128706401Y-68504721D01*
X128706403Y-68504728D01*
X128756645Y-68639435D01*
X128756649Y-68639442D01*
X128842809Y-68754536D01*
X128842812Y-68754539D01*
X128957906Y-68840699D01*
X128957913Y-68840703D01*
X129092620Y-68890945D01*
X129092627Y-68890947D01*
X129152155Y-68897348D01*
X129152172Y-68897349D01*
X129750000Y-68897349D01*
X129750000Y-67913035D01*
X129754394Y-67917429D01*
X129845606Y-67970090D01*
X129947339Y-67997349D01*
X130052661Y-67997349D01*
X130154394Y-67970090D01*
X130245606Y-67917429D01*
X130250000Y-67913035D01*
X130250000Y-68897349D01*
X130847828Y-68897349D01*
X130847844Y-68897348D01*
X130907372Y-68890947D01*
X130907379Y-68890945D01*
X131022870Y-68847870D01*
X137699500Y-68847870D01*
X137699501Y-68847876D01*
X137705908Y-68907483D01*
X137756202Y-69042328D01*
X137756206Y-69042335D01*
X137842452Y-69157544D01*
X137842455Y-69157547D01*
X137957664Y-69243793D01*
X137957671Y-69243797D01*
X138092517Y-69294091D01*
X138092516Y-69294091D01*
X138099444Y-69294835D01*
X138152127Y-69300500D01*
X139847872Y-69300499D01*
X139907483Y-69294091D01*
X140042331Y-69243796D01*
X140157546Y-69157546D01*
X140243796Y-69042331D01*
X140294091Y-68907483D01*
X140300500Y-68847873D01*
X140300499Y-67919601D01*
X145419081Y-67919601D01*
X145438913Y-68146286D01*
X145438915Y-68146297D01*
X145497807Y-68366088D01*
X145497810Y-68366097D01*
X145593980Y-68572332D01*
X145593981Y-68572334D01*
X145724503Y-68758741D01*
X145885407Y-68919645D01*
X145885410Y-68919647D01*
X146071815Y-69050168D01*
X146278053Y-69146339D01*
X146497857Y-69205235D01*
X146659779Y-69219401D01*
X146724547Y-69225068D01*
X146724549Y-69225068D01*
X146724551Y-69225068D01*
X146787060Y-69219599D01*
X146951241Y-69205235D01*
X147171045Y-69146339D01*
X147377283Y-69050168D01*
X147563688Y-68919647D01*
X147715891Y-68767444D01*
X150424549Y-68767444D01*
X150430950Y-68826972D01*
X150430952Y-68826979D01*
X150481194Y-68961686D01*
X150481198Y-68961693D01*
X150567358Y-69076787D01*
X150567361Y-69076790D01*
X150682455Y-69162950D01*
X150682462Y-69162954D01*
X150817169Y-69213196D01*
X150817176Y-69213198D01*
X150876704Y-69219599D01*
X150876721Y-69219600D01*
X151474549Y-69219600D01*
X151474549Y-68235286D01*
X151478943Y-68239680D01*
X151570155Y-68292341D01*
X151671888Y-68319600D01*
X151777210Y-68319600D01*
X151878943Y-68292341D01*
X151970155Y-68239680D01*
X151974549Y-68235286D01*
X151974549Y-69219600D01*
X152572377Y-69219600D01*
X152572393Y-69219599D01*
X152631921Y-69213198D01*
X152631928Y-69213196D01*
X152766635Y-69162954D01*
X152766642Y-69162950D01*
X152881736Y-69076790D01*
X152881739Y-69076787D01*
X152967899Y-68961693D01*
X152967903Y-68961686D01*
X153018145Y-68826979D01*
X153018147Y-68826972D01*
X153024548Y-68767444D01*
X153024549Y-68767427D01*
X153024549Y-68169600D01*
X152040235Y-68169600D01*
X152044629Y-68165206D01*
X152097290Y-68073994D01*
X152124549Y-67972261D01*
X152124549Y-67866939D01*
X152097290Y-67765206D01*
X152044629Y-67673994D01*
X152040235Y-67669600D01*
X153024549Y-67669600D01*
X153024549Y-67071772D01*
X153024548Y-67071755D01*
X153018147Y-67012227D01*
X153018145Y-67012220D01*
X152967903Y-66877513D01*
X152967899Y-66877506D01*
X152881739Y-66762412D01*
X152881736Y-66762409D01*
X152766642Y-66676249D01*
X152766635Y-66676245D01*
X152631928Y-66626003D01*
X152631921Y-66626001D01*
X152572393Y-66619600D01*
X151974549Y-66619600D01*
X151974549Y-67603914D01*
X151970155Y-67599520D01*
X151878943Y-67546859D01*
X151777210Y-67519600D01*
X151671888Y-67519600D01*
X151570155Y-67546859D01*
X151478943Y-67599520D01*
X151474549Y-67603914D01*
X151474549Y-66619600D01*
X150876704Y-66619600D01*
X150817176Y-66626001D01*
X150817169Y-66626003D01*
X150682462Y-66676245D01*
X150682455Y-66676249D01*
X150567361Y-66762409D01*
X150567358Y-66762412D01*
X150481198Y-66877506D01*
X150481194Y-66877513D01*
X150430952Y-67012220D01*
X150430950Y-67012227D01*
X150424549Y-67071755D01*
X150424549Y-67669600D01*
X151408863Y-67669600D01*
X151404469Y-67673994D01*
X151351808Y-67765206D01*
X151324549Y-67866939D01*
X151324549Y-67972261D01*
X151351808Y-68073994D01*
X151404469Y-68165206D01*
X151408863Y-68169600D01*
X150424549Y-68169600D01*
X150424549Y-68767444D01*
X147715891Y-68767444D01*
X147724596Y-68758739D01*
X147855117Y-68572334D01*
X147951288Y-68366096D01*
X148010184Y-68146292D01*
X148030017Y-67919600D01*
X148010184Y-67692908D01*
X147951288Y-67473104D01*
X147855117Y-67266866D01*
X147724596Y-67080461D01*
X147724594Y-67080458D01*
X147563690Y-66919554D01*
X147377283Y-66789032D01*
X147377281Y-66789031D01*
X147171046Y-66692861D01*
X147171037Y-66692858D01*
X146951246Y-66633966D01*
X146951242Y-66633965D01*
X146951241Y-66633965D01*
X146951240Y-66633964D01*
X146951235Y-66633964D01*
X146724551Y-66614132D01*
X146724547Y-66614132D01*
X146497862Y-66633964D01*
X146497851Y-66633966D01*
X146278060Y-66692858D01*
X146278051Y-66692861D01*
X146071816Y-66789031D01*
X146071814Y-66789032D01*
X145885407Y-66919554D01*
X145724503Y-67080458D01*
X145593981Y-67266865D01*
X145593980Y-67266867D01*
X145497810Y-67473102D01*
X145497807Y-67473111D01*
X145438915Y-67692902D01*
X145438913Y-67692913D01*
X145419081Y-67919598D01*
X145419081Y-67919601D01*
X140300499Y-67919601D01*
X140300499Y-67152128D01*
X140294091Y-67092517D01*
X140289594Y-67080461D01*
X140243797Y-66957671D01*
X140243793Y-66957664D01*
X140157547Y-66842455D01*
X140157544Y-66842452D01*
X140042335Y-66756206D01*
X140042328Y-66756202D01*
X139907482Y-66705908D01*
X139907483Y-66705908D01*
X139847883Y-66699501D01*
X139847881Y-66699500D01*
X139847873Y-66699500D01*
X139847864Y-66699500D01*
X138152129Y-66699500D01*
X138152123Y-66699501D01*
X138092516Y-66705908D01*
X137957671Y-66756202D01*
X137957664Y-66756206D01*
X137842455Y-66842452D01*
X137842452Y-66842455D01*
X137756206Y-66957664D01*
X137756202Y-66957671D01*
X137705908Y-67092517D01*
X137699501Y-67152116D01*
X137699501Y-67152123D01*
X137699500Y-67152135D01*
X137699500Y-68847870D01*
X131022870Y-68847870D01*
X131042086Y-68840703D01*
X131042093Y-68840699D01*
X131157187Y-68754539D01*
X131157190Y-68754536D01*
X131243350Y-68639442D01*
X131243354Y-68639435D01*
X131293596Y-68504728D01*
X131293598Y-68504721D01*
X131299999Y-68445193D01*
X131300000Y-68445176D01*
X131300000Y-67847349D01*
X130315686Y-67847349D01*
X130320080Y-67842955D01*
X130372741Y-67751743D01*
X130400000Y-67650010D01*
X130400000Y-67544688D01*
X130372741Y-67442955D01*
X130320080Y-67351743D01*
X130315686Y-67347349D01*
X131300000Y-67347349D01*
X131300000Y-66749521D01*
X131299999Y-66749504D01*
X131293598Y-66689976D01*
X131293596Y-66689969D01*
X131243354Y-66555262D01*
X131243350Y-66555255D01*
X131157190Y-66440161D01*
X131157187Y-66440158D01*
X131042093Y-66353998D01*
X131042086Y-66353994D01*
X130907379Y-66303752D01*
X130907372Y-66303750D01*
X130847844Y-66297349D01*
X130250000Y-66297349D01*
X130250000Y-67281663D01*
X130245606Y-67277269D01*
X130154394Y-67224608D01*
X130052661Y-67197349D01*
X129947339Y-67197349D01*
X129845606Y-67224608D01*
X129754394Y-67277269D01*
X129750000Y-67281663D01*
X129750000Y-66297349D01*
X129152155Y-66297349D01*
X129092627Y-66303750D01*
X129092620Y-66303752D01*
X128957913Y-66353994D01*
X128957906Y-66353998D01*
X128842812Y-66440158D01*
X128842809Y-66440161D01*
X128756649Y-66555255D01*
X128756645Y-66555262D01*
X128706403Y-66689969D01*
X128706401Y-66689976D01*
X128700000Y-66749504D01*
X128700000Y-67347349D01*
X129684314Y-67347349D01*
X129679920Y-67351743D01*
X129627259Y-67442955D01*
X129600000Y-67544688D01*
X129600000Y-67650010D01*
X129627259Y-67751743D01*
X129679920Y-67842955D01*
X129684314Y-67847349D01*
X128700000Y-67847349D01*
X128700000Y-68445193D01*
X109796700Y-68445193D01*
X109796700Y-64992844D01*
X129007500Y-64992844D01*
X129013901Y-65052372D01*
X129013903Y-65052379D01*
X129064145Y-65187086D01*
X129064149Y-65187093D01*
X129150309Y-65302187D01*
X129150312Y-65302190D01*
X129265406Y-65388350D01*
X129265413Y-65388354D01*
X129400120Y-65438596D01*
X129400127Y-65438598D01*
X129459655Y-65444999D01*
X129459672Y-65445000D01*
X130210000Y-65445000D01*
X130210000Y-64435747D01*
X130247708Y-64457518D01*
X130387591Y-64495000D01*
X130532409Y-64495000D01*
X130672292Y-64457518D01*
X130710000Y-64435747D01*
X130710000Y-65445000D01*
X131460328Y-65445000D01*
X131460344Y-65444999D01*
X131519872Y-65438598D01*
X131519879Y-65438596D01*
X131654586Y-65388354D01*
X131654593Y-65388350D01*
X131769687Y-65302190D01*
X131769690Y-65302187D01*
X131855850Y-65187093D01*
X131855854Y-65187086D01*
X131866272Y-65159155D01*
X131908143Y-65103221D01*
X131973607Y-65078804D01*
X132041880Y-65093655D01*
X132055331Y-65102164D01*
X132238462Y-65235217D01*
X132369904Y-65302190D01*
X132442244Y-65339049D01*
X132659751Y-65409721D01*
X132659752Y-65409721D01*
X132659755Y-65409722D01*
X132885646Y-65445500D01*
X132885647Y-65445500D01*
X133114353Y-65445500D01*
X133114354Y-65445500D01*
X133340245Y-65409722D01*
X133340248Y-65409721D01*
X133340249Y-65409721D01*
X133557755Y-65339049D01*
X133557755Y-65339048D01*
X133557758Y-65339048D01*
X133761538Y-65235217D01*
X133946566Y-65100786D01*
X134108286Y-64939066D01*
X134169683Y-64854559D01*
X134225012Y-64811896D01*
X134294625Y-64805917D01*
X134356420Y-64838523D01*
X134370314Y-64854556D01*
X134431714Y-64939066D01*
X134593434Y-65100786D01*
X134778462Y-65235217D01*
X134909904Y-65302190D01*
X134982244Y-65339049D01*
X135199751Y-65409721D01*
X135199752Y-65409721D01*
X135199755Y-65409722D01*
X135425646Y-65445500D01*
X135425647Y-65445500D01*
X135654353Y-65445500D01*
X135654354Y-65445500D01*
X135880245Y-65409722D01*
X135880248Y-65409721D01*
X135880249Y-65409721D01*
X136097755Y-65339049D01*
X136097755Y-65339048D01*
X136097758Y-65339048D01*
X136301538Y-65235217D01*
X136486566Y-65100786D01*
X136648286Y-64939066D01*
X136782717Y-64754038D01*
X136886548Y-64550258D01*
X136932972Y-64407379D01*
X136957221Y-64332749D01*
X136957221Y-64332748D01*
X136957222Y-64332745D01*
X136993000Y-64106854D01*
X136993000Y-63783146D01*
X136957222Y-63557255D01*
X136957221Y-63557251D01*
X136957221Y-63557250D01*
X136886549Y-63339744D01*
X136870319Y-63307890D01*
X136782717Y-63135962D01*
X136648286Y-62950934D01*
X136486566Y-62789214D01*
X136301538Y-62654783D01*
X136170100Y-62587812D01*
X136097755Y-62550950D01*
X135880248Y-62480278D01*
X135697925Y-62451401D01*
X135654354Y-62444500D01*
X135425646Y-62444500D01*
X135382063Y-62451403D01*
X135199753Y-62480278D01*
X135199750Y-62480278D01*
X134982244Y-62550950D01*
X134778461Y-62654783D01*
X134712217Y-62702913D01*
X134593434Y-62789214D01*
X134593432Y-62789216D01*
X134593431Y-62789216D01*
X134431715Y-62950932D01*
X134370318Y-63035438D01*
X134314987Y-63078103D01*
X134245374Y-63084082D01*
X134183579Y-63051476D01*
X134169682Y-63035438D01*
X134158773Y-63020423D01*
X134108286Y-62950934D01*
X133946566Y-62789214D01*
X133761538Y-62654783D01*
X133630100Y-62587812D01*
X133557755Y-62550950D01*
X133340248Y-62480278D01*
X133157925Y-62451401D01*
X133114354Y-62444500D01*
X132885646Y-62444500D01*
X132842063Y-62451403D01*
X132659753Y-62480278D01*
X132659750Y-62480278D01*
X132442244Y-62550950D01*
X132238458Y-62654785D01*
X132055339Y-62787829D01*
X131989533Y-62811309D01*
X131921479Y-62795484D01*
X131872784Y-62745378D01*
X131866272Y-62730845D01*
X131855853Y-62702911D01*
X131855850Y-62702906D01*
X131769690Y-62587812D01*
X131769687Y-62587809D01*
X131654593Y-62501649D01*
X131654586Y-62501645D01*
X131519879Y-62451403D01*
X131519872Y-62451401D01*
X131460344Y-62445000D01*
X130710000Y-62445000D01*
X130710000Y-63454252D01*
X130672292Y-63432482D01*
X130532409Y-63395000D01*
X130387591Y-63395000D01*
X130247708Y-63432482D01*
X130210000Y-63454252D01*
X130210000Y-62445000D01*
X129459655Y-62445000D01*
X129400127Y-62451401D01*
X129400120Y-62451403D01*
X129265413Y-62501645D01*
X129265406Y-62501649D01*
X129150312Y-62587809D01*
X129150309Y-62587812D01*
X129064149Y-62702906D01*
X129064145Y-62702913D01*
X129013903Y-62837620D01*
X129013901Y-62837627D01*
X129007500Y-62897155D01*
X129007500Y-63695000D01*
X129969252Y-63695000D01*
X129947482Y-63732708D01*
X129910000Y-63872591D01*
X129910000Y-64017409D01*
X129947482Y-64157292D01*
X129969252Y-64195000D01*
X129007500Y-64195000D01*
X129007500Y-64992844D01*
X109796700Y-64992844D01*
X109796700Y-64347844D01*
X117700000Y-64347844D01*
X117706401Y-64407372D01*
X117706403Y-64407379D01*
X117756645Y-64542086D01*
X117756649Y-64542093D01*
X117842809Y-64657187D01*
X117842812Y-64657190D01*
X117957906Y-64743350D01*
X117957913Y-64743354D01*
X118092620Y-64793596D01*
X118092627Y-64793598D01*
X118152155Y-64799999D01*
X118152172Y-64800000D01*
X119250000Y-64800000D01*
X119250000Y-63600001D01*
X119310402Y-63625021D01*
X119435981Y-63650000D01*
X119564019Y-63650000D01*
X119689598Y-63625021D01*
X119750000Y-63600001D01*
X119750000Y-64800000D01*
X120847828Y-64800000D01*
X120847844Y-64799999D01*
X120907372Y-64793598D01*
X120907379Y-64793596D01*
X121042086Y-64743354D01*
X121042093Y-64743350D01*
X121157187Y-64657190D01*
X121157190Y-64657187D01*
X121243350Y-64542093D01*
X121243354Y-64542086D01*
X121293596Y-64407379D01*
X121293598Y-64407372D01*
X121299999Y-64347844D01*
X121300000Y-64347827D01*
X121300000Y-64110417D01*
X121319685Y-64043378D01*
X121372489Y-63997623D01*
X121441647Y-63987679D01*
X121505203Y-64016704D01*
X121520942Y-64033099D01*
X121582602Y-64110417D01*
X121676442Y-64228089D01*
X121845672Y-64385110D01*
X121874259Y-64411635D01*
X122097226Y-64563651D01*
X122340359Y-64680738D01*
X122598228Y-64760280D01*
X122598229Y-64760280D01*
X122598232Y-64760281D01*
X122865063Y-64800499D01*
X122865068Y-64800499D01*
X122865071Y-64800500D01*
X122865072Y-64800500D01*
X123134928Y-64800500D01*
X123134929Y-64800500D01*
X123134936Y-64800499D01*
X123401767Y-64760281D01*
X123401768Y-64760280D01*
X123401772Y-64760280D01*
X123659641Y-64680738D01*
X123902775Y-64563651D01*
X124125741Y-64411635D01*
X124323561Y-64228085D01*
X124491815Y-64017102D01*
X124626743Y-63783398D01*
X124725334Y-63532195D01*
X124785383Y-63269103D01*
X124800752Y-63064019D01*
X124805549Y-63000004D01*
X124805549Y-62999995D01*
X124788744Y-62775747D01*
X124785383Y-62730897D01*
X124725334Y-62467805D01*
X124626743Y-62216602D01*
X124491815Y-61982898D01*
X124323561Y-61771915D01*
X124323560Y-61771914D01*
X124323557Y-61771910D01*
X124125741Y-61588365D01*
X123902775Y-61436349D01*
X123902769Y-61436346D01*
X123902768Y-61436345D01*
X123902767Y-61436344D01*
X123659643Y-61319263D01*
X123659645Y-61319263D01*
X123401773Y-61239720D01*
X123401767Y-61239718D01*
X123134936Y-61199500D01*
X123134929Y-61199500D01*
X122865071Y-61199500D01*
X122865063Y-61199500D01*
X122598232Y-61239718D01*
X122598226Y-61239720D01*
X122340358Y-61319262D01*
X122097230Y-61436346D01*
X121874258Y-61588365D01*
X121676442Y-61771910D01*
X121520947Y-61966895D01*
X121463758Y-62007035D01*
X121393947Y-62009885D01*
X121333677Y-61974539D01*
X121302084Y-61912220D01*
X121300000Y-61889582D01*
X121300000Y-61652172D01*
X121299999Y-61652155D01*
X121293598Y-61592627D01*
X121293596Y-61592620D01*
X121243354Y-61457913D01*
X121243350Y-61457906D01*
X121157190Y-61342812D01*
X121157187Y-61342809D01*
X121042093Y-61256649D01*
X121042086Y-61256645D01*
X120907379Y-61206403D01*
X120907372Y-61206401D01*
X120847844Y-61200000D01*
X119750000Y-61200000D01*
X119750000Y-62399998D01*
X119689598Y-62374979D01*
X119564019Y-62350000D01*
X119435981Y-62350000D01*
X119310402Y-62374979D01*
X119250000Y-62399998D01*
X119250000Y-61200000D01*
X118152155Y-61200000D01*
X118092627Y-61206401D01*
X118092620Y-61206403D01*
X117957913Y-61256645D01*
X117957906Y-61256649D01*
X117842812Y-61342809D01*
X117842809Y-61342812D01*
X117756649Y-61457906D01*
X117756645Y-61457913D01*
X117706403Y-61592620D01*
X117706401Y-61592627D01*
X117700000Y-61652155D01*
X117700000Y-62750000D01*
X118899999Y-62750000D01*
X118874979Y-62810402D01*
X118850000Y-62935981D01*
X118850000Y-63064019D01*
X118874979Y-63189598D01*
X118899999Y-63250000D01*
X117700000Y-63250000D01*
X117700000Y-64347844D01*
X109796700Y-64347844D01*
X109796700Y-58587300D01*
X109816385Y-58520261D01*
X109869189Y-58474506D01*
X109920700Y-58463300D01*
X189240500Y-58463300D01*
X189307539Y-58482985D01*
G37*
%TD.AperFunction*%
%TD*%
M02*
