%TF.GenerationSoftware,KiCad,Pcbnew,8.0.1*%
%TF.CreationDate,2024-04-25T09:29:02+05:30*%
%TF.ProjectId,Brushed Speed Controller,42727573-6865-4642-9053-706565642043,rev?*%
%TF.SameCoordinates,Original*%
%TF.FileFunction,Copper,L2,Bot*%
%TF.FilePolarity,Positive*%
%FSLAX46Y46*%
G04 Gerber Fmt 4.6, Leading zero omitted, Abs format (unit mm)*
G04 Created by KiCad (PCBNEW 8.0.1) date 2024-04-25 09:29:02*
%MOMM*%
%LPD*%
G01*
G04 APERTURE LIST*
%TA.AperFunction,ComponentPad*%
%ADD10C,1.600000*%
%TD*%
%TA.AperFunction,ComponentPad*%
%ADD11O,1.600000X1.600000*%
%TD*%
%TA.AperFunction,ComponentPad*%
%ADD12R,1.600000X1.600000*%
%TD*%
%TA.AperFunction,ComponentPad*%
%ADD13R,1.338000X1.338000*%
%TD*%
%TA.AperFunction,ComponentPad*%
%ADD14C,1.338000*%
%TD*%
%TA.AperFunction,ComponentPad*%
%ADD15R,1.905000X2.000000*%
%TD*%
%TA.AperFunction,ComponentPad*%
%ADD16O,1.905000X2.000000*%
%TD*%
%TA.AperFunction,ComponentPad*%
%ADD17R,2.600000X2.600000*%
%TD*%
%TA.AperFunction,ComponentPad*%
%ADD18C,2.600000*%
%TD*%
%TA.AperFunction,ViaPad*%
%ADD19C,1.000000*%
%TD*%
%TA.AperFunction,ViaPad*%
%ADD20C,0.600000*%
%TD*%
%TA.AperFunction,Conductor*%
%ADD21C,0.200000*%
%TD*%
%TA.AperFunction,Conductor*%
%ADD22C,2.000000*%
%TD*%
%TA.AperFunction,Conductor*%
%ADD23C,1.000000*%
%TD*%
G04 APERTURE END LIST*
D10*
%TO.P,R7,1*%
%TO.N,GND*%
X143611600Y-120700800D03*
D11*
%TO.P,R7,2*%
%TO.N,Net-(A1-A0)*%
X143611600Y-110540800D03*
%TD*%
D10*
%TO.P,R4,1*%
%TO.N,/VG4*%
X167132000Y-102565200D03*
D11*
%TO.P,R4,2*%
%TO.N,Net-(U2-~{OUT_B})*%
X156972000Y-102565200D03*
%TD*%
D12*
%TO.P,C1,1*%
%TO.N,VCC*%
X163322000Y-90972451D03*
D10*
%TO.P,C1,2*%
%TO.N,GND*%
X163322000Y-85972451D03*
%TD*%
%TO.P,R6,1*%
%TO.N,Net-(A1-A1)*%
X144119600Y-106730800D03*
D11*
%TO.P,R6,2*%
%TO.N,/OUT2*%
X154279600Y-106730800D03*
%TD*%
D10*
%TO.P,R8,1*%
%TO.N,Net-(A1-A0)*%
X146583400Y-110921800D03*
D11*
%TO.P,R8,2*%
%TO.N,/OUT1*%
X156743400Y-110921800D03*
%TD*%
D13*
%TO.P,U2,1*%
%TO.N,N/C*%
X145671749Y-95580200D03*
D14*
%TO.P,U2,2,IN_A*%
%TO.N,/IN3*%
X145671749Y-98120200D03*
%TO.P,U2,3,GND*%
%TO.N,GND*%
X145671749Y-100660200D03*
%TO.P,U2,4,IN_B*%
%TO.N,/IN4*%
X145671749Y-103200200D03*
%TO.P,U2,5,~{OUT_B}*%
%TO.N,Net-(U2-~{OUT_B})*%
X153611749Y-103200200D03*
%TO.P,U2,6,VDD*%
%TO.N,VCC*%
X153611749Y-100660200D03*
%TO.P,U2,7,~{OUT_A}*%
%TO.N,Net-(U2-~{OUT_A})*%
X153611749Y-98120200D03*
%TO.P,U2,8*%
%TO.N,N/C*%
X153611749Y-95580200D03*
%TD*%
D10*
%TO.P,R5,1*%
%TO.N,GND*%
X140335000Y-116332000D03*
D11*
%TO.P,R5,2*%
%TO.N,Net-(A1-A1)*%
X140335000Y-106172000D03*
%TD*%
D12*
%TO.P,C5,1*%
%TO.N,VCC*%
X130000000Y-67597349D03*
D10*
%TO.P,C5,2*%
%TO.N,GND*%
X130000000Y-72597349D03*
%TD*%
D15*
%TO.P,U4,1,VI*%
%TO.N,VCC*%
X130460000Y-63945000D03*
D16*
%TO.P,U4,2,GND*%
%TO.N,GND*%
X133000000Y-63945000D03*
%TO.P,U4,3,VO*%
%TO.N,+5V*%
X135540000Y-63945000D03*
%TD*%
D17*
%TO.P,J1,1,Pin_1*%
%TO.N,VCC*%
X119500000Y-63000000D03*
D18*
%TO.P,J1,2,Pin_2*%
%TO.N,GND*%
X123000000Y-63000000D03*
%TD*%
D12*
%TO.P,C2,1*%
%TO.N,VCC*%
X152120600Y-89027000D03*
D10*
%TO.P,C2,2*%
%TO.N,GND*%
X147120600Y-89027000D03*
%TD*%
%TO.P,R2,1*%
%TO.N,Net-(U1-~{OUT_B})*%
X157312549Y-77698600D03*
D11*
%TO.P,R2,2*%
%TO.N,/VG2*%
X167472549Y-77698600D03*
%TD*%
D13*
%TO.P,U1,1*%
%TO.N,N/C*%
X145366949Y-73863200D03*
D14*
%TO.P,U1,2,IN_A*%
%TO.N,/IN1*%
X145366949Y-76403200D03*
%TO.P,U1,3,GND*%
%TO.N,GND*%
X145366949Y-78943200D03*
%TO.P,U1,4,IN_B*%
%TO.N,/IN2*%
X145366949Y-81483200D03*
%TO.P,U1,5,~{OUT_B}*%
%TO.N,Net-(U1-~{OUT_B})*%
X153306949Y-81483200D03*
%TO.P,U1,6,VDD*%
%TO.N,VCC*%
X153306949Y-78943200D03*
%TO.P,U1,7,~{OUT_A}*%
%TO.N,Net-(U1-~{OUT_A})*%
X153306949Y-76403200D03*
%TO.P,U1,8*%
%TO.N,N/C*%
X153306949Y-73863200D03*
%TD*%
D12*
%TO.P,A1,1,D1/TX*%
%TO.N,unconnected-(A1-D1{slash}TX-Pad1)*%
X119202200Y-79552800D03*
D11*
%TO.P,A1,2,D0/RX*%
%TO.N,unconnected-(A1-D0{slash}RX-Pad2)*%
X119202200Y-82092800D03*
%TO.P,A1,3,~{RESET}*%
%TO.N,unconnected-(A1-~{RESET}-Pad3)*%
X119202200Y-84632800D03*
%TO.P,A1,4,GND*%
%TO.N,GND*%
X119202200Y-87172800D03*
%TO.P,A1,5,D2*%
%TO.N,unconnected-(A1-D2-Pad5)*%
X119202200Y-89712800D03*
%TO.P,A1,6,D3*%
%TO.N,unconnected-(A1-D3-Pad6)*%
X119202200Y-92252800D03*
%TO.P,A1,7,D4*%
%TO.N,unconnected-(A1-D4-Pad7)*%
X119202200Y-94792800D03*
%TO.P,A1,8,D5*%
%TO.N,/IN1*%
X119202200Y-97332800D03*
%TO.P,A1,9,D6*%
%TO.N,/IN2*%
X119202200Y-99872800D03*
%TO.P,A1,10,D7*%
%TO.N,unconnected-(A1-D7-Pad10)*%
X119202200Y-102412800D03*
%TO.P,A1,11,D8*%
%TO.N,unconnected-(A1-D8-Pad11)*%
X119202200Y-104952800D03*
%TO.P,A1,12,D9*%
%TO.N,/IN3*%
X119202200Y-107492800D03*
%TO.P,A1,13,D10*%
%TO.N,/IN4*%
X119202200Y-110032800D03*
%TO.P,A1,14,D11*%
%TO.N,unconnected-(A1-D11-Pad14)*%
X119202200Y-112572800D03*
%TO.P,A1,15,D12*%
%TO.N,unconnected-(A1-D12-Pad15)*%
X119202200Y-115112800D03*
%TO.P,A1,16,D13*%
%TO.N,unconnected-(A1-D13-Pad16)*%
X134442200Y-115112800D03*
%TO.P,A1,17,3V3*%
%TO.N,unconnected-(A1-3V3-Pad17)*%
X134442200Y-112572800D03*
%TO.P,A1,18,AREF*%
%TO.N,unconnected-(A1-AREF-Pad18)*%
X134442200Y-110032800D03*
%TO.P,A1,19,A0*%
%TO.N,Net-(A1-A0)*%
X134442200Y-107492800D03*
%TO.P,A1,20,A1*%
%TO.N,Net-(A1-A1)*%
X134442200Y-104952800D03*
%TO.P,A1,21,A2*%
%TO.N,unconnected-(A1-A2-Pad21)*%
X134442200Y-102412800D03*
%TO.P,A1,22,A3*%
%TO.N,unconnected-(A1-A3-Pad22)*%
X134442200Y-99872800D03*
%TO.P,A1,23,A4*%
%TO.N,unconnected-(A1-A4-Pad23)*%
X134442200Y-97332800D03*
%TO.P,A1,24,A5*%
%TO.N,unconnected-(A1-A5-Pad24)*%
X134442200Y-94792800D03*
%TO.P,A1,25,A6*%
%TO.N,unconnected-(A1-A6-Pad25)*%
X134442200Y-92252800D03*
%TO.P,A1,26,A7*%
%TO.N,unconnected-(A1-A7-Pad26)*%
X134442200Y-89712800D03*
%TO.P,A1,27,+5V*%
%TO.N,+5V*%
X134442200Y-87172800D03*
%TO.P,A1,28,~{RESET}*%
%TO.N,unconnected-(A1-~{RESET}-Pad28)*%
X134442200Y-84632800D03*
%TO.P,A1,29,GND*%
%TO.N,GND*%
X134442200Y-82092800D03*
%TO.P,A1,30,VIN*%
%TO.N,Net-(A1-VIN)*%
X134442200Y-79552800D03*
%TD*%
D12*
%TO.P,C4,1*%
%TO.N,+5V*%
X139000000Y-68000000D03*
D10*
%TO.P,C4,2*%
%TO.N,GND*%
X139000000Y-73000000D03*
%TD*%
D17*
%TO.P,J2,1,Pin_1*%
%TO.N,/OUT1*%
X184556400Y-87279600D03*
D18*
%TO.P,J2,2,Pin_2*%
%TO.N,/OUT2*%
X184556400Y-90779600D03*
%TD*%
D10*
%TO.P,R1,1*%
%TO.N,Net-(U1-~{OUT_A})*%
X157287149Y-74142600D03*
D11*
%TO.P,R1,2*%
%TO.N,/VG1*%
X167447149Y-74142600D03*
%TD*%
D10*
%TO.P,R3,1*%
%TO.N,/VG3*%
X167218549Y-98018600D03*
D11*
%TO.P,R3,2*%
%TO.N,Net-(U2-~{OUT_A})*%
X157058549Y-98018600D03*
%TD*%
D12*
%TO.P,C3,1*%
%TO.N,VCC*%
X151724549Y-67919600D03*
D10*
%TO.P,C3,2*%
%TO.N,GND*%
X146724549Y-67919600D03*
%TD*%
D19*
%TO.N,GND*%
X171196000Y-84861400D03*
X171094400Y-94259400D03*
D20*
%TO.N,Net-(A1-VIN)*%
X123300000Y-71000000D03*
%TD*%
D21*
%TO.N,/OUT1*%
X171221400Y-110921800D02*
X156743400Y-110921800D01*
X182100000Y-100043200D02*
X171221400Y-110921800D01*
X182100000Y-89736000D02*
X182100000Y-100043200D01*
X184556400Y-87279600D02*
X182100000Y-89736000D01*
D22*
%TO.N,+5V*%
X135540000Y-63945000D02*
X137945000Y-63945000D01*
D23*
X136800000Y-70200000D02*
X139000000Y-68000000D01*
D22*
X139000000Y-65000000D02*
X139000000Y-68000000D01*
D23*
X136800000Y-86300000D02*
X136800000Y-70200000D01*
X135927200Y-87172800D02*
X136800000Y-86300000D01*
D22*
X137945000Y-63945000D02*
X139000000Y-65000000D01*
D23*
X134442200Y-87172800D02*
X135927200Y-87172800D01*
D21*
%TO.N,Net-(A1-VIN)*%
X123300000Y-77600000D02*
X125252800Y-79552800D01*
X123300000Y-71000000D02*
X123300000Y-77600000D01*
X125252800Y-79552800D02*
X134442200Y-79552800D01*
%TD*%
%TA.AperFunction,Conductor*%
%TO.N,GND*%
G36*
X189307539Y-58482985D02*
G01*
X189353294Y-58535789D01*
X189364500Y-58587300D01*
X189364500Y-128432900D01*
X189344815Y-128499939D01*
X189292011Y-128545694D01*
X189240500Y-128556900D01*
X109920700Y-128556900D01*
X109853661Y-128537215D01*
X109807906Y-128484411D01*
X109796700Y-128432900D01*
X109796700Y-120700802D01*
X142306634Y-120700802D01*
X142326458Y-120927399D01*
X142326460Y-120927410D01*
X142385330Y-121147117D01*
X142385335Y-121147131D01*
X142481463Y-121353278D01*
X142532574Y-121426272D01*
X143211600Y-120747246D01*
X143211600Y-120753461D01*
X143238859Y-120855194D01*
X143291520Y-120946406D01*
X143365994Y-121020880D01*
X143457206Y-121073541D01*
X143558939Y-121100800D01*
X143565153Y-121100800D01*
X142886126Y-121779825D01*
X142959113Y-121830932D01*
X142959121Y-121830936D01*
X143165268Y-121927064D01*
X143165282Y-121927069D01*
X143384989Y-121985939D01*
X143385000Y-121985941D01*
X143611598Y-122005766D01*
X143611602Y-122005766D01*
X143838199Y-121985941D01*
X143838210Y-121985939D01*
X144057917Y-121927069D01*
X144057931Y-121927064D01*
X144264078Y-121830936D01*
X144337071Y-121779824D01*
X143658047Y-121100800D01*
X143664261Y-121100800D01*
X143765994Y-121073541D01*
X143857206Y-121020880D01*
X143931680Y-120946406D01*
X143984341Y-120855194D01*
X144011600Y-120753461D01*
X144011600Y-120747247D01*
X144690624Y-121426271D01*
X144741736Y-121353278D01*
X144837864Y-121147131D01*
X144837869Y-121147117D01*
X144896739Y-120927410D01*
X144896741Y-120927399D01*
X144916566Y-120700802D01*
X144916566Y-120700797D01*
X144896741Y-120474200D01*
X144896739Y-120474189D01*
X144837869Y-120254482D01*
X144837864Y-120254468D01*
X144741736Y-120048321D01*
X144741732Y-120048313D01*
X144690625Y-119975326D01*
X144011600Y-120654351D01*
X144011600Y-120648139D01*
X143984341Y-120546406D01*
X143931680Y-120455194D01*
X143857206Y-120380720D01*
X143765994Y-120328059D01*
X143664261Y-120300800D01*
X143658048Y-120300800D01*
X144337072Y-119621774D01*
X144264078Y-119570663D01*
X144057931Y-119474535D01*
X144057917Y-119474530D01*
X143838210Y-119415660D01*
X143838199Y-119415658D01*
X143611602Y-119395834D01*
X143611598Y-119395834D01*
X143385000Y-119415658D01*
X143384989Y-119415660D01*
X143165282Y-119474530D01*
X143165273Y-119474534D01*
X142959116Y-119570666D01*
X142959112Y-119570668D01*
X142886126Y-119621773D01*
X142886126Y-119621774D01*
X143565153Y-120300800D01*
X143558939Y-120300800D01*
X143457206Y-120328059D01*
X143365994Y-120380720D01*
X143291520Y-120455194D01*
X143238859Y-120546406D01*
X143211600Y-120648139D01*
X143211600Y-120654352D01*
X142532574Y-119975326D01*
X142532573Y-119975326D01*
X142481468Y-120048312D01*
X142481466Y-120048316D01*
X142385334Y-120254473D01*
X142385330Y-120254482D01*
X142326460Y-120474189D01*
X142326458Y-120474200D01*
X142306634Y-120700797D01*
X142306634Y-120700802D01*
X109796700Y-120700802D01*
X109796700Y-115112801D01*
X117896732Y-115112801D01*
X117916564Y-115339486D01*
X117916566Y-115339497D01*
X117975458Y-115559288D01*
X117975461Y-115559297D01*
X118071631Y-115765532D01*
X118071632Y-115765534D01*
X118202154Y-115951941D01*
X118363058Y-116112845D01*
X118363061Y-116112847D01*
X118549466Y-116243368D01*
X118755704Y-116339539D01*
X118975508Y-116398435D01*
X119137430Y-116412601D01*
X119202198Y-116418268D01*
X119202200Y-116418268D01*
X119202202Y-116418268D01*
X119258873Y-116413309D01*
X119428892Y-116398435D01*
X119648696Y-116339539D01*
X119854934Y-116243368D01*
X120041339Y-116112847D01*
X120202247Y-115951939D01*
X120332768Y-115765534D01*
X120428939Y-115559296D01*
X120487835Y-115339492D01*
X120507668Y-115112800D01*
X120507049Y-115105730D01*
X120487835Y-114886113D01*
X120487835Y-114886108D01*
X120428939Y-114666304D01*
X120332768Y-114460066D01*
X120202247Y-114273661D01*
X120202245Y-114273658D01*
X120041341Y-114112754D01*
X119854934Y-113982232D01*
X119854928Y-113982229D01*
X119796925Y-113955182D01*
X119744485Y-113909010D01*
X119725333Y-113841817D01*
X119745548Y-113774935D01*
X119796925Y-113730418D01*
X119854934Y-113703368D01*
X120041339Y-113572847D01*
X120202247Y-113411939D01*
X120332768Y-113225534D01*
X120428939Y-113019296D01*
X120487835Y-112799492D01*
X120507668Y-112572800D01*
X120487835Y-112346108D01*
X120428939Y-112126304D01*
X120332768Y-111920066D01*
X120225968Y-111767538D01*
X120202245Y-111733658D01*
X120041341Y-111572754D01*
X119854934Y-111442232D01*
X119854928Y-111442229D01*
X119796925Y-111415182D01*
X119744485Y-111369010D01*
X119725333Y-111301817D01*
X119745548Y-111234935D01*
X119796925Y-111190418D01*
X119854934Y-111163368D01*
X120041339Y-111032847D01*
X120202247Y-110871939D01*
X120332768Y-110685534D01*
X120428939Y-110479296D01*
X120487835Y-110259492D01*
X120507668Y-110032800D01*
X120487835Y-109806108D01*
X120428939Y-109586304D01*
X120332768Y-109380066D01*
X120202247Y-109193661D01*
X120202245Y-109193658D01*
X120041341Y-109032754D01*
X119854934Y-108902232D01*
X119854928Y-108902229D01*
X119796925Y-108875182D01*
X119744485Y-108829010D01*
X119725333Y-108761817D01*
X119745548Y-108694935D01*
X119796925Y-108650418D01*
X119854934Y-108623368D01*
X120041339Y-108492847D01*
X120202247Y-108331939D01*
X120332768Y-108145534D01*
X120428939Y-107939296D01*
X120487835Y-107719492D01*
X120507668Y-107492800D01*
X120504591Y-107457635D01*
X120491025Y-107302568D01*
X120487835Y-107266108D01*
X120428939Y-107046304D01*
X120332768Y-106840066D01*
X120202247Y-106653661D01*
X120202245Y-106653658D01*
X120041341Y-106492754D01*
X119854934Y-106362232D01*
X119854928Y-106362229D01*
X119796925Y-106335182D01*
X119744485Y-106289010D01*
X119725333Y-106221817D01*
X119745548Y-106154935D01*
X119796925Y-106110418D01*
X119854934Y-106083368D01*
X120041339Y-105952847D01*
X120202247Y-105791939D01*
X120332768Y-105605534D01*
X120428939Y-105399296D01*
X120487835Y-105179492D01*
X120507668Y-104952800D01*
X120507008Y-104945261D01*
X120501856Y-104886364D01*
X120487835Y-104726108D01*
X120428939Y-104506304D01*
X120332768Y-104300066D01*
X120202247Y-104113661D01*
X120202245Y-104113658D01*
X120041341Y-103952754D01*
X119854934Y-103822232D01*
X119854928Y-103822229D01*
X119796925Y-103795182D01*
X119744485Y-103749010D01*
X119725333Y-103681817D01*
X119745548Y-103614935D01*
X119796925Y-103570418D01*
X119854934Y-103543368D01*
X120041339Y-103412847D01*
X120202247Y-103251939D01*
X120332768Y-103065534D01*
X120428939Y-102859296D01*
X120487835Y-102639492D01*
X120507668Y-102412800D01*
X120487835Y-102186108D01*
X120428939Y-101966304D01*
X120332768Y-101760066D01*
X120202247Y-101573661D01*
X120202245Y-101573658D01*
X120041341Y-101412754D01*
X119854934Y-101282232D01*
X119854928Y-101282229D01*
X119796925Y-101255182D01*
X119744485Y-101209010D01*
X119725333Y-101141817D01*
X119745548Y-101074935D01*
X119796925Y-101030418D01*
X119854934Y-101003368D01*
X120041339Y-100872847D01*
X120202247Y-100711939D01*
X120332768Y-100525534D01*
X120428939Y-100319296D01*
X120487835Y-100099492D01*
X120507668Y-99872800D01*
X120487835Y-99646108D01*
X120428939Y-99426304D01*
X120332768Y-99220066D01*
X120202247Y-99033661D01*
X120202245Y-99033658D01*
X120041341Y-98872754D01*
X119854934Y-98742232D01*
X119854928Y-98742229D01*
X119796925Y-98715182D01*
X119744485Y-98669010D01*
X119725333Y-98601817D01*
X119745548Y-98534935D01*
X119796925Y-98490418D01*
X119854934Y-98463368D01*
X120041339Y-98332847D01*
X120202247Y-98171939D01*
X120332768Y-97985534D01*
X120428939Y-97779296D01*
X120487835Y-97559492D01*
X120507668Y-97332800D01*
X120487835Y-97106108D01*
X120428939Y-96886304D01*
X120332768Y-96680066D01*
X120202247Y-96493661D01*
X120202245Y-96493658D01*
X120041341Y-96332754D01*
X119854934Y-96202232D01*
X119854928Y-96202229D01*
X119796925Y-96175182D01*
X119744485Y-96129010D01*
X119725333Y-96061817D01*
X119745548Y-95994935D01*
X119796925Y-95950418D01*
X119854934Y-95923368D01*
X120041339Y-95792847D01*
X120202247Y-95631939D01*
X120332768Y-95445534D01*
X120428939Y-95239296D01*
X120487835Y-95019492D01*
X120507668Y-94792800D01*
X120487835Y-94566108D01*
X120428939Y-94346304D01*
X120332768Y-94140066D01*
X120202247Y-93953661D01*
X120202245Y-93953658D01*
X120041341Y-93792754D01*
X119854934Y-93662232D01*
X119854928Y-93662229D01*
X119796925Y-93635182D01*
X119744485Y-93589010D01*
X119725333Y-93521817D01*
X119745548Y-93454935D01*
X119796925Y-93410418D01*
X119854934Y-93383368D01*
X120041339Y-93252847D01*
X120202247Y-93091939D01*
X120332768Y-92905534D01*
X120428939Y-92699296D01*
X120487835Y-92479492D01*
X120507668Y-92252800D01*
X120487835Y-92026108D01*
X120432698Y-91820334D01*
X120428941Y-91806311D01*
X120428938Y-91806302D01*
X120332768Y-91600067D01*
X120332767Y-91600065D01*
X120306811Y-91562996D01*
X120202247Y-91413661D01*
X120202245Y-91413658D01*
X120041341Y-91252754D01*
X119854934Y-91122232D01*
X119854928Y-91122229D01*
X119796925Y-91095182D01*
X119744485Y-91049010D01*
X119725333Y-90981817D01*
X119745548Y-90914935D01*
X119796925Y-90870418D01*
X119854934Y-90843368D01*
X120041339Y-90712847D01*
X120202247Y-90551939D01*
X120332768Y-90365534D01*
X120428939Y-90159296D01*
X120487835Y-89939492D01*
X120507668Y-89712800D01*
X120487835Y-89486108D01*
X120428939Y-89266304D01*
X120332768Y-89060066D01*
X120202247Y-88873661D01*
X120202245Y-88873658D01*
X120041341Y-88712754D01*
X119854934Y-88582232D01*
X119854932Y-88582231D01*
X119796925Y-88555182D01*
X119796332Y-88554905D01*
X119743894Y-88508734D01*
X119724742Y-88441540D01*
X119744958Y-88374659D01*
X119796334Y-88330141D01*
X119854684Y-88302932D01*
X120041020Y-88172457D01*
X120201857Y-88011620D01*
X120332334Y-87825282D01*
X120428465Y-87619126D01*
X120428469Y-87619117D01*
X120481072Y-87422800D01*
X119635212Y-87422800D01*
X119668125Y-87365793D01*
X119702200Y-87238626D01*
X119702200Y-87106974D01*
X119668125Y-86979807D01*
X119635212Y-86922800D01*
X120481072Y-86922800D01*
X120481072Y-86922799D01*
X120428469Y-86726482D01*
X120428465Y-86726473D01*
X120332334Y-86520317D01*
X120201857Y-86333979D01*
X120041020Y-86173142D01*
X119854682Y-86042665D01*
X119796333Y-86015457D01*
X119743894Y-85969284D01*
X119724742Y-85902091D01*
X119744958Y-85835210D01*
X119796329Y-85790695D01*
X119854934Y-85763368D01*
X120041339Y-85632847D01*
X120202247Y-85471939D01*
X120332768Y-85285534D01*
X120428939Y-85079296D01*
X120487835Y-84859492D01*
X120507668Y-84632800D01*
X120487835Y-84406108D01*
X120428939Y-84186304D01*
X120332768Y-83980066D01*
X120202247Y-83793661D01*
X120202245Y-83793658D01*
X120041341Y-83632754D01*
X119854934Y-83502232D01*
X119854928Y-83502229D01*
X119796925Y-83475182D01*
X119744485Y-83429010D01*
X119725333Y-83361817D01*
X119745548Y-83294935D01*
X119796925Y-83250418D01*
X119797519Y-83250141D01*
X119854934Y-83223368D01*
X120041339Y-83092847D01*
X120202247Y-82931939D01*
X120332768Y-82745534D01*
X120428939Y-82539296D01*
X120487835Y-82319492D01*
X120507668Y-82092800D01*
X120487835Y-81866108D01*
X120428939Y-81646304D01*
X120332768Y-81440066D01*
X120211856Y-81267384D01*
X120202245Y-81253658D01*
X120041343Y-81092756D01*
X120016736Y-81075526D01*
X119973112Y-81020949D01*
X119965919Y-80951450D01*
X119997441Y-80889096D01*
X120057671Y-80853682D01*
X120074604Y-80850661D01*
X120109683Y-80846891D01*
X120244531Y-80796596D01*
X120359746Y-80710346D01*
X120445996Y-80595131D01*
X120496291Y-80460283D01*
X120502700Y-80400673D01*
X120502699Y-78704928D01*
X120496291Y-78645317D01*
X120483535Y-78611117D01*
X120445997Y-78510471D01*
X120445993Y-78510464D01*
X120359747Y-78395255D01*
X120359744Y-78395252D01*
X120244535Y-78309006D01*
X120244528Y-78309002D01*
X120109682Y-78258708D01*
X120109683Y-78258708D01*
X120050083Y-78252301D01*
X120050081Y-78252300D01*
X120050073Y-78252300D01*
X120050064Y-78252300D01*
X118354329Y-78252300D01*
X118354323Y-78252301D01*
X118294716Y-78258708D01*
X118159871Y-78309002D01*
X118159864Y-78309006D01*
X118044655Y-78395252D01*
X118044652Y-78395255D01*
X117958406Y-78510464D01*
X117958402Y-78510471D01*
X117908108Y-78645317D01*
X117902375Y-78698645D01*
X117901701Y-78704923D01*
X117901700Y-78704935D01*
X117901700Y-80400670D01*
X117901701Y-80400676D01*
X117908108Y-80460283D01*
X117958402Y-80595128D01*
X117958406Y-80595135D01*
X118044652Y-80710344D01*
X118044655Y-80710347D01*
X118159864Y-80796593D01*
X118159871Y-80796597D01*
X118204818Y-80813361D01*
X118294717Y-80846891D01*
X118329796Y-80850662D01*
X118394344Y-80877399D01*
X118434193Y-80934791D01*
X118436688Y-81004616D01*
X118401036Y-81064705D01*
X118387664Y-81075525D01*
X118363058Y-81092754D01*
X118202154Y-81253658D01*
X118071632Y-81440065D01*
X118071631Y-81440067D01*
X117975461Y-81646302D01*
X117975458Y-81646311D01*
X117916566Y-81866102D01*
X117916564Y-81866113D01*
X117896732Y-82092798D01*
X117896732Y-82092801D01*
X117916564Y-82319486D01*
X117916566Y-82319497D01*
X117975458Y-82539288D01*
X117975461Y-82539297D01*
X118071631Y-82745532D01*
X118071632Y-82745534D01*
X118202154Y-82931941D01*
X118363058Y-83092845D01*
X118363061Y-83092847D01*
X118549466Y-83223368D01*
X118606881Y-83250141D01*
X118607475Y-83250418D01*
X118659914Y-83296591D01*
X118679066Y-83363784D01*
X118658850Y-83430665D01*
X118607475Y-83475182D01*
X118549467Y-83502231D01*
X118549465Y-83502232D01*
X118363058Y-83632754D01*
X118202154Y-83793658D01*
X118071632Y-83980065D01*
X118071631Y-83980067D01*
X117975461Y-84186302D01*
X117975458Y-84186311D01*
X117916566Y-84406102D01*
X117916564Y-84406113D01*
X117896732Y-84632798D01*
X117896732Y-84632801D01*
X117916564Y-84859486D01*
X117916566Y-84859497D01*
X117975458Y-85079288D01*
X117975461Y-85079297D01*
X118071631Y-85285532D01*
X118071632Y-85285534D01*
X118202154Y-85471941D01*
X118363058Y-85632845D01*
X118363061Y-85632847D01*
X118549466Y-85763368D01*
X118608065Y-85790693D01*
X118660505Y-85836865D01*
X118679657Y-85904058D01*
X118659442Y-85970939D01*
X118608067Y-86015457D01*
X118549715Y-86042667D01*
X118363379Y-86173142D01*
X118202542Y-86333979D01*
X118072065Y-86520317D01*
X117975934Y-86726473D01*
X117975930Y-86726482D01*
X117923327Y-86922799D01*
X117923328Y-86922800D01*
X118769188Y-86922800D01*
X118736275Y-86979807D01*
X118702200Y-87106974D01*
X118702200Y-87238626D01*
X118736275Y-87365793D01*
X118769188Y-87422800D01*
X117923328Y-87422800D01*
X117975930Y-87619117D01*
X117975934Y-87619126D01*
X118072065Y-87825282D01*
X118202542Y-88011620D01*
X118363379Y-88172457D01*
X118549718Y-88302934D01*
X118549720Y-88302935D01*
X118608065Y-88330142D01*
X118660505Y-88376314D01*
X118679657Y-88443507D01*
X118659442Y-88510389D01*
X118608067Y-88554905D01*
X118549468Y-88582231D01*
X118549464Y-88582233D01*
X118363058Y-88712754D01*
X118202154Y-88873658D01*
X118071632Y-89060065D01*
X118071631Y-89060067D01*
X117975461Y-89266302D01*
X117975458Y-89266311D01*
X117916566Y-89486102D01*
X117916564Y-89486113D01*
X117896732Y-89712798D01*
X117896732Y-89712801D01*
X117916564Y-89939486D01*
X117916566Y-89939497D01*
X117975458Y-90159288D01*
X117975461Y-90159297D01*
X118071631Y-90365532D01*
X118071632Y-90365534D01*
X118202154Y-90551941D01*
X118363058Y-90712845D01*
X118363061Y-90712847D01*
X118549466Y-90843368D01*
X118607475Y-90870418D01*
X118659914Y-90916591D01*
X118679066Y-90983784D01*
X118658850Y-91050665D01*
X118607475Y-91095182D01*
X118549467Y-91122231D01*
X118549465Y-91122232D01*
X118363058Y-91252754D01*
X118202154Y-91413658D01*
X118071632Y-91600065D01*
X118071631Y-91600067D01*
X117975461Y-91806302D01*
X117975458Y-91806311D01*
X117916566Y-92026102D01*
X117916564Y-92026113D01*
X117896732Y-92252798D01*
X117896732Y-92252801D01*
X117916564Y-92479486D01*
X117916566Y-92479497D01*
X117975458Y-92699288D01*
X117975461Y-92699297D01*
X118071631Y-92905532D01*
X118071632Y-92905534D01*
X118202154Y-93091941D01*
X118363058Y-93252845D01*
X118363061Y-93252847D01*
X118549466Y-93383368D01*
X118607475Y-93410418D01*
X118659914Y-93456591D01*
X118679066Y-93523784D01*
X118658850Y-93590665D01*
X118607475Y-93635182D01*
X118549467Y-93662231D01*
X118549465Y-93662232D01*
X118363058Y-93792754D01*
X118202154Y-93953658D01*
X118071632Y-94140065D01*
X118071631Y-94140067D01*
X117975461Y-94346302D01*
X117975458Y-94346311D01*
X117916566Y-94566102D01*
X117916564Y-94566113D01*
X117896732Y-94792798D01*
X117896732Y-94792800D01*
X117916564Y-95019486D01*
X117916566Y-95019497D01*
X117975458Y-95239288D01*
X117975461Y-95239297D01*
X118071631Y-95445532D01*
X118071632Y-95445534D01*
X118202154Y-95631941D01*
X118363058Y-95792845D01*
X118363061Y-95792847D01*
X118549466Y-95923368D01*
X118607475Y-95950418D01*
X118659914Y-95996591D01*
X118679066Y-96063784D01*
X118658850Y-96130665D01*
X118607475Y-96175182D01*
X118549467Y-96202231D01*
X118549465Y-96202232D01*
X118363058Y-96332754D01*
X118202154Y-96493658D01*
X118071632Y-96680065D01*
X118071631Y-96680067D01*
X117975461Y-96886302D01*
X117975458Y-96886311D01*
X117916566Y-97106102D01*
X117916564Y-97106113D01*
X117896732Y-97332798D01*
X117896732Y-97332800D01*
X117916564Y-97559486D01*
X117916566Y-97559497D01*
X117975458Y-97779288D01*
X117975461Y-97779297D01*
X118071631Y-97985532D01*
X118071632Y-97985534D01*
X118202154Y-98171941D01*
X118363058Y-98332845D01*
X118363061Y-98332847D01*
X118549466Y-98463368D01*
X118607475Y-98490418D01*
X118659914Y-98536591D01*
X118679066Y-98603784D01*
X118658850Y-98670665D01*
X118607475Y-98715182D01*
X118549467Y-98742231D01*
X118549465Y-98742232D01*
X118363058Y-98872754D01*
X118202154Y-99033658D01*
X118071632Y-99220065D01*
X118071631Y-99220067D01*
X117975461Y-99426302D01*
X117975458Y-99426311D01*
X117916566Y-99646102D01*
X117916564Y-99646113D01*
X117896732Y-99872798D01*
X117896732Y-99872800D01*
X117916564Y-100099486D01*
X117916566Y-100099497D01*
X117975458Y-100319288D01*
X117975461Y-100319297D01*
X118071631Y-100525532D01*
X118071632Y-100525534D01*
X118202154Y-100711941D01*
X118363058Y-100872845D01*
X118363061Y-100872847D01*
X118549466Y-101003368D01*
X118571737Y-101013753D01*
X118607475Y-101030418D01*
X118659914Y-101076591D01*
X118679066Y-101143784D01*
X118658850Y-101210665D01*
X118607475Y-101255182D01*
X118549467Y-101282231D01*
X118549465Y-101282232D01*
X118363058Y-101412754D01*
X118202154Y-101573658D01*
X118071632Y-101760065D01*
X118071631Y-101760067D01*
X117975461Y-101966302D01*
X117975458Y-101966311D01*
X117916566Y-102186102D01*
X117916564Y-102186113D01*
X117896732Y-102412798D01*
X117896732Y-102412800D01*
X117916564Y-102639486D01*
X117916566Y-102639497D01*
X117975458Y-102859288D01*
X117975461Y-102859297D01*
X118071631Y-103065532D01*
X118071632Y-103065534D01*
X118202154Y-103251941D01*
X118363058Y-103412845D01*
X118363061Y-103412847D01*
X118549466Y-103543368D01*
X118607475Y-103570418D01*
X118659914Y-103616591D01*
X118679066Y-103683784D01*
X118658850Y-103750665D01*
X118607475Y-103795182D01*
X118549467Y-103822231D01*
X118549465Y-103822232D01*
X118363058Y-103952754D01*
X118202154Y-104113658D01*
X118071632Y-104300065D01*
X118071631Y-104300067D01*
X117975461Y-104506302D01*
X117975458Y-104506311D01*
X117916566Y-104726102D01*
X117916564Y-104726113D01*
X117896732Y-104952798D01*
X117896732Y-104952801D01*
X117916564Y-105179486D01*
X117916566Y-105179497D01*
X117975458Y-105399288D01*
X117975461Y-105399297D01*
X118071631Y-105605532D01*
X118071632Y-105605534D01*
X118202154Y-105791941D01*
X118363058Y-105952845D01*
X118363061Y-105952847D01*
X118549466Y-106083368D01*
X118607475Y-106110418D01*
X118659914Y-106156591D01*
X118679066Y-106223784D01*
X118658850Y-106290665D01*
X118607475Y-106335182D01*
X118549467Y-106362231D01*
X118549465Y-106362232D01*
X118363058Y-106492754D01*
X118202154Y-106653658D01*
X118071632Y-106840065D01*
X118071631Y-106840067D01*
X117975461Y-107046302D01*
X117975458Y-107046311D01*
X117916566Y-107266102D01*
X117916564Y-107266113D01*
X117896732Y-107492798D01*
X117896732Y-107492801D01*
X117916564Y-107719486D01*
X117916566Y-107719497D01*
X117975458Y-107939288D01*
X117975461Y-107939297D01*
X118071631Y-108145532D01*
X118071632Y-108145534D01*
X118202154Y-108331941D01*
X118363058Y-108492845D01*
X118363061Y-108492847D01*
X118549466Y-108623368D01*
X118607475Y-108650418D01*
X118659914Y-108696591D01*
X118679066Y-108763784D01*
X118658850Y-108830665D01*
X118607475Y-108875182D01*
X118549467Y-108902231D01*
X118549465Y-108902232D01*
X118363058Y-109032754D01*
X118202154Y-109193658D01*
X118071632Y-109380065D01*
X118071631Y-109380067D01*
X117975461Y-109586302D01*
X117975458Y-109586311D01*
X117916566Y-109806102D01*
X117916564Y-109806113D01*
X117896732Y-110032798D01*
X117896732Y-110032801D01*
X117916564Y-110259486D01*
X117916566Y-110259497D01*
X117975458Y-110479288D01*
X117975461Y-110479297D01*
X118071631Y-110685532D01*
X118071632Y-110685534D01*
X118202154Y-110871941D01*
X118363058Y-111032845D01*
X118363061Y-111032847D01*
X118549466Y-111163368D01*
X118607475Y-111190418D01*
X118659914Y-111236591D01*
X118679066Y-111303784D01*
X118658850Y-111370665D01*
X118607475Y-111415182D01*
X118549467Y-111442231D01*
X118549465Y-111442232D01*
X118363058Y-111572754D01*
X118202154Y-111733658D01*
X118071632Y-111920065D01*
X118071631Y-111920067D01*
X117975461Y-112126302D01*
X117975458Y-112126311D01*
X117916566Y-112346102D01*
X117916564Y-112346113D01*
X117896732Y-112572798D01*
X117896732Y-112572801D01*
X117916564Y-112799486D01*
X117916566Y-112799497D01*
X117975458Y-113019288D01*
X117975461Y-113019297D01*
X118071631Y-113225532D01*
X118071632Y-113225534D01*
X118202154Y-113411941D01*
X118363058Y-113572845D01*
X118363061Y-113572847D01*
X118549466Y-113703368D01*
X118607475Y-113730418D01*
X118659914Y-113776591D01*
X118679066Y-113843784D01*
X118658850Y-113910665D01*
X118607475Y-113955182D01*
X118549467Y-113982231D01*
X118549465Y-113982232D01*
X118363058Y-114112754D01*
X118202154Y-114273658D01*
X118071632Y-114460065D01*
X118071631Y-114460067D01*
X117975461Y-114666302D01*
X117975458Y-114666311D01*
X117916566Y-114886102D01*
X117916564Y-114886113D01*
X117896732Y-115112798D01*
X117896732Y-115112801D01*
X109796700Y-115112801D01*
X109796700Y-71000003D01*
X122494435Y-71000003D01*
X122514630Y-71179249D01*
X122514631Y-71179254D01*
X122574211Y-71349523D01*
X122587759Y-71371084D01*
X122648162Y-71467215D01*
X122670185Y-71502263D01*
X122672445Y-71505097D01*
X122673334Y-71507275D01*
X122673889Y-71508158D01*
X122673734Y-71508255D01*
X122698855Y-71569783D01*
X122699500Y-71582412D01*
X122699500Y-77513330D01*
X122699499Y-77513348D01*
X122699499Y-77679054D01*
X122699498Y-77679054D01*
X122740423Y-77831785D01*
X122769358Y-77881900D01*
X122769359Y-77881904D01*
X122769360Y-77881904D01*
X122813776Y-77958837D01*
X122819479Y-77968714D01*
X122819481Y-77968717D01*
X122938349Y-78087585D01*
X122938355Y-78087590D01*
X124767939Y-79917174D01*
X124767949Y-79917185D01*
X124772279Y-79921515D01*
X124772280Y-79921516D01*
X124884084Y-80033320D01*
X124970895Y-80083439D01*
X124970897Y-80083441D01*
X125021013Y-80112376D01*
X125021015Y-80112377D01*
X125173742Y-80153300D01*
X125173743Y-80153300D01*
X133210508Y-80153300D01*
X133277547Y-80172985D01*
X133312080Y-80206174D01*
X133380173Y-80303421D01*
X133442154Y-80391941D01*
X133603058Y-80552845D01*
X133603061Y-80552847D01*
X133789466Y-80683368D01*
X133848065Y-80710693D01*
X133900505Y-80756865D01*
X133919657Y-80824058D01*
X133899442Y-80890939D01*
X133848067Y-80935457D01*
X133789715Y-80962667D01*
X133603379Y-81093142D01*
X133442542Y-81253979D01*
X133312065Y-81440317D01*
X133215934Y-81646473D01*
X133215930Y-81646482D01*
X133163327Y-81842799D01*
X133163328Y-81842800D01*
X134009188Y-81842800D01*
X133976275Y-81899807D01*
X133942200Y-82026974D01*
X133942200Y-82158626D01*
X133976275Y-82285793D01*
X134009188Y-82342800D01*
X133163328Y-82342800D01*
X133215930Y-82539117D01*
X133215934Y-82539126D01*
X133312065Y-82745282D01*
X133442542Y-82931620D01*
X133603379Y-83092457D01*
X133789718Y-83222934D01*
X133789720Y-83222935D01*
X133848065Y-83250142D01*
X133900505Y-83296314D01*
X133919657Y-83363507D01*
X133899442Y-83430389D01*
X133848067Y-83474905D01*
X133789468Y-83502231D01*
X133789464Y-83502233D01*
X133603058Y-83632754D01*
X133442154Y-83793658D01*
X133311632Y-83980065D01*
X133311631Y-83980067D01*
X133215461Y-84186302D01*
X133215458Y-84186311D01*
X133156566Y-84406102D01*
X133156564Y-84406113D01*
X133136732Y-84632798D01*
X133136732Y-84632801D01*
X133156564Y-84859486D01*
X133156566Y-84859497D01*
X133215458Y-85079288D01*
X133215461Y-85079297D01*
X133311631Y-85285532D01*
X133311632Y-85285534D01*
X133442154Y-85471941D01*
X133603058Y-85632845D01*
X133603061Y-85632847D01*
X133789466Y-85763368D01*
X133847475Y-85790418D01*
X133899914Y-85836591D01*
X133919066Y-85903784D01*
X133898850Y-85970665D01*
X133847475Y-86015182D01*
X133789467Y-86042231D01*
X133789465Y-86042232D01*
X133603058Y-86172754D01*
X133442154Y-86333658D01*
X133311632Y-86520065D01*
X133311631Y-86520067D01*
X133215461Y-86726302D01*
X133215458Y-86726311D01*
X133156566Y-86946102D01*
X133156564Y-86946113D01*
X133136732Y-87172798D01*
X133136732Y-87172801D01*
X133156564Y-87399486D01*
X133156566Y-87399497D01*
X133215458Y-87619288D01*
X133215461Y-87619297D01*
X133311631Y-87825532D01*
X133311632Y-87825534D01*
X133442154Y-88011941D01*
X133603058Y-88172845D01*
X133603061Y-88172847D01*
X133789466Y-88303368D01*
X133846881Y-88330141D01*
X133847475Y-88330418D01*
X133899914Y-88376591D01*
X133919066Y-88443784D01*
X133898850Y-88510665D01*
X133847475Y-88555182D01*
X133789467Y-88582231D01*
X133789465Y-88582232D01*
X133603058Y-88712754D01*
X133442154Y-88873658D01*
X133311632Y-89060065D01*
X133311631Y-89060067D01*
X133215461Y-89266302D01*
X133215458Y-89266311D01*
X133156566Y-89486102D01*
X133156564Y-89486113D01*
X133136732Y-89712798D01*
X133136732Y-89712801D01*
X133156564Y-89939486D01*
X133156566Y-89939497D01*
X133215458Y-90159288D01*
X133215461Y-90159297D01*
X133311631Y-90365532D01*
X133311632Y-90365534D01*
X133442154Y-90551941D01*
X133603058Y-90712845D01*
X133603061Y-90712847D01*
X133789466Y-90843368D01*
X133847475Y-90870418D01*
X133899914Y-90916591D01*
X133919066Y-90983784D01*
X133898850Y-91050665D01*
X133847475Y-91095182D01*
X133789467Y-91122231D01*
X133789465Y-91122232D01*
X133603058Y-91252754D01*
X133442154Y-91413658D01*
X133311632Y-91600065D01*
X133311631Y-91600067D01*
X133215461Y-91806302D01*
X133215458Y-91806311D01*
X133156566Y-92026102D01*
X133156564Y-92026113D01*
X133136732Y-92252798D01*
X133136732Y-92252801D01*
X133156564Y-92479486D01*
X133156566Y-92479497D01*
X133215458Y-92699288D01*
X133215461Y-92699297D01*
X133311631Y-92905532D01*
X133311632Y-92905534D01*
X133442154Y-93091941D01*
X133603058Y-93252845D01*
X133603061Y-93252847D01*
X133789466Y-93383368D01*
X133847475Y-93410418D01*
X133899914Y-93456591D01*
X133919066Y-93523784D01*
X133898850Y-93590665D01*
X133847475Y-93635182D01*
X133789467Y-93662231D01*
X133789465Y-93662232D01*
X133603058Y-93792754D01*
X133442154Y-93953658D01*
X133311632Y-94140065D01*
X133311631Y-94140067D01*
X133215461Y-94346302D01*
X133215458Y-94346311D01*
X133156566Y-94566102D01*
X133156564Y-94566113D01*
X133136732Y-94792798D01*
X133136732Y-94792800D01*
X133156564Y-95019486D01*
X133156566Y-95019497D01*
X133215458Y-95239288D01*
X133215461Y-95239297D01*
X133311631Y-95445532D01*
X133311632Y-95445534D01*
X133442154Y-95631941D01*
X133603058Y-95792845D01*
X133603061Y-95792847D01*
X133789466Y-95923368D01*
X133847475Y-95950418D01*
X133899914Y-95996591D01*
X133919066Y-96063784D01*
X133898850Y-96130665D01*
X133847475Y-96175182D01*
X133789467Y-96202231D01*
X133789465Y-96202232D01*
X133603058Y-96332754D01*
X133442154Y-96493658D01*
X133311632Y-96680065D01*
X133311631Y-96680067D01*
X133215461Y-96886302D01*
X133215458Y-96886311D01*
X133156566Y-97106102D01*
X133156564Y-97106113D01*
X133136732Y-97332798D01*
X133136732Y-97332800D01*
X133156564Y-97559486D01*
X133156566Y-97559497D01*
X133215458Y-97779288D01*
X133215461Y-97779297D01*
X133311631Y-97985532D01*
X133311632Y-97985534D01*
X133442154Y-98171941D01*
X133603058Y-98332845D01*
X133603061Y-98332847D01*
X133789466Y-98463368D01*
X133847475Y-98490418D01*
X133899914Y-98536591D01*
X133919066Y-98603784D01*
X133898850Y-98670665D01*
X133847475Y-98715182D01*
X133789467Y-98742231D01*
X133789465Y-98742232D01*
X133603058Y-98872754D01*
X133442154Y-99033658D01*
X133311632Y-99220065D01*
X133311631Y-99220067D01*
X133215461Y-99426302D01*
X133215458Y-99426311D01*
X133156566Y-99646102D01*
X133156564Y-99646113D01*
X133136732Y-99872798D01*
X133136732Y-99872800D01*
X133156564Y-100099486D01*
X133156566Y-100099497D01*
X133215458Y-100319288D01*
X133215461Y-100319297D01*
X133311631Y-100525532D01*
X133311632Y-100525534D01*
X133442154Y-100711941D01*
X133603058Y-100872845D01*
X133603061Y-100872847D01*
X133789466Y-101003368D01*
X133811737Y-101013753D01*
X133847475Y-101030418D01*
X133899914Y-101076591D01*
X133919066Y-101143784D01*
X133898850Y-101210665D01*
X133847475Y-101255182D01*
X133789467Y-101282231D01*
X133789465Y-101282232D01*
X133603058Y-101412754D01*
X133442154Y-101573658D01*
X133311632Y-101760065D01*
X133311631Y-101760067D01*
X133215461Y-101966302D01*
X133215458Y-101966311D01*
X133156566Y-102186102D01*
X133156564Y-102186113D01*
X133136732Y-102412798D01*
X133136732Y-102412800D01*
X133156564Y-102639486D01*
X133156566Y-102639497D01*
X133215458Y-102859288D01*
X133215461Y-102859297D01*
X133311631Y-103065532D01*
X133311632Y-103065534D01*
X133442154Y-103251941D01*
X133603058Y-103412845D01*
X133603061Y-103412847D01*
X133789466Y-103543368D01*
X133847475Y-103570418D01*
X133899914Y-103616591D01*
X133919066Y-103683784D01*
X133898850Y-103750665D01*
X133847475Y-103795182D01*
X133789467Y-103822231D01*
X133789465Y-103822232D01*
X133603058Y-103952754D01*
X133442154Y-104113658D01*
X133311632Y-104300065D01*
X133311631Y-104300067D01*
X133215461Y-104506302D01*
X133215458Y-104506311D01*
X133156566Y-104726102D01*
X133156564Y-104726113D01*
X133136732Y-104952798D01*
X133136732Y-104952801D01*
X133156564Y-105179486D01*
X133156566Y-105179497D01*
X133215458Y-105399288D01*
X133215461Y-105399297D01*
X133311631Y-105605532D01*
X133311632Y-105605534D01*
X133442154Y-105791941D01*
X133603058Y-105952845D01*
X133603061Y-105952847D01*
X133789466Y-106083368D01*
X133847475Y-106110418D01*
X133899914Y-106156591D01*
X133919066Y-106223784D01*
X133898850Y-106290665D01*
X133847475Y-106335182D01*
X133789467Y-106362231D01*
X133789465Y-106362232D01*
X133603058Y-106492754D01*
X133442154Y-106653658D01*
X133311632Y-106840065D01*
X133311631Y-106840067D01*
X133215461Y-107046302D01*
X133215458Y-107046311D01*
X133156566Y-107266102D01*
X133156564Y-107266113D01*
X133136732Y-107492798D01*
X133136732Y-107492801D01*
X133156564Y-107719486D01*
X133156566Y-107719497D01*
X133215458Y-107939288D01*
X133215461Y-107939297D01*
X133311631Y-108145532D01*
X133311632Y-108145534D01*
X133442154Y-108331941D01*
X133603058Y-108492845D01*
X133603061Y-108492847D01*
X133789466Y-108623368D01*
X133847475Y-108650418D01*
X133899914Y-108696591D01*
X133919066Y-108763784D01*
X133898850Y-108830665D01*
X133847475Y-108875182D01*
X133789467Y-108902231D01*
X133789465Y-108902232D01*
X133603058Y-109032754D01*
X133442154Y-109193658D01*
X133311632Y-109380065D01*
X133311631Y-109380067D01*
X133215461Y-109586302D01*
X133215458Y-109586311D01*
X133156566Y-109806102D01*
X133156564Y-109806113D01*
X133136732Y-110032798D01*
X133136732Y-110032801D01*
X133156564Y-110259486D01*
X133156566Y-110259497D01*
X133215458Y-110479288D01*
X133215461Y-110479297D01*
X133311631Y-110685532D01*
X133311632Y-110685534D01*
X133442154Y-110871941D01*
X133603058Y-111032845D01*
X133603061Y-111032847D01*
X133789466Y-111163368D01*
X133847475Y-111190418D01*
X133899914Y-111236591D01*
X133919066Y-111303784D01*
X133898850Y-111370665D01*
X133847475Y-111415182D01*
X133789467Y-111442231D01*
X133789465Y-111442232D01*
X133603058Y-111572754D01*
X133442154Y-111733658D01*
X133311632Y-111920065D01*
X133311631Y-111920067D01*
X133215461Y-112126302D01*
X133215458Y-112126311D01*
X133156566Y-112346102D01*
X133156564Y-112346113D01*
X133136732Y-112572798D01*
X133136732Y-112572801D01*
X133156564Y-112799486D01*
X133156566Y-112799497D01*
X133215458Y-113019288D01*
X133215461Y-113019297D01*
X133311631Y-113225532D01*
X133311632Y-113225534D01*
X133442154Y-113411941D01*
X133603058Y-113572845D01*
X133603061Y-113572847D01*
X133789466Y-113703368D01*
X133847475Y-113730418D01*
X133899914Y-113776591D01*
X133919066Y-113843784D01*
X133898850Y-113910665D01*
X133847475Y-113955182D01*
X133789467Y-113982231D01*
X133789465Y-113982232D01*
X133603058Y-114112754D01*
X133442154Y-114273658D01*
X133311632Y-114460065D01*
X133311631Y-114460067D01*
X133215461Y-114666302D01*
X133215458Y-114666311D01*
X133156566Y-114886102D01*
X133156564Y-114886113D01*
X133136732Y-115112798D01*
X133136732Y-115112801D01*
X133156564Y-115339486D01*
X133156566Y-115339497D01*
X133215458Y-115559288D01*
X133215461Y-115559297D01*
X133311631Y-115765532D01*
X133311632Y-115765534D01*
X133442154Y-115951941D01*
X133603058Y-116112845D01*
X133603061Y-116112847D01*
X133789466Y-116243368D01*
X133995704Y-116339539D01*
X134215508Y-116398435D01*
X134377430Y-116412601D01*
X134442198Y-116418268D01*
X134442200Y-116418268D01*
X134442202Y-116418268D01*
X134498873Y-116413309D01*
X134668892Y-116398435D01*
X134888696Y-116339539D01*
X134904859Y-116332002D01*
X139030034Y-116332002D01*
X139049858Y-116558599D01*
X139049860Y-116558610D01*
X139108730Y-116778317D01*
X139108735Y-116778331D01*
X139204863Y-116984478D01*
X139255974Y-117057472D01*
X139935000Y-116378446D01*
X139935000Y-116384661D01*
X139962259Y-116486394D01*
X140014920Y-116577606D01*
X140089394Y-116652080D01*
X140180606Y-116704741D01*
X140282339Y-116732000D01*
X140288553Y-116732000D01*
X139609526Y-117411025D01*
X139682513Y-117462132D01*
X139682521Y-117462136D01*
X139888668Y-117558264D01*
X139888682Y-117558269D01*
X140108389Y-117617139D01*
X140108400Y-117617141D01*
X140334998Y-117636966D01*
X140335002Y-117636966D01*
X140561599Y-117617141D01*
X140561610Y-117617139D01*
X140781317Y-117558269D01*
X140781331Y-117558264D01*
X140987478Y-117462136D01*
X141060471Y-117411024D01*
X140381447Y-116732000D01*
X140387661Y-116732000D01*
X140489394Y-116704741D01*
X140580606Y-116652080D01*
X140655080Y-116577606D01*
X140707741Y-116486394D01*
X140735000Y-116384661D01*
X140735000Y-116378447D01*
X141414024Y-117057471D01*
X141465136Y-116984478D01*
X141561264Y-116778331D01*
X141561269Y-116778317D01*
X141620139Y-116558610D01*
X141620141Y-116558599D01*
X141639966Y-116332002D01*
X141639966Y-116331997D01*
X141620141Y-116105400D01*
X141620139Y-116105389D01*
X141561269Y-115885682D01*
X141561264Y-115885668D01*
X141465136Y-115679521D01*
X141465132Y-115679513D01*
X141414025Y-115606526D01*
X140735000Y-116285551D01*
X140735000Y-116279339D01*
X140707741Y-116177606D01*
X140655080Y-116086394D01*
X140580606Y-116011920D01*
X140489394Y-115959259D01*
X140387661Y-115932000D01*
X140381448Y-115932000D01*
X141060472Y-115252974D01*
X140987478Y-115201863D01*
X140781331Y-115105735D01*
X140781317Y-115105730D01*
X140561610Y-115046860D01*
X140561599Y-115046858D01*
X140335002Y-115027034D01*
X140334998Y-115027034D01*
X140108400Y-115046858D01*
X140108389Y-115046860D01*
X139888682Y-115105730D01*
X139888673Y-115105734D01*
X139682516Y-115201866D01*
X139682512Y-115201868D01*
X139609526Y-115252973D01*
X139609526Y-115252974D01*
X140288553Y-115932000D01*
X140282339Y-115932000D01*
X140180606Y-115959259D01*
X140089394Y-116011920D01*
X140014920Y-116086394D01*
X139962259Y-116177606D01*
X139935000Y-116279339D01*
X139935000Y-116285552D01*
X139255974Y-115606526D01*
X139255973Y-115606526D01*
X139204868Y-115679512D01*
X139204866Y-115679516D01*
X139108734Y-115885673D01*
X139108730Y-115885682D01*
X139049860Y-116105389D01*
X139049858Y-116105400D01*
X139030034Y-116331997D01*
X139030034Y-116332002D01*
X134904859Y-116332002D01*
X135094934Y-116243368D01*
X135281339Y-116112847D01*
X135442247Y-115951939D01*
X135572768Y-115765534D01*
X135668939Y-115559296D01*
X135727835Y-115339492D01*
X135747668Y-115112800D01*
X135747049Y-115105730D01*
X135727835Y-114886113D01*
X135727835Y-114886108D01*
X135668939Y-114666304D01*
X135572768Y-114460066D01*
X135442247Y-114273661D01*
X135442245Y-114273658D01*
X135281341Y-114112754D01*
X135094934Y-113982232D01*
X135094928Y-113982229D01*
X135036925Y-113955182D01*
X134984485Y-113909010D01*
X134965333Y-113841817D01*
X134985548Y-113774935D01*
X135036925Y-113730418D01*
X135094934Y-113703368D01*
X135281339Y-113572847D01*
X135442247Y-113411939D01*
X135572768Y-113225534D01*
X135668939Y-113019296D01*
X135727835Y-112799492D01*
X135747668Y-112572800D01*
X135727835Y-112346108D01*
X135668939Y-112126304D01*
X135572768Y-111920066D01*
X135465968Y-111767538D01*
X135442245Y-111733658D01*
X135281341Y-111572754D01*
X135094934Y-111442232D01*
X135094928Y-111442229D01*
X135036925Y-111415182D01*
X134984485Y-111369010D01*
X134965333Y-111301817D01*
X134985548Y-111234935D01*
X135036925Y-111190418D01*
X135094934Y-111163368D01*
X135281339Y-111032847D01*
X135442247Y-110871939D01*
X135572768Y-110685534D01*
X135640259Y-110540801D01*
X142306132Y-110540801D01*
X142325964Y-110767486D01*
X142325966Y-110767497D01*
X142384858Y-110987288D01*
X142384861Y-110987297D01*
X142481031Y-111193532D01*
X142481032Y-111193534D01*
X142611554Y-111379941D01*
X142772458Y-111540845D01*
X142772461Y-111540847D01*
X142958866Y-111671368D01*
X143165104Y-111767539D01*
X143384908Y-111826435D01*
X143546830Y-111840601D01*
X143611598Y-111846268D01*
X143611600Y-111846268D01*
X143611602Y-111846268D01*
X143668273Y-111841309D01*
X143838292Y-111826435D01*
X144058096Y-111767539D01*
X144264334Y-111671368D01*
X144450739Y-111540847D01*
X144611647Y-111379939D01*
X144742168Y-111193534D01*
X144838339Y-110987296D01*
X144855888Y-110921801D01*
X145277932Y-110921801D01*
X145297764Y-111148486D01*
X145297766Y-111148497D01*
X145356658Y-111368288D01*
X145356661Y-111368297D01*
X145452831Y-111574532D01*
X145452832Y-111574534D01*
X145583354Y-111760941D01*
X145744258Y-111921845D01*
X145744261Y-111921847D01*
X145930666Y-112052368D01*
X146136904Y-112148539D01*
X146356708Y-112207435D01*
X146518630Y-112221601D01*
X146583398Y-112227268D01*
X146583400Y-112227268D01*
X146583402Y-112227268D01*
X146640073Y-112222309D01*
X146810092Y-112207435D01*
X147029896Y-112148539D01*
X147236134Y-112052368D01*
X147422539Y-111921847D01*
X147583447Y-111760939D01*
X147713968Y-111574534D01*
X147810139Y-111368296D01*
X147869035Y-111148492D01*
X147888868Y-110921801D01*
X155437932Y-110921801D01*
X155457764Y-111148486D01*
X155457766Y-111148497D01*
X155516658Y-111368288D01*
X155516661Y-111368297D01*
X155612831Y-111574532D01*
X155612832Y-111574534D01*
X155743354Y-111760941D01*
X155904258Y-111921845D01*
X155904261Y-111921847D01*
X156090666Y-112052368D01*
X156296904Y-112148539D01*
X156516708Y-112207435D01*
X156678630Y-112221601D01*
X156743398Y-112227268D01*
X156743400Y-112227268D01*
X156743402Y-112227268D01*
X156800073Y-112222309D01*
X156970092Y-112207435D01*
X157189896Y-112148539D01*
X157396134Y-112052368D01*
X157582539Y-111921847D01*
X157743447Y-111760939D01*
X157873518Y-111575175D01*
X157928093Y-111531552D01*
X157975092Y-111522300D01*
X171134731Y-111522300D01*
X171134747Y-111522301D01*
X171142343Y-111522301D01*
X171300454Y-111522301D01*
X171300457Y-111522301D01*
X171453185Y-111481377D01*
X171503304Y-111452439D01*
X171590116Y-111402320D01*
X171701920Y-111290516D01*
X171701920Y-111290514D01*
X171712128Y-111280307D01*
X171712129Y-111280304D01*
X182580520Y-100411916D01*
X182659577Y-100274984D01*
X182700501Y-100122257D01*
X182700501Y-99964142D01*
X182700501Y-99956547D01*
X182700500Y-99956529D01*
X182700500Y-91628860D01*
X182720185Y-91561821D01*
X182772989Y-91516066D01*
X182842147Y-91506122D01*
X182905703Y-91535147D01*
X182931886Y-91566858D01*
X183064585Y-91796702D01*
X183130960Y-91879933D01*
X183232842Y-92007689D01*
X183364658Y-92129995D01*
X183430659Y-92191235D01*
X183653626Y-92343251D01*
X183896759Y-92460338D01*
X184154628Y-92539880D01*
X184154629Y-92539880D01*
X184154632Y-92539881D01*
X184421463Y-92580099D01*
X184421468Y-92580099D01*
X184421471Y-92580100D01*
X184421472Y-92580100D01*
X184691328Y-92580100D01*
X184691329Y-92580100D01*
X184691336Y-92580099D01*
X184958167Y-92539881D01*
X184958168Y-92539880D01*
X184958172Y-92539880D01*
X185216041Y-92460338D01*
X185459175Y-92343251D01*
X185682141Y-92191235D01*
X185872308Y-92014786D01*
X185879957Y-92007689D01*
X185879957Y-92007687D01*
X185879961Y-92007685D01*
X186048215Y-91796702D01*
X186183143Y-91562998D01*
X186281734Y-91311795D01*
X186341783Y-91048703D01*
X186357170Y-90843370D01*
X186361949Y-90779604D01*
X186361949Y-90779595D01*
X186341783Y-90510498D01*
X186308696Y-90365534D01*
X186281734Y-90247405D01*
X186183143Y-89996202D01*
X186048215Y-89762498D01*
X185879961Y-89551515D01*
X185879960Y-89551514D01*
X185879957Y-89551510D01*
X185682141Y-89367965D01*
X185651508Y-89347080D01*
X185592063Y-89306550D01*
X185547763Y-89252524D01*
X185539704Y-89183121D01*
X185570447Y-89120378D01*
X185630231Y-89084216D01*
X185661917Y-89080099D01*
X185904271Y-89080099D01*
X185904272Y-89080099D01*
X185963883Y-89073691D01*
X186098731Y-89023396D01*
X186213946Y-88937146D01*
X186300196Y-88821931D01*
X186350491Y-88687083D01*
X186356900Y-88627473D01*
X186356899Y-85931728D01*
X186350491Y-85872117D01*
X186336355Y-85834217D01*
X186300197Y-85737271D01*
X186300193Y-85737264D01*
X186213947Y-85622055D01*
X186213944Y-85622052D01*
X186098735Y-85535806D01*
X186098728Y-85535802D01*
X185963882Y-85485508D01*
X185963883Y-85485508D01*
X185904283Y-85479101D01*
X185904281Y-85479100D01*
X185904273Y-85479100D01*
X185904264Y-85479100D01*
X183208529Y-85479100D01*
X183208523Y-85479101D01*
X183148916Y-85485508D01*
X183014071Y-85535802D01*
X183014064Y-85535806D01*
X182898855Y-85622052D01*
X182898852Y-85622055D01*
X182812606Y-85737264D01*
X182812602Y-85737271D01*
X182762308Y-85872117D01*
X182755901Y-85931716D01*
X182755901Y-85931723D01*
X182755900Y-85931735D01*
X182755900Y-88179502D01*
X182736215Y-88246541D01*
X182719581Y-88267183D01*
X181619481Y-89367282D01*
X181619479Y-89367285D01*
X181588489Y-89420963D01*
X181588488Y-89420965D01*
X181540423Y-89504214D01*
X181540423Y-89504215D01*
X181499499Y-89656943D01*
X181499499Y-89656945D01*
X181499499Y-89825046D01*
X181499500Y-89825059D01*
X181499500Y-99743102D01*
X181479815Y-99810141D01*
X181463181Y-99830783D01*
X171008984Y-110284981D01*
X170947661Y-110318466D01*
X170921303Y-110321300D01*
X157975092Y-110321300D01*
X157908053Y-110301615D01*
X157873519Y-110268425D01*
X157743447Y-110082661D01*
X157743445Y-110082658D01*
X157582541Y-109921754D01*
X157396134Y-109791232D01*
X157396132Y-109791231D01*
X157189897Y-109695061D01*
X157189888Y-109695058D01*
X156970097Y-109636166D01*
X156970093Y-109636165D01*
X156970092Y-109636165D01*
X156970091Y-109636164D01*
X156970086Y-109636164D01*
X156743402Y-109616332D01*
X156743398Y-109616332D01*
X156516713Y-109636164D01*
X156516702Y-109636166D01*
X156296911Y-109695058D01*
X156296902Y-109695061D01*
X156090667Y-109791231D01*
X156090665Y-109791232D01*
X155904258Y-109921754D01*
X155743354Y-110082658D01*
X155612832Y-110269065D01*
X155612831Y-110269067D01*
X155516661Y-110475302D01*
X155516658Y-110475311D01*
X155457766Y-110695102D01*
X155457764Y-110695113D01*
X155437932Y-110921798D01*
X155437932Y-110921801D01*
X147888868Y-110921801D01*
X147888868Y-110921800D01*
X147869035Y-110695108D01*
X147810139Y-110475304D01*
X147713968Y-110269066D01*
X147591604Y-110094311D01*
X147583445Y-110082658D01*
X147422541Y-109921754D01*
X147236134Y-109791232D01*
X147236132Y-109791231D01*
X147029897Y-109695061D01*
X147029888Y-109695058D01*
X146810097Y-109636166D01*
X146810093Y-109636165D01*
X146810092Y-109636165D01*
X146810091Y-109636164D01*
X146810086Y-109636164D01*
X146583402Y-109616332D01*
X146583398Y-109616332D01*
X146356713Y-109636164D01*
X146356702Y-109636166D01*
X146136911Y-109695058D01*
X146136902Y-109695061D01*
X145930667Y-109791231D01*
X145930665Y-109791232D01*
X145744258Y-109921754D01*
X145583354Y-110082658D01*
X145452832Y-110269065D01*
X145452831Y-110269067D01*
X145356661Y-110475302D01*
X145356658Y-110475311D01*
X145297766Y-110695102D01*
X145297764Y-110695113D01*
X145277932Y-110921798D01*
X145277932Y-110921801D01*
X144855888Y-110921801D01*
X144897235Y-110767492D01*
X144917068Y-110540800D01*
X144897235Y-110314108D01*
X144838339Y-110094304D01*
X144742168Y-109888066D01*
X144611647Y-109701661D01*
X144611645Y-109701658D01*
X144450741Y-109540754D01*
X144264334Y-109410232D01*
X144264332Y-109410231D01*
X144058097Y-109314061D01*
X144058088Y-109314058D01*
X143838297Y-109255166D01*
X143838293Y-109255165D01*
X143838292Y-109255165D01*
X143838291Y-109255164D01*
X143838286Y-109255164D01*
X143611602Y-109235332D01*
X143611598Y-109235332D01*
X143384913Y-109255164D01*
X143384902Y-109255166D01*
X143165111Y-109314058D01*
X143165102Y-109314061D01*
X142958867Y-109410231D01*
X142958865Y-109410232D01*
X142772458Y-109540754D01*
X142611554Y-109701658D01*
X142481032Y-109888065D01*
X142481031Y-109888067D01*
X142384861Y-110094302D01*
X142384858Y-110094311D01*
X142325966Y-110314102D01*
X142325964Y-110314113D01*
X142306132Y-110540798D01*
X142306132Y-110540801D01*
X135640259Y-110540801D01*
X135668939Y-110479296D01*
X135727835Y-110259492D01*
X135747668Y-110032800D01*
X135727835Y-109806108D01*
X135668939Y-109586304D01*
X135572768Y-109380066D01*
X135442247Y-109193661D01*
X135442245Y-109193658D01*
X135281341Y-109032754D01*
X135094934Y-108902232D01*
X135094928Y-108902229D01*
X135036925Y-108875182D01*
X134984485Y-108829010D01*
X134965333Y-108761817D01*
X134985548Y-108694935D01*
X135036925Y-108650418D01*
X135094934Y-108623368D01*
X135281339Y-108492847D01*
X135442247Y-108331939D01*
X135572768Y-108145534D01*
X135668939Y-107939296D01*
X135727835Y-107719492D01*
X135747668Y-107492800D01*
X135744591Y-107457635D01*
X135731025Y-107302568D01*
X135727835Y-107266108D01*
X135668939Y-107046304D01*
X135572768Y-106840066D01*
X135442247Y-106653661D01*
X135442245Y-106653658D01*
X135281341Y-106492754D01*
X135094934Y-106362232D01*
X135094928Y-106362229D01*
X135036925Y-106335182D01*
X134984485Y-106289010D01*
X134965333Y-106221817D01*
X134980390Y-106172001D01*
X139029532Y-106172001D01*
X139049364Y-106398686D01*
X139049366Y-106398697D01*
X139108258Y-106618488D01*
X139108261Y-106618497D01*
X139204431Y-106824732D01*
X139204432Y-106824734D01*
X139334954Y-107011141D01*
X139495858Y-107172045D01*
X139495861Y-107172047D01*
X139682266Y-107302568D01*
X139888504Y-107398739D01*
X140108308Y-107457635D01*
X140270230Y-107471801D01*
X140334998Y-107477468D01*
X140335000Y-107477468D01*
X140335002Y-107477468D01*
X140391673Y-107472509D01*
X140561692Y-107457635D01*
X140781496Y-107398739D01*
X140987734Y-107302568D01*
X141174139Y-107172047D01*
X141335047Y-107011139D01*
X141465568Y-106824734D01*
X141509370Y-106730801D01*
X142814132Y-106730801D01*
X142833964Y-106957486D01*
X142833966Y-106957497D01*
X142892858Y-107177288D01*
X142892861Y-107177297D01*
X142989031Y-107383532D01*
X142989032Y-107383534D01*
X143119554Y-107569941D01*
X143280458Y-107730845D01*
X143280461Y-107730847D01*
X143466866Y-107861368D01*
X143673104Y-107957539D01*
X143892908Y-108016435D01*
X144054830Y-108030601D01*
X144119598Y-108036268D01*
X144119600Y-108036268D01*
X144119602Y-108036268D01*
X144176273Y-108031309D01*
X144346292Y-108016435D01*
X144566096Y-107957539D01*
X144772334Y-107861368D01*
X144958739Y-107730847D01*
X145119647Y-107569939D01*
X145250168Y-107383534D01*
X145346339Y-107177296D01*
X145405235Y-106957492D01*
X145425068Y-106730801D01*
X152974132Y-106730801D01*
X152993964Y-106957486D01*
X152993966Y-106957497D01*
X153052858Y-107177288D01*
X153052861Y-107177297D01*
X153149031Y-107383532D01*
X153149032Y-107383534D01*
X153279554Y-107569941D01*
X153440458Y-107730845D01*
X153440461Y-107730847D01*
X153626866Y-107861368D01*
X153833104Y-107957539D01*
X154052908Y-108016435D01*
X154214830Y-108030601D01*
X154279598Y-108036268D01*
X154279600Y-108036268D01*
X154279602Y-108036268D01*
X154336273Y-108031309D01*
X154506292Y-108016435D01*
X154726096Y-107957539D01*
X154932334Y-107861368D01*
X155118739Y-107730847D01*
X155279647Y-107569939D01*
X155410168Y-107383534D01*
X155506339Y-107177296D01*
X155565235Y-106957492D01*
X155585068Y-106730800D01*
X155565235Y-106504108D01*
X155519972Y-106335182D01*
X155506341Y-106284311D01*
X155506338Y-106284302D01*
X155477659Y-106222800D01*
X155410168Y-106078066D01*
X155279647Y-105891661D01*
X155279645Y-105891658D01*
X155118741Y-105730754D01*
X154932334Y-105600232D01*
X154932332Y-105600231D01*
X154726097Y-105504061D01*
X154726088Y-105504058D01*
X154506297Y-105445166D01*
X154506293Y-105445165D01*
X154506292Y-105445165D01*
X154506291Y-105445164D01*
X154506286Y-105445164D01*
X154279602Y-105425332D01*
X154279598Y-105425332D01*
X154052913Y-105445164D01*
X154052902Y-105445166D01*
X153833111Y-105504058D01*
X153833102Y-105504061D01*
X153626867Y-105600231D01*
X153626865Y-105600232D01*
X153440458Y-105730754D01*
X153279554Y-105891658D01*
X153149032Y-106078065D01*
X153149031Y-106078067D01*
X153052861Y-106284302D01*
X153052858Y-106284311D01*
X152993966Y-106504102D01*
X152993964Y-106504113D01*
X152974132Y-106730798D01*
X152974132Y-106730801D01*
X145425068Y-106730801D01*
X145425068Y-106730800D01*
X145405235Y-106504108D01*
X145359972Y-106335182D01*
X145346341Y-106284311D01*
X145346338Y-106284302D01*
X145317659Y-106222800D01*
X145250168Y-106078066D01*
X145119647Y-105891661D01*
X145119645Y-105891658D01*
X144958741Y-105730754D01*
X144772334Y-105600232D01*
X144772332Y-105600231D01*
X144566097Y-105504061D01*
X144566088Y-105504058D01*
X144346297Y-105445166D01*
X144346293Y-105445165D01*
X144346292Y-105445165D01*
X144346291Y-105445164D01*
X144346286Y-105445164D01*
X144119602Y-105425332D01*
X144119598Y-105425332D01*
X143892913Y-105445164D01*
X143892902Y-105445166D01*
X143673111Y-105504058D01*
X143673102Y-105504061D01*
X143466867Y-105600231D01*
X143466865Y-105600232D01*
X143280458Y-105730754D01*
X143119554Y-105891658D01*
X142989032Y-106078065D01*
X142989031Y-106078067D01*
X142892861Y-106284302D01*
X142892858Y-106284311D01*
X142833966Y-106504102D01*
X142833964Y-106504113D01*
X142814132Y-106730798D01*
X142814132Y-106730801D01*
X141509370Y-106730801D01*
X141561739Y-106618496D01*
X141620635Y-106398692D01*
X141640468Y-106172000D01*
X141620635Y-105945308D01*
X141563146Y-105730754D01*
X141561741Y-105725511D01*
X141561738Y-105725502D01*
X141465568Y-105519266D01*
X141335047Y-105332861D01*
X141335045Y-105332858D01*
X141174141Y-105171954D01*
X140987734Y-105041432D01*
X140987732Y-105041431D01*
X140781497Y-104945261D01*
X140781488Y-104945258D01*
X140561697Y-104886366D01*
X140561693Y-104886365D01*
X140561692Y-104886365D01*
X140561691Y-104886364D01*
X140561686Y-104886364D01*
X140335002Y-104866532D01*
X140334998Y-104866532D01*
X140108313Y-104886364D01*
X140108302Y-104886366D01*
X139888511Y-104945258D01*
X139888502Y-104945261D01*
X139682267Y-105041431D01*
X139682265Y-105041432D01*
X139495858Y-105171954D01*
X139334954Y-105332858D01*
X139204432Y-105519265D01*
X139204431Y-105519267D01*
X139108261Y-105725502D01*
X139108258Y-105725511D01*
X139049366Y-105945302D01*
X139049364Y-105945313D01*
X139029532Y-106171998D01*
X139029532Y-106172001D01*
X134980390Y-106172001D01*
X134985548Y-106154935D01*
X135036925Y-106110418D01*
X135094934Y-106083368D01*
X135281339Y-105952847D01*
X135442247Y-105791939D01*
X135572768Y-105605534D01*
X135668939Y-105399296D01*
X135727835Y-105179492D01*
X135747668Y-104952800D01*
X135747008Y-104945261D01*
X135741856Y-104886364D01*
X135727835Y-104726108D01*
X135668939Y-104506304D01*
X135572768Y-104300066D01*
X135442247Y-104113661D01*
X135442245Y-104113658D01*
X135281341Y-103952754D01*
X135094934Y-103822232D01*
X135094928Y-103822229D01*
X135036925Y-103795182D01*
X134984485Y-103749010D01*
X134965333Y-103681817D01*
X134985548Y-103614935D01*
X135036925Y-103570418D01*
X135094934Y-103543368D01*
X135281339Y-103412847D01*
X135442247Y-103251939D01*
X135478475Y-103200200D01*
X144497239Y-103200200D01*
X144517236Y-103416015D01*
X144517237Y-103416017D01*
X144576549Y-103624477D01*
X144576555Y-103624492D01*
X144627131Y-103726061D01*
X144673160Y-103818500D01*
X144803776Y-103991462D01*
X144963949Y-104137479D01*
X145148225Y-104251578D01*
X145350329Y-104329874D01*
X145563379Y-104369700D01*
X145563381Y-104369700D01*
X145780117Y-104369700D01*
X145780119Y-104369700D01*
X145993169Y-104329874D01*
X146195273Y-104251578D01*
X146379549Y-104137479D01*
X146539722Y-103991462D01*
X146670338Y-103818500D01*
X146766947Y-103624482D01*
X146826261Y-103416016D01*
X146846259Y-103200200D01*
X152437239Y-103200200D01*
X152457236Y-103416015D01*
X152457237Y-103416017D01*
X152516549Y-103624477D01*
X152516555Y-103624492D01*
X152567131Y-103726061D01*
X152613160Y-103818500D01*
X152743776Y-103991462D01*
X152903949Y-104137479D01*
X153088225Y-104251578D01*
X153290329Y-104329874D01*
X153503379Y-104369700D01*
X153503381Y-104369700D01*
X153720117Y-104369700D01*
X153720119Y-104369700D01*
X153933169Y-104329874D01*
X154135273Y-104251578D01*
X154319549Y-104137479D01*
X154479722Y-103991462D01*
X154610338Y-103818500D01*
X154706947Y-103624482D01*
X154766261Y-103416016D01*
X154786259Y-103200200D01*
X154766261Y-102984384D01*
X154706947Y-102775918D01*
X154610338Y-102581900D01*
X154597727Y-102565201D01*
X155666532Y-102565201D01*
X155686364Y-102791886D01*
X155686366Y-102791897D01*
X155745258Y-103011688D01*
X155745261Y-103011697D01*
X155841431Y-103217932D01*
X155841432Y-103217934D01*
X155971954Y-103404341D01*
X156132858Y-103565245D01*
X156132861Y-103565247D01*
X156319266Y-103695768D01*
X156525504Y-103791939D01*
X156745308Y-103850835D01*
X156907230Y-103865001D01*
X156971998Y-103870668D01*
X156972000Y-103870668D01*
X156972002Y-103870668D01*
X157028673Y-103865709D01*
X157198692Y-103850835D01*
X157418496Y-103791939D01*
X157624734Y-103695768D01*
X157811139Y-103565247D01*
X157972047Y-103404339D01*
X158102568Y-103217934D01*
X158198739Y-103011696D01*
X158257635Y-102791892D01*
X158277468Y-102565201D01*
X165826532Y-102565201D01*
X165846364Y-102791886D01*
X165846366Y-102791897D01*
X165905258Y-103011688D01*
X165905261Y-103011697D01*
X166001431Y-103217932D01*
X166001432Y-103217934D01*
X166131954Y-103404341D01*
X166292858Y-103565245D01*
X166292861Y-103565247D01*
X166479266Y-103695768D01*
X166685504Y-103791939D01*
X166905308Y-103850835D01*
X167067230Y-103865001D01*
X167131998Y-103870668D01*
X167132000Y-103870668D01*
X167132002Y-103870668D01*
X167188673Y-103865709D01*
X167358692Y-103850835D01*
X167578496Y-103791939D01*
X167784734Y-103695768D01*
X167971139Y-103565247D01*
X168132047Y-103404339D01*
X168262568Y-103217934D01*
X168358739Y-103011696D01*
X168417635Y-102791892D01*
X168437468Y-102565200D01*
X168417635Y-102338508D01*
X168358739Y-102118704D01*
X168262568Y-101912466D01*
X168132047Y-101726061D01*
X168132045Y-101726058D01*
X167971141Y-101565154D01*
X167784734Y-101434632D01*
X167784732Y-101434631D01*
X167578497Y-101338461D01*
X167578488Y-101338458D01*
X167358697Y-101279566D01*
X167358693Y-101279565D01*
X167358692Y-101279565D01*
X167358691Y-101279564D01*
X167358686Y-101279564D01*
X167132002Y-101259732D01*
X167131998Y-101259732D01*
X166905313Y-101279564D01*
X166905302Y-101279566D01*
X166685511Y-101338458D01*
X166685502Y-101338461D01*
X166479267Y-101434631D01*
X166479265Y-101434632D01*
X166292858Y-101565154D01*
X166131954Y-101726058D01*
X166001432Y-101912465D01*
X166001431Y-101912467D01*
X165905261Y-102118702D01*
X165905258Y-102118711D01*
X165846366Y-102338502D01*
X165846364Y-102338513D01*
X165826532Y-102565198D01*
X165826532Y-102565201D01*
X158277468Y-102565201D01*
X158277468Y-102565200D01*
X158257635Y-102338508D01*
X158198739Y-102118704D01*
X158102568Y-101912466D01*
X157972047Y-101726061D01*
X157972045Y-101726058D01*
X157811141Y-101565154D01*
X157624734Y-101434632D01*
X157624732Y-101434631D01*
X157418497Y-101338461D01*
X157418488Y-101338458D01*
X157198697Y-101279566D01*
X157198693Y-101279565D01*
X157198692Y-101279565D01*
X157198691Y-101279564D01*
X157198686Y-101279564D01*
X156972002Y-101259732D01*
X156971998Y-101259732D01*
X156745313Y-101279564D01*
X156745302Y-101279566D01*
X156525511Y-101338458D01*
X156525502Y-101338461D01*
X156319267Y-101434631D01*
X156319265Y-101434632D01*
X156132858Y-101565154D01*
X155971954Y-101726058D01*
X155841432Y-101912465D01*
X155841431Y-101912467D01*
X155745261Y-102118702D01*
X155745258Y-102118711D01*
X155686366Y-102338502D01*
X155686364Y-102338513D01*
X155666532Y-102565198D01*
X155666532Y-102565201D01*
X154597727Y-102565201D01*
X154479722Y-102408938D01*
X154402469Y-102338513D01*
X154319550Y-102262922D01*
X154319549Y-102262921D01*
X154195492Y-102186108D01*
X154135274Y-102148822D01*
X154135272Y-102148821D01*
X154057525Y-102118702D01*
X153933169Y-102070526D01*
X153834535Y-102052088D01*
X153772256Y-102020421D01*
X153736983Y-101960108D01*
X153739917Y-101890300D01*
X153780126Y-101833160D01*
X153834534Y-101808311D01*
X153933169Y-101789874D01*
X154135273Y-101711578D01*
X154319549Y-101597479D01*
X154479722Y-101451462D01*
X154610338Y-101278500D01*
X154706947Y-101084482D01*
X154766261Y-100876016D01*
X154786259Y-100660200D01*
X154766261Y-100444384D01*
X154706947Y-100235918D01*
X154610338Y-100041900D01*
X154479722Y-99868938D01*
X154319549Y-99722921D01*
X154195492Y-99646108D01*
X154135274Y-99608822D01*
X154135272Y-99608821D01*
X154065512Y-99581796D01*
X153933169Y-99530526D01*
X153834535Y-99512088D01*
X153772256Y-99480421D01*
X153736983Y-99420108D01*
X153739917Y-99350300D01*
X153780126Y-99293160D01*
X153834534Y-99268311D01*
X153933169Y-99249874D01*
X154135273Y-99171578D01*
X154319549Y-99057479D01*
X154479722Y-98911462D01*
X154610338Y-98738500D01*
X154706947Y-98544482D01*
X154766261Y-98336016D01*
X154786259Y-98120200D01*
X154776845Y-98018601D01*
X155753081Y-98018601D01*
X155772913Y-98245286D01*
X155772915Y-98245297D01*
X155831807Y-98465088D01*
X155831810Y-98465097D01*
X155927980Y-98671332D01*
X155927981Y-98671334D01*
X156058503Y-98857741D01*
X156219407Y-99018645D01*
X156219410Y-99018647D01*
X156405815Y-99149168D01*
X156612053Y-99245339D01*
X156831857Y-99304235D01*
X156993779Y-99318401D01*
X157058547Y-99324068D01*
X157058549Y-99324068D01*
X157058551Y-99324068D01*
X157115222Y-99319109D01*
X157285241Y-99304235D01*
X157505045Y-99245339D01*
X157711283Y-99149168D01*
X157897688Y-99018647D01*
X158058596Y-98857739D01*
X158189117Y-98671334D01*
X158285288Y-98465096D01*
X158344184Y-98245292D01*
X158364017Y-98018601D01*
X165913081Y-98018601D01*
X165932913Y-98245286D01*
X165932915Y-98245297D01*
X165991807Y-98465088D01*
X165991810Y-98465097D01*
X166087980Y-98671332D01*
X166087981Y-98671334D01*
X166218503Y-98857741D01*
X166379407Y-99018645D01*
X166379410Y-99018647D01*
X166565815Y-99149168D01*
X166772053Y-99245339D01*
X166991857Y-99304235D01*
X167153779Y-99318401D01*
X167218547Y-99324068D01*
X167218549Y-99324068D01*
X167218551Y-99324068D01*
X167275222Y-99319109D01*
X167445241Y-99304235D01*
X167665045Y-99245339D01*
X167871283Y-99149168D01*
X168057688Y-99018647D01*
X168218596Y-98857739D01*
X168349117Y-98671334D01*
X168445288Y-98465096D01*
X168504184Y-98245292D01*
X168524017Y-98018600D01*
X168504184Y-97791908D01*
X168445288Y-97572104D01*
X168349117Y-97365866D01*
X168218596Y-97179461D01*
X168218594Y-97179458D01*
X168057690Y-97018554D01*
X167871283Y-96888032D01*
X167871281Y-96888031D01*
X167665046Y-96791861D01*
X167665037Y-96791858D01*
X167445246Y-96732966D01*
X167445242Y-96732965D01*
X167445241Y-96732965D01*
X167445240Y-96732964D01*
X167445235Y-96732964D01*
X167218551Y-96713132D01*
X167218547Y-96713132D01*
X166991862Y-96732964D01*
X166991851Y-96732966D01*
X166772060Y-96791858D01*
X166772051Y-96791861D01*
X166565816Y-96888031D01*
X166565814Y-96888032D01*
X166379407Y-97018554D01*
X166218503Y-97179458D01*
X166087981Y-97365865D01*
X166087980Y-97365867D01*
X165991810Y-97572102D01*
X165991807Y-97572111D01*
X165932915Y-97791902D01*
X165932913Y-97791913D01*
X165913081Y-98018598D01*
X165913081Y-98018601D01*
X158364017Y-98018601D01*
X158364017Y-98018600D01*
X158344184Y-97791908D01*
X158285288Y-97572104D01*
X158189117Y-97365866D01*
X158058596Y-97179461D01*
X158058594Y-97179458D01*
X157897690Y-97018554D01*
X157711283Y-96888032D01*
X157711281Y-96888031D01*
X157505046Y-96791861D01*
X157505037Y-96791858D01*
X157285246Y-96732966D01*
X157285242Y-96732965D01*
X157285241Y-96732965D01*
X157285240Y-96732964D01*
X157285235Y-96732964D01*
X157058551Y-96713132D01*
X157058547Y-96713132D01*
X156831862Y-96732964D01*
X156831851Y-96732966D01*
X156612060Y-96791858D01*
X156612051Y-96791861D01*
X156405816Y-96888031D01*
X156405814Y-96888032D01*
X156219407Y-97018554D01*
X156058503Y-97179458D01*
X155927981Y-97365865D01*
X155927980Y-97365867D01*
X155831810Y-97572102D01*
X155831807Y-97572111D01*
X155772915Y-97791902D01*
X155772913Y-97791913D01*
X155753081Y-98018598D01*
X155753081Y-98018601D01*
X154776845Y-98018601D01*
X154766261Y-97904384D01*
X154706947Y-97695918D01*
X154610338Y-97501900D01*
X154479722Y-97328938D01*
X154319549Y-97182921D01*
X154195492Y-97106108D01*
X154135274Y-97068822D01*
X154135272Y-97068821D01*
X154065512Y-97041796D01*
X153933169Y-96990526D01*
X153834535Y-96972088D01*
X153772256Y-96940421D01*
X153736983Y-96880108D01*
X153739917Y-96810300D01*
X153780126Y-96753160D01*
X153834534Y-96728311D01*
X153933169Y-96709874D01*
X154135273Y-96631578D01*
X154319549Y-96517479D01*
X154479722Y-96371462D01*
X154610338Y-96198500D01*
X154706947Y-96004482D01*
X154766261Y-95796016D01*
X154786259Y-95580200D01*
X154766261Y-95364384D01*
X154706947Y-95155918D01*
X154610338Y-94961900D01*
X154479722Y-94788938D01*
X154319549Y-94642921D01*
X154195492Y-94566108D01*
X154135274Y-94528822D01*
X154135272Y-94528821D01*
X154065512Y-94501796D01*
X153933169Y-94450526D01*
X153720119Y-94410700D01*
X153503379Y-94410700D01*
X153290329Y-94450526D01*
X153246762Y-94467404D01*
X153088225Y-94528821D01*
X153088223Y-94528822D01*
X152903947Y-94642922D01*
X152743777Y-94788936D01*
X152613160Y-94961899D01*
X152516555Y-95155907D01*
X152516549Y-95155922D01*
X152457237Y-95364382D01*
X152457236Y-95364384D01*
X152437239Y-95580199D01*
X152437239Y-95580200D01*
X152457236Y-95796015D01*
X152457237Y-95796017D01*
X152516549Y-96004477D01*
X152516555Y-96004492D01*
X152567131Y-96106061D01*
X152613160Y-96198500D01*
X152743776Y-96371462D01*
X152903949Y-96517479D01*
X153088225Y-96631578D01*
X153290329Y-96709874D01*
X153388961Y-96728311D01*
X153451241Y-96759979D01*
X153486514Y-96820292D01*
X153483580Y-96890100D01*
X153443371Y-96947240D01*
X153388961Y-96972088D01*
X153290329Y-96990526D01*
X153233896Y-97012388D01*
X153088225Y-97068821D01*
X153088223Y-97068822D01*
X152903947Y-97182922D01*
X152743777Y-97328936D01*
X152613160Y-97501899D01*
X152516555Y-97695907D01*
X152516549Y-97695922D01*
X152457237Y-97904382D01*
X152457236Y-97904384D01*
X152437239Y-98120199D01*
X152437239Y-98120200D01*
X152457236Y-98336015D01*
X152457237Y-98336017D01*
X152516549Y-98544477D01*
X152516555Y-98544492D01*
X152567131Y-98646061D01*
X152613160Y-98738500D01*
X152743776Y-98911462D01*
X152903949Y-99057479D01*
X153088225Y-99171578D01*
X153290329Y-99249874D01*
X153388961Y-99268311D01*
X153451241Y-99299979D01*
X153486514Y-99360292D01*
X153483580Y-99430100D01*
X153443371Y-99487240D01*
X153388961Y-99512088D01*
X153290329Y-99530526D01*
X153233896Y-99552388D01*
X153088225Y-99608821D01*
X153088223Y-99608822D01*
X152903947Y-99722922D01*
X152743777Y-99868936D01*
X152613160Y-100041899D01*
X152516555Y-100235907D01*
X152516549Y-100235922D01*
X152457237Y-100444382D01*
X152457236Y-100444384D01*
X152437239Y-100660199D01*
X152437239Y-100660200D01*
X152457236Y-100876015D01*
X152457237Y-100876017D01*
X152516549Y-101084477D01*
X152516555Y-101084492D01*
X152567131Y-101186061D01*
X152613160Y-101278500D01*
X152743776Y-101451462D01*
X152903949Y-101597479D01*
X152979991Y-101644562D01*
X153087499Y-101711129D01*
X153088225Y-101711578D01*
X153290329Y-101789874D01*
X153388961Y-101808311D01*
X153451241Y-101839979D01*
X153486514Y-101900292D01*
X153483580Y-101970100D01*
X153443371Y-102027240D01*
X153388961Y-102052088D01*
X153290329Y-102070526D01*
X153233896Y-102092388D01*
X153088225Y-102148821D01*
X153088223Y-102148822D01*
X152903947Y-102262922D01*
X152743777Y-102408936D01*
X152613160Y-102581899D01*
X152516555Y-102775907D01*
X152516549Y-102775922D01*
X152457237Y-102984382D01*
X152457236Y-102984384D01*
X152437239Y-103200199D01*
X152437239Y-103200200D01*
X146846259Y-103200200D01*
X146826261Y-102984384D01*
X146766947Y-102775918D01*
X146670338Y-102581900D01*
X146539722Y-102408938D01*
X146462469Y-102338513D01*
X146379550Y-102262922D01*
X146379549Y-102262921D01*
X146255492Y-102186108D01*
X146195274Y-102148822D01*
X146195272Y-102148821D01*
X146106034Y-102114250D01*
X145993169Y-102070526D01*
X145893174Y-102051833D01*
X145830895Y-102020165D01*
X145795622Y-101959853D01*
X145798556Y-101890045D01*
X145838765Y-101832905D01*
X145893177Y-101808056D01*
X145993028Y-101789391D01*
X145993030Y-101789390D01*
X146195048Y-101711129D01*
X146195049Y-101711128D01*
X146302558Y-101644561D01*
X145731757Y-101073760D01*
X145831933Y-101046918D01*
X145926565Y-100992283D01*
X146003832Y-100915016D01*
X146058467Y-100820384D01*
X146085309Y-100720208D01*
X146658475Y-101293374D01*
X146658477Y-101293374D01*
X146669910Y-101278236D01*
X146766477Y-101084304D01*
X146825767Y-100875918D01*
X146845757Y-100660200D01*
X146845757Y-100660199D01*
X146825767Y-100444481D01*
X146766477Y-100236095D01*
X146669911Y-100042166D01*
X146669910Y-100042163D01*
X146658475Y-100027023D01*
X146085309Y-100600191D01*
X146058467Y-100500016D01*
X146003832Y-100405384D01*
X145926565Y-100328117D01*
X145831933Y-100273482D01*
X145731757Y-100246639D01*
X146302558Y-99675837D01*
X146302557Y-99675836D01*
X146195052Y-99609273D01*
X146195046Y-99609270D01*
X145993029Y-99531009D01*
X145893176Y-99512343D01*
X145830895Y-99480675D01*
X145795622Y-99420362D01*
X145798556Y-99350554D01*
X145838765Y-99293414D01*
X145893172Y-99268566D01*
X145993169Y-99249874D01*
X146195273Y-99171578D01*
X146379549Y-99057479D01*
X146539722Y-98911462D01*
X146670338Y-98738500D01*
X146766947Y-98544482D01*
X146826261Y-98336016D01*
X146846259Y-98120200D01*
X146826261Y-97904384D01*
X146766947Y-97695918D01*
X146670338Y-97501900D01*
X146539722Y-97328938D01*
X146379549Y-97182921D01*
X146255492Y-97106108D01*
X146195274Y-97068822D01*
X146195272Y-97068821D01*
X146115028Y-97037734D01*
X145993169Y-96990526D01*
X145993164Y-96990525D01*
X145990069Y-96989326D01*
X145934668Y-96946753D01*
X145911077Y-96880986D01*
X145926788Y-96812906D01*
X145976812Y-96764127D01*
X146034862Y-96749699D01*
X146388621Y-96749699D01*
X146448232Y-96743291D01*
X146583080Y-96692996D01*
X146698295Y-96606746D01*
X146784545Y-96491531D01*
X146834840Y-96356683D01*
X146841249Y-96297073D01*
X146841248Y-94863328D01*
X146834840Y-94803717D01*
X146830768Y-94792800D01*
X146784546Y-94668871D01*
X146784542Y-94668864D01*
X146698296Y-94553655D01*
X146698293Y-94553652D01*
X146583084Y-94467406D01*
X146583077Y-94467402D01*
X146448231Y-94417108D01*
X146448232Y-94417108D01*
X146388632Y-94410701D01*
X146388630Y-94410700D01*
X146388622Y-94410700D01*
X146388613Y-94410700D01*
X144954878Y-94410700D01*
X144954872Y-94410701D01*
X144895265Y-94417108D01*
X144760420Y-94467402D01*
X144760413Y-94467406D01*
X144645204Y-94553652D01*
X144645201Y-94553655D01*
X144558955Y-94668864D01*
X144558951Y-94668871D01*
X144508657Y-94803717D01*
X144502250Y-94863316D01*
X144502250Y-94863323D01*
X144502249Y-94863335D01*
X144502249Y-96297070D01*
X144502250Y-96297076D01*
X144508657Y-96356683D01*
X144558951Y-96491528D01*
X144558955Y-96491535D01*
X144645201Y-96606744D01*
X144645204Y-96606747D01*
X144760413Y-96692993D01*
X144760420Y-96692997D01*
X144895266Y-96743291D01*
X144895265Y-96743291D01*
X144902193Y-96744035D01*
X144954876Y-96749700D01*
X145308635Y-96749699D01*
X145375672Y-96769383D01*
X145421427Y-96822187D01*
X145431371Y-96891346D01*
X145402346Y-96954901D01*
X145353427Y-96989326D01*
X145148225Y-97068821D01*
X145148223Y-97068822D01*
X144963947Y-97182922D01*
X144803777Y-97328936D01*
X144673160Y-97501899D01*
X144576555Y-97695907D01*
X144576549Y-97695922D01*
X144517237Y-97904382D01*
X144517236Y-97904384D01*
X144497239Y-98120199D01*
X144497239Y-98120200D01*
X144517236Y-98336015D01*
X144517237Y-98336017D01*
X144576549Y-98544477D01*
X144576555Y-98544492D01*
X144627131Y-98646061D01*
X144673160Y-98738500D01*
X144803776Y-98911462D01*
X144963949Y-99057479D01*
X145148225Y-99171578D01*
X145350329Y-99249874D01*
X145450323Y-99268566D01*
X145512602Y-99300233D01*
X145547875Y-99360545D01*
X145544941Y-99430353D01*
X145504732Y-99487494D01*
X145450322Y-99512343D01*
X145350467Y-99531009D01*
X145148451Y-99609270D01*
X145148448Y-99609271D01*
X145040938Y-99675836D01*
X145040938Y-99675837D01*
X145611741Y-100246639D01*
X145511565Y-100273482D01*
X145416933Y-100328117D01*
X145339666Y-100405384D01*
X145285031Y-100500016D01*
X145258188Y-100600191D01*
X144685020Y-100027023D01*
X144673591Y-100042157D01*
X144673583Y-100042170D01*
X144577020Y-100236095D01*
X144517730Y-100444481D01*
X144497741Y-100660199D01*
X144497741Y-100660200D01*
X144517730Y-100875918D01*
X144577020Y-101084304D01*
X144673585Y-101278233D01*
X144673587Y-101278236D01*
X144685019Y-101293374D01*
X145258188Y-100720207D01*
X145285031Y-100820384D01*
X145339666Y-100915016D01*
X145416933Y-100992283D01*
X145511565Y-101046918D01*
X145611741Y-101073760D01*
X145040938Y-101644561D01*
X145040939Y-101644562D01*
X145148445Y-101711127D01*
X145148451Y-101711129D01*
X145350467Y-101789390D01*
X145350469Y-101789391D01*
X145450320Y-101808056D01*
X145512601Y-101839724D01*
X145547875Y-101900036D01*
X145544942Y-101969844D01*
X145504733Y-102026984D01*
X145450322Y-102051833D01*
X145350340Y-102070523D01*
X145350331Y-102070525D01*
X145350329Y-102070526D01*
X145293896Y-102092388D01*
X145148225Y-102148821D01*
X145148223Y-102148822D01*
X144963947Y-102262922D01*
X144803777Y-102408936D01*
X144673160Y-102581899D01*
X144576555Y-102775907D01*
X144576549Y-102775922D01*
X144517237Y-102984382D01*
X144517236Y-102984384D01*
X144497239Y-103200199D01*
X144497239Y-103200200D01*
X135478475Y-103200200D01*
X135572768Y-103065534D01*
X135668939Y-102859296D01*
X135727835Y-102639492D01*
X135747668Y-102412800D01*
X135727835Y-102186108D01*
X135668939Y-101966304D01*
X135572768Y-101760066D01*
X135442247Y-101573661D01*
X135442245Y-101573658D01*
X135281341Y-101412754D01*
X135094934Y-101282232D01*
X135094928Y-101282229D01*
X135036925Y-101255182D01*
X134984485Y-101209010D01*
X134965333Y-101141817D01*
X134985548Y-101074935D01*
X135036925Y-101030418D01*
X135094934Y-101003368D01*
X135281339Y-100872847D01*
X135442247Y-100711939D01*
X135572768Y-100525534D01*
X135668939Y-100319296D01*
X135727835Y-100099492D01*
X135747668Y-99872800D01*
X135727835Y-99646108D01*
X135668939Y-99426304D01*
X135572768Y-99220066D01*
X135442247Y-99033661D01*
X135442245Y-99033658D01*
X135281341Y-98872754D01*
X135094934Y-98742232D01*
X135094928Y-98742229D01*
X135036925Y-98715182D01*
X134984485Y-98669010D01*
X134965333Y-98601817D01*
X134985548Y-98534935D01*
X135036925Y-98490418D01*
X135094934Y-98463368D01*
X135281339Y-98332847D01*
X135442247Y-98171939D01*
X135572768Y-97985534D01*
X135668939Y-97779296D01*
X135727835Y-97559492D01*
X135747668Y-97332800D01*
X135727835Y-97106108D01*
X135668939Y-96886304D01*
X135572768Y-96680066D01*
X135442247Y-96493661D01*
X135442245Y-96493658D01*
X135281341Y-96332754D01*
X135094934Y-96202232D01*
X135094928Y-96202229D01*
X135036925Y-96175182D01*
X134984485Y-96129010D01*
X134965333Y-96061817D01*
X134985548Y-95994935D01*
X135036925Y-95950418D01*
X135094934Y-95923368D01*
X135281339Y-95792847D01*
X135442247Y-95631939D01*
X135572768Y-95445534D01*
X135668939Y-95239296D01*
X135727835Y-95019492D01*
X135747668Y-94792800D01*
X135727835Y-94566108D01*
X135668939Y-94346304D01*
X135572768Y-94140066D01*
X135442247Y-93953661D01*
X135442245Y-93953658D01*
X135281341Y-93792754D01*
X135094934Y-93662232D01*
X135094928Y-93662229D01*
X135036925Y-93635182D01*
X134984485Y-93589010D01*
X134965333Y-93521817D01*
X134985548Y-93454935D01*
X135036925Y-93410418D01*
X135094934Y-93383368D01*
X135281339Y-93252847D01*
X135442247Y-93091939D01*
X135572768Y-92905534D01*
X135668939Y-92699296D01*
X135727835Y-92479492D01*
X135747668Y-92252800D01*
X135727835Y-92026108D01*
X135672698Y-91820334D01*
X135672695Y-91820321D01*
X162021500Y-91820321D01*
X162021501Y-91820327D01*
X162027908Y-91879934D01*
X162078202Y-92014779D01*
X162078206Y-92014786D01*
X162164452Y-92129995D01*
X162164455Y-92129998D01*
X162279664Y-92216244D01*
X162279671Y-92216248D01*
X162414517Y-92266542D01*
X162414516Y-92266542D01*
X162421444Y-92267286D01*
X162474127Y-92272951D01*
X164169872Y-92272950D01*
X164229483Y-92266542D01*
X164364331Y-92216247D01*
X164479546Y-92129997D01*
X164565796Y-92014782D01*
X164616091Y-91879934D01*
X164622500Y-91820324D01*
X164622499Y-90124579D01*
X164617299Y-90076208D01*
X164616091Y-90064967D01*
X164565797Y-89930122D01*
X164565793Y-89930115D01*
X164479547Y-89814906D01*
X164479544Y-89814903D01*
X164364335Y-89728657D01*
X164364328Y-89728653D01*
X164229482Y-89678359D01*
X164229483Y-89678359D01*
X164169883Y-89671952D01*
X164169881Y-89671951D01*
X164169873Y-89671951D01*
X164169864Y-89671951D01*
X162474129Y-89671951D01*
X162474123Y-89671952D01*
X162414516Y-89678359D01*
X162279671Y-89728653D01*
X162279664Y-89728657D01*
X162164455Y-89814903D01*
X162164452Y-89814906D01*
X162078206Y-89930115D01*
X162078202Y-89930122D01*
X162027908Y-90064968D01*
X162021501Y-90124567D01*
X162021501Y-90124574D01*
X162021500Y-90124586D01*
X162021500Y-91820321D01*
X135672695Y-91820321D01*
X135668941Y-91806311D01*
X135668938Y-91806302D01*
X135572768Y-91600067D01*
X135572767Y-91600065D01*
X135546811Y-91562996D01*
X135442247Y-91413661D01*
X135442245Y-91413658D01*
X135281341Y-91252754D01*
X135094934Y-91122232D01*
X135094928Y-91122229D01*
X135036925Y-91095182D01*
X134984485Y-91049010D01*
X134965333Y-90981817D01*
X134985548Y-90914935D01*
X135036925Y-90870418D01*
X135094934Y-90843368D01*
X135281339Y-90712847D01*
X135442247Y-90551939D01*
X135572768Y-90365534D01*
X135668939Y-90159296D01*
X135727835Y-89939492D01*
X135747668Y-89712800D01*
X135727835Y-89486108D01*
X135668939Y-89266304D01*
X135572768Y-89060066D01*
X135549617Y-89027002D01*
X145815634Y-89027002D01*
X145835458Y-89253599D01*
X145835460Y-89253610D01*
X145894330Y-89473317D01*
X145894335Y-89473331D01*
X145990463Y-89679478D01*
X146041574Y-89752472D01*
X146720600Y-89073446D01*
X146720600Y-89079661D01*
X146747859Y-89181394D01*
X146800520Y-89272606D01*
X146874994Y-89347080D01*
X146966206Y-89399741D01*
X147067939Y-89427000D01*
X147074153Y-89427000D01*
X146395126Y-90106025D01*
X146468113Y-90157132D01*
X146468121Y-90157136D01*
X146674268Y-90253264D01*
X146674282Y-90253269D01*
X146893989Y-90312139D01*
X146894000Y-90312141D01*
X147120598Y-90331966D01*
X147120602Y-90331966D01*
X147347199Y-90312141D01*
X147347210Y-90312139D01*
X147566917Y-90253269D01*
X147566931Y-90253264D01*
X147773078Y-90157136D01*
X147846071Y-90106024D01*
X147614917Y-89874870D01*
X150820100Y-89874870D01*
X150820101Y-89874876D01*
X150826508Y-89934483D01*
X150876802Y-90069328D01*
X150876806Y-90069335D01*
X150963052Y-90184544D01*
X150963055Y-90184547D01*
X151078264Y-90270793D01*
X151078271Y-90270797D01*
X151213117Y-90321091D01*
X151213116Y-90321091D01*
X151220044Y-90321835D01*
X151272727Y-90327500D01*
X152968472Y-90327499D01*
X153028083Y-90321091D01*
X153162931Y-90270796D01*
X153278146Y-90184546D01*
X153364396Y-90069331D01*
X153414691Y-89934483D01*
X153421100Y-89874873D01*
X153421099Y-88179128D01*
X153414691Y-88119517D01*
X153412172Y-88112764D01*
X153364397Y-87984671D01*
X153364393Y-87984664D01*
X153278147Y-87869455D01*
X153278144Y-87869452D01*
X153162935Y-87783206D01*
X153162928Y-87783202D01*
X153028082Y-87732908D01*
X153028083Y-87732908D01*
X152968483Y-87726501D01*
X152968481Y-87726500D01*
X152968473Y-87726500D01*
X152968464Y-87726500D01*
X151272729Y-87726500D01*
X151272723Y-87726501D01*
X151213116Y-87732908D01*
X151078271Y-87783202D01*
X151078264Y-87783206D01*
X150963055Y-87869452D01*
X150963052Y-87869455D01*
X150876806Y-87984664D01*
X150876802Y-87984671D01*
X150826508Y-88119517D01*
X150822793Y-88154075D01*
X150820101Y-88179123D01*
X150820100Y-88179135D01*
X150820100Y-89874870D01*
X147614917Y-89874870D01*
X147167047Y-89427000D01*
X147173261Y-89427000D01*
X147274994Y-89399741D01*
X147366206Y-89347080D01*
X147440680Y-89272606D01*
X147493341Y-89181394D01*
X147520600Y-89079661D01*
X147520600Y-89073447D01*
X148199624Y-89752471D01*
X148250736Y-89679478D01*
X148346864Y-89473331D01*
X148346869Y-89473317D01*
X148405739Y-89253610D01*
X148405741Y-89253599D01*
X148425566Y-89027002D01*
X148425566Y-89026997D01*
X148405741Y-88800400D01*
X148405739Y-88800389D01*
X148346869Y-88580682D01*
X148346864Y-88580668D01*
X148250736Y-88374521D01*
X148250732Y-88374513D01*
X148199625Y-88301526D01*
X147520600Y-88980551D01*
X147520600Y-88974339D01*
X147493341Y-88872606D01*
X147440680Y-88781394D01*
X147366206Y-88706920D01*
X147274994Y-88654259D01*
X147173261Y-88627000D01*
X147167048Y-88627000D01*
X147846072Y-87947974D01*
X147773078Y-87896863D01*
X147566931Y-87800735D01*
X147566917Y-87800730D01*
X147347210Y-87741860D01*
X147347199Y-87741858D01*
X147120602Y-87722034D01*
X147120598Y-87722034D01*
X146894000Y-87741858D01*
X146893989Y-87741860D01*
X146674282Y-87800730D01*
X146674273Y-87800734D01*
X146468116Y-87896866D01*
X146468112Y-87896868D01*
X146395126Y-87947973D01*
X146395126Y-87947974D01*
X147074153Y-88627000D01*
X147067939Y-88627000D01*
X146966206Y-88654259D01*
X146874994Y-88706920D01*
X146800520Y-88781394D01*
X146747859Y-88872606D01*
X146720600Y-88974339D01*
X146720600Y-88980552D01*
X146041574Y-88301526D01*
X146041573Y-88301526D01*
X145990468Y-88374512D01*
X145990466Y-88374516D01*
X145894334Y-88580673D01*
X145894330Y-88580682D01*
X145835460Y-88800389D01*
X145835458Y-88800400D01*
X145815634Y-89026997D01*
X145815634Y-89027002D01*
X135549617Y-89027002D01*
X135442247Y-88873661D01*
X135442245Y-88873658D01*
X135281341Y-88712754D01*
X135094934Y-88582232D01*
X135094928Y-88582229D01*
X135036925Y-88555182D01*
X134984485Y-88509010D01*
X134965333Y-88441817D01*
X134985548Y-88374935D01*
X135036925Y-88330418D01*
X135037519Y-88330141D01*
X135094934Y-88303368D01*
X135248665Y-88195724D01*
X135314871Y-88173398D01*
X135319788Y-88173300D01*
X136025742Y-88173300D01*
X136045070Y-88169455D01*
X136122388Y-88154075D01*
X136219036Y-88134851D01*
X136272365Y-88112761D01*
X136401114Y-88059432D01*
X136564982Y-87949939D01*
X136704339Y-87810582D01*
X136704339Y-87810580D01*
X136714547Y-87800373D01*
X136714548Y-87800370D01*
X137577140Y-86937781D01*
X137686632Y-86773914D01*
X137762052Y-86591835D01*
X137800501Y-86398540D01*
X137800501Y-86201459D01*
X137800501Y-86196349D01*
X137800500Y-86196323D01*
X137800500Y-85972453D01*
X162017034Y-85972453D01*
X162036858Y-86199050D01*
X162036860Y-86199061D01*
X162095730Y-86418768D01*
X162095735Y-86418782D01*
X162191863Y-86624929D01*
X162242974Y-86697923D01*
X162922000Y-86018897D01*
X162922000Y-86025112D01*
X162949259Y-86126845D01*
X163001920Y-86218057D01*
X163076394Y-86292531D01*
X163167606Y-86345192D01*
X163269339Y-86372451D01*
X163275553Y-86372451D01*
X162596526Y-87051476D01*
X162669513Y-87102583D01*
X162669521Y-87102587D01*
X162875668Y-87198715D01*
X162875682Y-87198720D01*
X163095389Y-87257590D01*
X163095400Y-87257592D01*
X163321998Y-87277417D01*
X163322002Y-87277417D01*
X163548599Y-87257592D01*
X163548610Y-87257590D01*
X163768317Y-87198720D01*
X163768331Y-87198715D01*
X163974478Y-87102587D01*
X164047471Y-87051475D01*
X163368447Y-86372451D01*
X163374661Y-86372451D01*
X163476394Y-86345192D01*
X163567606Y-86292531D01*
X163642080Y-86218057D01*
X163694741Y-86126845D01*
X163722000Y-86025112D01*
X163722000Y-86018898D01*
X164401024Y-86697922D01*
X164452136Y-86624929D01*
X164548264Y-86418782D01*
X164548269Y-86418768D01*
X164607139Y-86199061D01*
X164607141Y-86199050D01*
X164626966Y-85972453D01*
X164626966Y-85972448D01*
X164607141Y-85745851D01*
X164607139Y-85745840D01*
X164548269Y-85526133D01*
X164548264Y-85526119D01*
X164452136Y-85319972D01*
X164452132Y-85319964D01*
X164401025Y-85246977D01*
X163722000Y-85926002D01*
X163722000Y-85919790D01*
X163694741Y-85818057D01*
X163642080Y-85726845D01*
X163567606Y-85652371D01*
X163476394Y-85599710D01*
X163374661Y-85572451D01*
X163368448Y-85572451D01*
X164047472Y-84893425D01*
X163974478Y-84842314D01*
X163768331Y-84746186D01*
X163768317Y-84746181D01*
X163548610Y-84687311D01*
X163548599Y-84687309D01*
X163322002Y-84667485D01*
X163321998Y-84667485D01*
X163095400Y-84687309D01*
X163095389Y-84687311D01*
X162875682Y-84746181D01*
X162875673Y-84746185D01*
X162669516Y-84842317D01*
X162669512Y-84842319D01*
X162596526Y-84893424D01*
X162596526Y-84893425D01*
X163275553Y-85572451D01*
X163269339Y-85572451D01*
X163167606Y-85599710D01*
X163076394Y-85652371D01*
X163001920Y-85726845D01*
X162949259Y-85818057D01*
X162922000Y-85919790D01*
X162922000Y-85926003D01*
X162242974Y-85246977D01*
X162242973Y-85246977D01*
X162191868Y-85319963D01*
X162191866Y-85319967D01*
X162095734Y-85526124D01*
X162095730Y-85526133D01*
X162036860Y-85745840D01*
X162036858Y-85745851D01*
X162017034Y-85972448D01*
X162017034Y-85972453D01*
X137800500Y-85972453D01*
X137800500Y-81483200D01*
X144192439Y-81483200D01*
X144212436Y-81699015D01*
X144212437Y-81699017D01*
X144271749Y-81907477D01*
X144271755Y-81907492D01*
X144368360Y-82101500D01*
X144498977Y-82274463D01*
X144511456Y-82285839D01*
X144659149Y-82420479D01*
X144843425Y-82534578D01*
X145045529Y-82612874D01*
X145258579Y-82652700D01*
X145258581Y-82652700D01*
X145475317Y-82652700D01*
X145475319Y-82652700D01*
X145688369Y-82612874D01*
X145890473Y-82534578D01*
X146074749Y-82420479D01*
X146234922Y-82274462D01*
X146365538Y-82101500D01*
X146462147Y-81907482D01*
X146521461Y-81699016D01*
X146541459Y-81483200D01*
X152132439Y-81483200D01*
X152152436Y-81699015D01*
X152152437Y-81699017D01*
X152211749Y-81907477D01*
X152211755Y-81907492D01*
X152308360Y-82101500D01*
X152438977Y-82274463D01*
X152451456Y-82285839D01*
X152599149Y-82420479D01*
X152783425Y-82534578D01*
X152985529Y-82612874D01*
X153198579Y-82652700D01*
X153198581Y-82652700D01*
X153415317Y-82652700D01*
X153415319Y-82652700D01*
X153628369Y-82612874D01*
X153830473Y-82534578D01*
X154014749Y-82420479D01*
X154174922Y-82274462D01*
X154305538Y-82101500D01*
X154402147Y-81907482D01*
X154461461Y-81699016D01*
X154481459Y-81483200D01*
X154461461Y-81267384D01*
X154402147Y-81058918D01*
X154305538Y-80864900D01*
X154174922Y-80691938D01*
X154165523Y-80683370D01*
X154014750Y-80545922D01*
X154014749Y-80545921D01*
X153944573Y-80502469D01*
X153830474Y-80431822D01*
X153830472Y-80431821D01*
X153750076Y-80400676D01*
X153628369Y-80353526D01*
X153529735Y-80335088D01*
X153467456Y-80303421D01*
X153432183Y-80243108D01*
X153435117Y-80173300D01*
X153475326Y-80116160D01*
X153529734Y-80091311D01*
X153628369Y-80072874D01*
X153830473Y-79994578D01*
X154014749Y-79880479D01*
X154174922Y-79734462D01*
X154305538Y-79561500D01*
X154402147Y-79367482D01*
X154461461Y-79159016D01*
X154481459Y-78943200D01*
X154479708Y-78924308D01*
X154461461Y-78727384D01*
X154461460Y-78727382D01*
X154457555Y-78713658D01*
X154402147Y-78518918D01*
X154397937Y-78510464D01*
X154340569Y-78395252D01*
X154305538Y-78324900D01*
X154174922Y-78151938D01*
X154014749Y-78005921D01*
X153884529Y-77925292D01*
X153830474Y-77891822D01*
X153830472Y-77891821D01*
X153760712Y-77864796D01*
X153628369Y-77813526D01*
X153529735Y-77795088D01*
X153467456Y-77763421D01*
X153432183Y-77703108D01*
X153432372Y-77698601D01*
X156007081Y-77698601D01*
X156026913Y-77925286D01*
X156026915Y-77925297D01*
X156085807Y-78145088D01*
X156085810Y-78145097D01*
X156181980Y-78351332D01*
X156181981Y-78351334D01*
X156312503Y-78537741D01*
X156473407Y-78698645D01*
X156473410Y-78698647D01*
X156659815Y-78829168D01*
X156866053Y-78925339D01*
X156866058Y-78925340D01*
X156866060Y-78925341D01*
X156918964Y-78939516D01*
X157085857Y-78984235D01*
X157241317Y-78997836D01*
X157312547Y-79004068D01*
X157312549Y-79004068D01*
X157312551Y-79004068D01*
X157383781Y-78997836D01*
X157539241Y-78984235D01*
X157759045Y-78925339D01*
X157965283Y-78829168D01*
X158151688Y-78698647D01*
X158312596Y-78537739D01*
X158443117Y-78351334D01*
X158539288Y-78145096D01*
X158598184Y-77925292D01*
X158618017Y-77698601D01*
X166167081Y-77698601D01*
X166186913Y-77925286D01*
X166186915Y-77925297D01*
X166245807Y-78145088D01*
X166245810Y-78145097D01*
X166341980Y-78351332D01*
X166341981Y-78351334D01*
X166472503Y-78537741D01*
X166633407Y-78698645D01*
X166633410Y-78698647D01*
X166819815Y-78829168D01*
X167026053Y-78925339D01*
X167026058Y-78925340D01*
X167026060Y-78925341D01*
X167078964Y-78939516D01*
X167245857Y-78984235D01*
X167401317Y-78997836D01*
X167472547Y-79004068D01*
X167472549Y-79004068D01*
X167472551Y-79004068D01*
X167543781Y-78997836D01*
X167699241Y-78984235D01*
X167919045Y-78925339D01*
X168125283Y-78829168D01*
X168311688Y-78698647D01*
X168472596Y-78537739D01*
X168603117Y-78351334D01*
X168699288Y-78145096D01*
X168758184Y-77925292D01*
X168778017Y-77698600D01*
X168758184Y-77471908D01*
X168699288Y-77252104D01*
X168603117Y-77045866D01*
X168472596Y-76859461D01*
X168472594Y-76859458D01*
X168311690Y-76698554D01*
X168125283Y-76568032D01*
X168125281Y-76568031D01*
X167919046Y-76471861D01*
X167919037Y-76471858D01*
X167699246Y-76412966D01*
X167699242Y-76412965D01*
X167699241Y-76412965D01*
X167699240Y-76412964D01*
X167699235Y-76412964D01*
X167472551Y-76393132D01*
X167472547Y-76393132D01*
X167245862Y-76412964D01*
X167245851Y-76412966D01*
X167026060Y-76471858D01*
X167026051Y-76471861D01*
X166819816Y-76568031D01*
X166819814Y-76568032D01*
X166633407Y-76698554D01*
X166472503Y-76859458D01*
X166341981Y-77045865D01*
X166341980Y-77045867D01*
X166245810Y-77252102D01*
X166245807Y-77252111D01*
X166186915Y-77471902D01*
X166186913Y-77471913D01*
X166167081Y-77698598D01*
X166167081Y-77698601D01*
X158618017Y-77698601D01*
X158618017Y-77698600D01*
X158598184Y-77471908D01*
X158539288Y-77252104D01*
X158443117Y-77045866D01*
X158312596Y-76859461D01*
X158312594Y-76859458D01*
X158151690Y-76698554D01*
X157965283Y-76568032D01*
X157965281Y-76568031D01*
X157759046Y-76471861D01*
X157759037Y-76471858D01*
X157539246Y-76412966D01*
X157539242Y-76412965D01*
X157539241Y-76412965D01*
X157539240Y-76412964D01*
X157539235Y-76412964D01*
X157312551Y-76393132D01*
X157312547Y-76393132D01*
X157085862Y-76412964D01*
X157085851Y-76412966D01*
X156866060Y-76471858D01*
X156866051Y-76471861D01*
X156659816Y-76568031D01*
X156659814Y-76568032D01*
X156473407Y-76698554D01*
X156312503Y-76859458D01*
X156181981Y-77045865D01*
X156181980Y-77045867D01*
X156085810Y-77252102D01*
X156085807Y-77252111D01*
X156026915Y-77471902D01*
X156026913Y-77471913D01*
X156007081Y-77698598D01*
X156007081Y-77698601D01*
X153432372Y-77698601D01*
X153435117Y-77633300D01*
X153475326Y-77576160D01*
X153529734Y-77551311D01*
X153628369Y-77532874D01*
X153830473Y-77454578D01*
X154014749Y-77340479D01*
X154174922Y-77194462D01*
X154305538Y-77021500D01*
X154402147Y-76827482D01*
X154461461Y-76619016D01*
X154481459Y-76403200D01*
X154461461Y-76187384D01*
X154402147Y-75978918D01*
X154305538Y-75784900D01*
X154174922Y-75611938D01*
X154014749Y-75465921D01*
X153944573Y-75422469D01*
X153830474Y-75351822D01*
X153830472Y-75351821D01*
X153760712Y-75324796D01*
X153628369Y-75273526D01*
X153529735Y-75255088D01*
X153467456Y-75223421D01*
X153432183Y-75163108D01*
X153435117Y-75093300D01*
X153475326Y-75036160D01*
X153529734Y-75011311D01*
X153628369Y-74992874D01*
X153830473Y-74914578D01*
X154014749Y-74800479D01*
X154174922Y-74654462D01*
X154305538Y-74481500D01*
X154402147Y-74287482D01*
X154443369Y-74142601D01*
X155981681Y-74142601D01*
X156001513Y-74369286D01*
X156001515Y-74369297D01*
X156060407Y-74589088D01*
X156060410Y-74589097D01*
X156156580Y-74795332D01*
X156156581Y-74795334D01*
X156287103Y-74981741D01*
X156448007Y-75142645D01*
X156491502Y-75173100D01*
X156634415Y-75273168D01*
X156840653Y-75369339D01*
X157060457Y-75428235D01*
X157222379Y-75442401D01*
X157287147Y-75448068D01*
X157287149Y-75448068D01*
X157287151Y-75448068D01*
X157343822Y-75443109D01*
X157513841Y-75428235D01*
X157733645Y-75369339D01*
X157939883Y-75273168D01*
X158126288Y-75142647D01*
X158287196Y-74981739D01*
X158417717Y-74795334D01*
X158513888Y-74589096D01*
X158572784Y-74369292D01*
X158592617Y-74142601D01*
X166141681Y-74142601D01*
X166161513Y-74369286D01*
X166161515Y-74369297D01*
X166220407Y-74589088D01*
X166220410Y-74589097D01*
X166316580Y-74795332D01*
X166316581Y-74795334D01*
X166447103Y-74981741D01*
X166608007Y-75142645D01*
X166651502Y-75173100D01*
X166794415Y-75273168D01*
X167000653Y-75369339D01*
X167220457Y-75428235D01*
X167382379Y-75442401D01*
X167447147Y-75448068D01*
X167447149Y-75448068D01*
X167447151Y-75448068D01*
X167503822Y-75443109D01*
X167673841Y-75428235D01*
X167893645Y-75369339D01*
X168099883Y-75273168D01*
X168286288Y-75142647D01*
X168447196Y-74981739D01*
X168577717Y-74795334D01*
X168673888Y-74589096D01*
X168732784Y-74369292D01*
X168752617Y-74142600D01*
X168732784Y-73915908D01*
X168682962Y-73729969D01*
X168673890Y-73696111D01*
X168673887Y-73696102D01*
X168577717Y-73489867D01*
X168577716Y-73489865D01*
X168447194Y-73303458D01*
X168286290Y-73142554D01*
X168099883Y-73012032D01*
X168099881Y-73012031D01*
X167893646Y-72915861D01*
X167893637Y-72915858D01*
X167673846Y-72856966D01*
X167673842Y-72856965D01*
X167673841Y-72856965D01*
X167673840Y-72856964D01*
X167673835Y-72856964D01*
X167447151Y-72837132D01*
X167447147Y-72837132D01*
X167220462Y-72856964D01*
X167220451Y-72856966D01*
X167000660Y-72915858D01*
X167000651Y-72915861D01*
X166794416Y-73012031D01*
X166794414Y-73012032D01*
X166608007Y-73142554D01*
X166447103Y-73303458D01*
X166316581Y-73489865D01*
X166316580Y-73489867D01*
X166220410Y-73696102D01*
X166220407Y-73696111D01*
X166161515Y-73915902D01*
X166161513Y-73915913D01*
X166141681Y-74142598D01*
X166141681Y-74142601D01*
X158592617Y-74142601D01*
X158592617Y-74142600D01*
X158572784Y-73915908D01*
X158522962Y-73729969D01*
X158513890Y-73696111D01*
X158513887Y-73696102D01*
X158417717Y-73489867D01*
X158417716Y-73489865D01*
X158287194Y-73303458D01*
X158126290Y-73142554D01*
X157939883Y-73012032D01*
X157939881Y-73012031D01*
X157733646Y-72915861D01*
X157733637Y-72915858D01*
X157513846Y-72856966D01*
X157513842Y-72856965D01*
X157513841Y-72856965D01*
X157513840Y-72856964D01*
X157513835Y-72856964D01*
X157287151Y-72837132D01*
X157287147Y-72837132D01*
X157060462Y-72856964D01*
X157060451Y-72856966D01*
X156840660Y-72915858D01*
X156840651Y-72915861D01*
X156634416Y-73012031D01*
X156634414Y-73012032D01*
X156448007Y-73142554D01*
X156287103Y-73303458D01*
X156156581Y-73489865D01*
X156156580Y-73489867D01*
X156060410Y-73696102D01*
X156060407Y-73696111D01*
X156001515Y-73915902D01*
X156001513Y-73915913D01*
X155981681Y-74142598D01*
X155981681Y-74142601D01*
X154443369Y-74142601D01*
X154461461Y-74079016D01*
X154481459Y-73863200D01*
X154461461Y-73647384D01*
X154402147Y-73438918D01*
X154382768Y-73400000D01*
X154307991Y-73249827D01*
X154305538Y-73244900D01*
X154174922Y-73071938D01*
X154143924Y-73043680D01*
X154014750Y-72925922D01*
X154014749Y-72925921D01*
X153903383Y-72856966D01*
X153830474Y-72811822D01*
X153830472Y-72811821D01*
X153760712Y-72784796D01*
X153628369Y-72733526D01*
X153415319Y-72693700D01*
X153198579Y-72693700D01*
X152985529Y-72733526D01*
X152941962Y-72750404D01*
X152783425Y-72811821D01*
X152783423Y-72811822D01*
X152599147Y-72925922D01*
X152438977Y-73071936D01*
X152308360Y-73244899D01*
X152211755Y-73438907D01*
X152211749Y-73438922D01*
X152152437Y-73647382D01*
X152152436Y-73647384D01*
X152132439Y-73863199D01*
X152132439Y-73863200D01*
X152152436Y-74079015D01*
X152152437Y-74079017D01*
X152211749Y-74287477D01*
X152211755Y-74287492D01*
X152308360Y-74481500D01*
X152438976Y-74654462D01*
X152599149Y-74800479D01*
X152783425Y-74914578D01*
X152985529Y-74992874D01*
X153084161Y-75011311D01*
X153146441Y-75042979D01*
X153181714Y-75103292D01*
X153178780Y-75173100D01*
X153138571Y-75230240D01*
X153084161Y-75255088D01*
X152985529Y-75273526D01*
X152929096Y-75295388D01*
X152783425Y-75351821D01*
X152783423Y-75351822D01*
X152599147Y-75465922D01*
X152438977Y-75611936D01*
X152308360Y-75784899D01*
X152211755Y-75978907D01*
X152211749Y-75978922D01*
X152152437Y-76187382D01*
X152152436Y-76187384D01*
X152132439Y-76403199D01*
X152132439Y-76403200D01*
X152152436Y-76619015D01*
X152152437Y-76619017D01*
X152211749Y-76827477D01*
X152211755Y-76827492D01*
X152308360Y-77021500D01*
X152438976Y-77194462D01*
X152599149Y-77340479D01*
X152783425Y-77454578D01*
X152985529Y-77532874D01*
X153084161Y-77551311D01*
X153146441Y-77582979D01*
X153181714Y-77643292D01*
X153178780Y-77713100D01*
X153138571Y-77770240D01*
X153084161Y-77795088D01*
X152985529Y-77813526D01*
X152929096Y-77835388D01*
X152783425Y-77891821D01*
X152783423Y-77891822D01*
X152599147Y-78005922D01*
X152438977Y-78151936D01*
X152308360Y-78324899D01*
X152211755Y-78518907D01*
X152211749Y-78518922D01*
X152152437Y-78727382D01*
X152152436Y-78727384D01*
X152132439Y-78943199D01*
X152132439Y-78943200D01*
X152152436Y-79159015D01*
X152152437Y-79159017D01*
X152211749Y-79367477D01*
X152211755Y-79367492D01*
X152304028Y-79552800D01*
X152308360Y-79561500D01*
X152438976Y-79734462D01*
X152599149Y-79880479D01*
X152675191Y-79927562D01*
X152782699Y-79994129D01*
X152783425Y-79994578D01*
X152985529Y-80072874D01*
X153084161Y-80091311D01*
X153146441Y-80122979D01*
X153181714Y-80183292D01*
X153178780Y-80253100D01*
X153138571Y-80310240D01*
X153084161Y-80335088D01*
X152985529Y-80353526D01*
X152929096Y-80375388D01*
X152783425Y-80431821D01*
X152783423Y-80431822D01*
X152599147Y-80545922D01*
X152438977Y-80691936D01*
X152308360Y-80864899D01*
X152211755Y-81058907D01*
X152211749Y-81058922D01*
X152152437Y-81267382D01*
X152152436Y-81267384D01*
X152132439Y-81483199D01*
X152132439Y-81483200D01*
X146541459Y-81483200D01*
X146521461Y-81267384D01*
X146462147Y-81058918D01*
X146365538Y-80864900D01*
X146234922Y-80691938D01*
X146225523Y-80683370D01*
X146074750Y-80545922D01*
X146074749Y-80545921D01*
X146004573Y-80502469D01*
X145890474Y-80431822D01*
X145890472Y-80431821D01*
X145787524Y-80391939D01*
X145688369Y-80353526D01*
X145588374Y-80334833D01*
X145526095Y-80303165D01*
X145490822Y-80242853D01*
X145493756Y-80173045D01*
X145533965Y-80115905D01*
X145588377Y-80091056D01*
X145688228Y-80072391D01*
X145688230Y-80072390D01*
X145890248Y-79994129D01*
X145890249Y-79994128D01*
X145997758Y-79927561D01*
X145426957Y-79356760D01*
X145527133Y-79329918D01*
X145621765Y-79275283D01*
X145699032Y-79198016D01*
X145753667Y-79103384D01*
X145780509Y-79003208D01*
X146353675Y-79576374D01*
X146353677Y-79576374D01*
X146365110Y-79561236D01*
X146461677Y-79367304D01*
X146520967Y-79158918D01*
X146540957Y-78943200D01*
X146540957Y-78943199D01*
X146520967Y-78727481D01*
X146461677Y-78519095D01*
X146365111Y-78325166D01*
X146365110Y-78325163D01*
X146353675Y-78310023D01*
X145780509Y-78883191D01*
X145753667Y-78783016D01*
X145699032Y-78688384D01*
X145621765Y-78611117D01*
X145527133Y-78556482D01*
X145426957Y-78529639D01*
X145997758Y-77958837D01*
X145997757Y-77958836D01*
X145890252Y-77892273D01*
X145890246Y-77892270D01*
X145688229Y-77814009D01*
X145588376Y-77795343D01*
X145526095Y-77763675D01*
X145490822Y-77703362D01*
X145493756Y-77633554D01*
X145533965Y-77576414D01*
X145588372Y-77551566D01*
X145688369Y-77532874D01*
X145890473Y-77454578D01*
X146074749Y-77340479D01*
X146234922Y-77194462D01*
X146365538Y-77021500D01*
X146462147Y-76827482D01*
X146521461Y-76619016D01*
X146541459Y-76403200D01*
X146521461Y-76187384D01*
X146462147Y-75978918D01*
X146365538Y-75784900D01*
X146234922Y-75611938D01*
X146074749Y-75465921D01*
X146004573Y-75422469D01*
X145890474Y-75351822D01*
X145890472Y-75351821D01*
X145810228Y-75320734D01*
X145688369Y-75273526D01*
X145688364Y-75273525D01*
X145685269Y-75272326D01*
X145629868Y-75229753D01*
X145606277Y-75163986D01*
X145621988Y-75095906D01*
X145672012Y-75047127D01*
X145730062Y-75032699D01*
X146083821Y-75032699D01*
X146143432Y-75026291D01*
X146278280Y-74975996D01*
X146393495Y-74889746D01*
X146479745Y-74774531D01*
X146530040Y-74639683D01*
X146536449Y-74580073D01*
X146536448Y-73146328D01*
X146530040Y-73086717D01*
X146513988Y-73043680D01*
X146479746Y-72951871D01*
X146479742Y-72951864D01*
X146393496Y-72836655D01*
X146393493Y-72836652D01*
X146278284Y-72750406D01*
X146278277Y-72750402D01*
X146143431Y-72700108D01*
X146143432Y-72700108D01*
X146083832Y-72693701D01*
X146083830Y-72693700D01*
X146083822Y-72693700D01*
X146083813Y-72693700D01*
X144650078Y-72693700D01*
X144650072Y-72693701D01*
X144590465Y-72700108D01*
X144455620Y-72750402D01*
X144455613Y-72750406D01*
X144340404Y-72836652D01*
X144340401Y-72836655D01*
X144254155Y-72951864D01*
X144254151Y-72951871D01*
X144203857Y-73086717D01*
X144197450Y-73146316D01*
X144197450Y-73146323D01*
X144197449Y-73146335D01*
X144197449Y-74580070D01*
X144197450Y-74580076D01*
X144203857Y-74639683D01*
X144254151Y-74774528D01*
X144254155Y-74774535D01*
X144340401Y-74889744D01*
X144340404Y-74889747D01*
X144455613Y-74975993D01*
X144455620Y-74975997D01*
X144590466Y-75026291D01*
X144590465Y-75026291D01*
X144597393Y-75027035D01*
X144650076Y-75032700D01*
X145003835Y-75032699D01*
X145070872Y-75052383D01*
X145116627Y-75105187D01*
X145126571Y-75174346D01*
X145097546Y-75237901D01*
X145048627Y-75272326D01*
X144843425Y-75351821D01*
X144843423Y-75351822D01*
X144659147Y-75465922D01*
X144498977Y-75611936D01*
X144368360Y-75784899D01*
X144271755Y-75978907D01*
X144271749Y-75978922D01*
X144212437Y-76187382D01*
X144212436Y-76187384D01*
X144192439Y-76403199D01*
X144192439Y-76403200D01*
X144212436Y-76619015D01*
X144212437Y-76619017D01*
X144271749Y-76827477D01*
X144271755Y-76827492D01*
X144368360Y-77021500D01*
X144498976Y-77194462D01*
X144659149Y-77340479D01*
X144843425Y-77454578D01*
X145045529Y-77532874D01*
X145145523Y-77551566D01*
X145207802Y-77583233D01*
X145243075Y-77643545D01*
X145240141Y-77713353D01*
X145199932Y-77770494D01*
X145145522Y-77795343D01*
X145045667Y-77814009D01*
X144843651Y-77892270D01*
X144843648Y-77892271D01*
X144736138Y-77958836D01*
X144736138Y-77958837D01*
X145306941Y-78529639D01*
X145206765Y-78556482D01*
X145112133Y-78611117D01*
X145034866Y-78688384D01*
X144980231Y-78783016D01*
X144953388Y-78883191D01*
X144380220Y-78310023D01*
X144368791Y-78325157D01*
X144368783Y-78325170D01*
X144272220Y-78519095D01*
X144212930Y-78727481D01*
X144192941Y-78943199D01*
X144192941Y-78943200D01*
X144212930Y-79158918D01*
X144272220Y-79367304D01*
X144368785Y-79561233D01*
X144368787Y-79561236D01*
X144380219Y-79576374D01*
X144953388Y-79003207D01*
X144980231Y-79103384D01*
X145034866Y-79198016D01*
X145112133Y-79275283D01*
X145206765Y-79329918D01*
X145306941Y-79356760D01*
X144736138Y-79927561D01*
X144736139Y-79927562D01*
X144843645Y-79994127D01*
X144843651Y-79994129D01*
X145045667Y-80072390D01*
X145045669Y-80072391D01*
X145145520Y-80091056D01*
X145207801Y-80122724D01*
X145243075Y-80183036D01*
X145240142Y-80252844D01*
X145199933Y-80309984D01*
X145145522Y-80334833D01*
X145045540Y-80353523D01*
X145045531Y-80353525D01*
X145045529Y-80353526D01*
X144989096Y-80375388D01*
X144843425Y-80431821D01*
X144843423Y-80431822D01*
X144659147Y-80545922D01*
X144498977Y-80691936D01*
X144368360Y-80864899D01*
X144271755Y-81058907D01*
X144271749Y-81058922D01*
X144212437Y-81267382D01*
X144212436Y-81267384D01*
X144192439Y-81483199D01*
X144192439Y-81483200D01*
X137800500Y-81483200D01*
X137800500Y-73850254D01*
X137820185Y-73783215D01*
X137872989Y-73737460D01*
X137916477Y-73729969D01*
X138600000Y-73046446D01*
X138600000Y-73052661D01*
X138627259Y-73154394D01*
X138679920Y-73245606D01*
X138754394Y-73320080D01*
X138845606Y-73372741D01*
X138947339Y-73400000D01*
X138953553Y-73400000D01*
X138274526Y-74079025D01*
X138347513Y-74130132D01*
X138347521Y-74130136D01*
X138553668Y-74226264D01*
X138553682Y-74226269D01*
X138773389Y-74285139D01*
X138773400Y-74285141D01*
X138999998Y-74304966D01*
X139000002Y-74304966D01*
X139226599Y-74285141D01*
X139226610Y-74285139D01*
X139446317Y-74226269D01*
X139446331Y-74226264D01*
X139652478Y-74130136D01*
X139725471Y-74079024D01*
X139046447Y-73400000D01*
X139052661Y-73400000D01*
X139154394Y-73372741D01*
X139245606Y-73320080D01*
X139320080Y-73245606D01*
X139372741Y-73154394D01*
X139400000Y-73052661D01*
X139400000Y-73046447D01*
X140079024Y-73725471D01*
X140130136Y-73652478D01*
X140226264Y-73446331D01*
X140226269Y-73446317D01*
X140285139Y-73226610D01*
X140285141Y-73226599D01*
X140304966Y-73000002D01*
X140304966Y-72999997D01*
X140285141Y-72773400D01*
X140285139Y-72773389D01*
X140226269Y-72553682D01*
X140226264Y-72553668D01*
X140130136Y-72347521D01*
X140130132Y-72347513D01*
X140079025Y-72274526D01*
X139400000Y-72953551D01*
X139400000Y-72947339D01*
X139372741Y-72845606D01*
X139320080Y-72754394D01*
X139245606Y-72679920D01*
X139154394Y-72627259D01*
X139052661Y-72600000D01*
X139046448Y-72600000D01*
X139725472Y-71920974D01*
X139652478Y-71869863D01*
X139446331Y-71773735D01*
X139446317Y-71773730D01*
X139226610Y-71714860D01*
X139226599Y-71714858D01*
X139000002Y-71695034D01*
X138999998Y-71695034D01*
X138773400Y-71714858D01*
X138773389Y-71714860D01*
X138553682Y-71773730D01*
X138553673Y-71773734D01*
X138347516Y-71869866D01*
X138347512Y-71869868D01*
X138274526Y-71920973D01*
X138274526Y-71920974D01*
X138953553Y-72600000D01*
X138947339Y-72600000D01*
X138845606Y-72627259D01*
X138754394Y-72679920D01*
X138679920Y-72754394D01*
X138627259Y-72845606D01*
X138600000Y-72947339D01*
X138600000Y-72953552D01*
X137915799Y-72269351D01*
X137866806Y-72259505D01*
X137816624Y-72210889D01*
X137800500Y-72149744D01*
X137800500Y-70665782D01*
X137820185Y-70598743D01*
X137836819Y-70578101D01*
X138878101Y-69536819D01*
X138939424Y-69503334D01*
X138965782Y-69500500D01*
X139118097Y-69500500D01*
X139351368Y-69463553D01*
X139575992Y-69390568D01*
X139726237Y-69314013D01*
X139782532Y-69300499D01*
X139847871Y-69300499D01*
X139847872Y-69300499D01*
X139907483Y-69294091D01*
X140042331Y-69243796D01*
X140157546Y-69157546D01*
X140243796Y-69042331D01*
X140294091Y-68907483D01*
X140300500Y-68847873D01*
X140300499Y-68782529D01*
X140314013Y-68726237D01*
X140390568Y-68575992D01*
X140463553Y-68351368D01*
X140481243Y-68239680D01*
X140500500Y-68118097D01*
X140500500Y-67919602D01*
X145419583Y-67919602D01*
X145439407Y-68146199D01*
X145439409Y-68146210D01*
X145498279Y-68365917D01*
X145498284Y-68365931D01*
X145594412Y-68572078D01*
X145645523Y-68645072D01*
X146324549Y-67966046D01*
X146324549Y-67972261D01*
X146351808Y-68073994D01*
X146404469Y-68165206D01*
X146478943Y-68239680D01*
X146570155Y-68292341D01*
X146671888Y-68319600D01*
X146678102Y-68319600D01*
X145999075Y-68998625D01*
X146072062Y-69049732D01*
X146072070Y-69049736D01*
X146278217Y-69145864D01*
X146278231Y-69145869D01*
X146497938Y-69204739D01*
X146497949Y-69204741D01*
X146724547Y-69224566D01*
X146724551Y-69224566D01*
X146951148Y-69204741D01*
X146951159Y-69204739D01*
X147170866Y-69145869D01*
X147170880Y-69145864D01*
X147377027Y-69049736D01*
X147450020Y-68998624D01*
X147218866Y-68767470D01*
X150424049Y-68767470D01*
X150424050Y-68767476D01*
X150430457Y-68827083D01*
X150480751Y-68961928D01*
X150480755Y-68961935D01*
X150567001Y-69077144D01*
X150567004Y-69077147D01*
X150682213Y-69163393D01*
X150682220Y-69163397D01*
X150817066Y-69213691D01*
X150817065Y-69213691D01*
X150823993Y-69214435D01*
X150876676Y-69220100D01*
X152572421Y-69220099D01*
X152632032Y-69213691D01*
X152766880Y-69163396D01*
X152882095Y-69077146D01*
X152968345Y-68961931D01*
X153018640Y-68827083D01*
X153025049Y-68767473D01*
X153025048Y-67071728D01*
X153018640Y-67012117D01*
X152968345Y-66877269D01*
X152968344Y-66877268D01*
X152968342Y-66877264D01*
X152882096Y-66762055D01*
X152882093Y-66762052D01*
X152766884Y-66675806D01*
X152766877Y-66675802D01*
X152632031Y-66625508D01*
X152632032Y-66625508D01*
X152572432Y-66619101D01*
X152572430Y-66619100D01*
X152572422Y-66619100D01*
X152572413Y-66619100D01*
X150876678Y-66619100D01*
X150876672Y-66619101D01*
X150817065Y-66625508D01*
X150682220Y-66675802D01*
X150682213Y-66675806D01*
X150567004Y-66762052D01*
X150567001Y-66762055D01*
X150480755Y-66877264D01*
X150480751Y-66877271D01*
X150430457Y-67012117D01*
X150424050Y-67071716D01*
X150424050Y-67071723D01*
X150424049Y-67071735D01*
X150424049Y-68767470D01*
X147218866Y-68767470D01*
X146770996Y-68319600D01*
X146777210Y-68319600D01*
X146878943Y-68292341D01*
X146970155Y-68239680D01*
X147044629Y-68165206D01*
X147097290Y-68073994D01*
X147124549Y-67972261D01*
X147124549Y-67966047D01*
X147803573Y-68645071D01*
X147854685Y-68572078D01*
X147950813Y-68365931D01*
X147950818Y-68365917D01*
X148009688Y-68146210D01*
X148009690Y-68146199D01*
X148029515Y-67919602D01*
X148029515Y-67919597D01*
X148009690Y-67693000D01*
X148009688Y-67692989D01*
X147950818Y-67473282D01*
X147950813Y-67473268D01*
X147854685Y-67267121D01*
X147854681Y-67267113D01*
X147803574Y-67194126D01*
X147124549Y-67873151D01*
X147124549Y-67866939D01*
X147097290Y-67765206D01*
X147044629Y-67673994D01*
X146970155Y-67599520D01*
X146878943Y-67546859D01*
X146777210Y-67519600D01*
X146770997Y-67519600D01*
X147450021Y-66840574D01*
X147377027Y-66789463D01*
X147170880Y-66693335D01*
X147170866Y-66693330D01*
X146951159Y-66634460D01*
X146951148Y-66634458D01*
X146724551Y-66614634D01*
X146724547Y-66614634D01*
X146497949Y-66634458D01*
X146497938Y-66634460D01*
X146278231Y-66693330D01*
X146278222Y-66693334D01*
X146072065Y-66789466D01*
X146072061Y-66789468D01*
X145999075Y-66840573D01*
X145999075Y-66840574D01*
X146678102Y-67519600D01*
X146671888Y-67519600D01*
X146570155Y-67546859D01*
X146478943Y-67599520D01*
X146404469Y-67673994D01*
X146351808Y-67765206D01*
X146324549Y-67866939D01*
X146324549Y-67873152D01*
X145645523Y-67194126D01*
X145645522Y-67194126D01*
X145594417Y-67267112D01*
X145594415Y-67267116D01*
X145498283Y-67473273D01*
X145498279Y-67473282D01*
X145439409Y-67692989D01*
X145439407Y-67693000D01*
X145419583Y-67919597D01*
X145419583Y-67919602D01*
X140500500Y-67919602D01*
X140500500Y-64881902D01*
X140463553Y-64648631D01*
X140390566Y-64424003D01*
X140344067Y-64332745D01*
X140344066Y-64332744D01*
X140318572Y-64282708D01*
X140283343Y-64213566D01*
X140144517Y-64022490D01*
X138922510Y-62800483D01*
X138731434Y-62661657D01*
X138701583Y-62646447D01*
X138520996Y-62554433D01*
X138296368Y-62481446D01*
X138063097Y-62444500D01*
X138063092Y-62444500D01*
X135421908Y-62444500D01*
X135421903Y-62444500D01*
X135188631Y-62481446D01*
X134964003Y-62554433D01*
X134753566Y-62661657D01*
X134697119Y-62702669D01*
X134562490Y-62800483D01*
X134562488Y-62800485D01*
X134562487Y-62800485D01*
X134395482Y-62967490D01*
X134357906Y-63019209D01*
X134302575Y-63061874D01*
X134232962Y-63067852D01*
X134171167Y-63035245D01*
X134157271Y-63019207D01*
X134107907Y-62951263D01*
X134107902Y-62951257D01*
X133946242Y-62789597D01*
X133761276Y-62655211D01*
X133557568Y-62551417D01*
X133340124Y-62480765D01*
X133250000Y-62466490D01*
X133250000Y-63454252D01*
X133212292Y-63432482D01*
X133072409Y-63395000D01*
X132927591Y-63395000D01*
X132787708Y-63432482D01*
X132750000Y-63454252D01*
X132750000Y-62466490D01*
X132749999Y-62466490D01*
X132659875Y-62480765D01*
X132442431Y-62551417D01*
X132238719Y-62655213D01*
X132055939Y-62788010D01*
X131990132Y-62811490D01*
X131922079Y-62795664D01*
X131873384Y-62745558D01*
X131866875Y-62731033D01*
X131856296Y-62702669D01*
X131856295Y-62702667D01*
X131856293Y-62702664D01*
X131770047Y-62587455D01*
X131770044Y-62587452D01*
X131654835Y-62501206D01*
X131654828Y-62501202D01*
X131519982Y-62450908D01*
X131519983Y-62450908D01*
X131460383Y-62444501D01*
X131460381Y-62444500D01*
X131460373Y-62444500D01*
X131460364Y-62444500D01*
X129459629Y-62444500D01*
X129459623Y-62444501D01*
X129400016Y-62450908D01*
X129265171Y-62501202D01*
X129265164Y-62501206D01*
X129149955Y-62587452D01*
X129149952Y-62587455D01*
X129063706Y-62702664D01*
X129063702Y-62702671D01*
X129013408Y-62837517D01*
X129007001Y-62897116D01*
X129007000Y-62897135D01*
X129007000Y-64992870D01*
X129007001Y-64992876D01*
X129013408Y-65052483D01*
X129063702Y-65187328D01*
X129063706Y-65187335D01*
X129149952Y-65302544D01*
X129149955Y-65302547D01*
X129265164Y-65388793D01*
X129265171Y-65388797D01*
X129400017Y-65439091D01*
X129400016Y-65439091D01*
X129406944Y-65439835D01*
X129459627Y-65445500D01*
X131460372Y-65445499D01*
X131519983Y-65439091D01*
X131654831Y-65388796D01*
X131770046Y-65302546D01*
X131856296Y-65187331D01*
X131866872Y-65158974D01*
X131908740Y-65103041D01*
X131974204Y-65078622D01*
X132042477Y-65093472D01*
X132055940Y-65101988D01*
X132238723Y-65234788D01*
X132442429Y-65338582D01*
X132659871Y-65409234D01*
X132750000Y-65423509D01*
X132750000Y-64435747D01*
X132787708Y-64457518D01*
X132927591Y-64495000D01*
X133072409Y-64495000D01*
X133212292Y-64457518D01*
X133250000Y-64435747D01*
X133250000Y-65423508D01*
X133340128Y-65409234D01*
X133557570Y-65338582D01*
X133761276Y-65234788D01*
X133946242Y-65100402D01*
X134107905Y-64938739D01*
X134157270Y-64870793D01*
X134212600Y-64828126D01*
X134282213Y-64822147D01*
X134344008Y-64854752D01*
X134357905Y-64870789D01*
X134395483Y-64922510D01*
X134562490Y-65089517D01*
X134753567Y-65228343D01*
X134852991Y-65279002D01*
X134964003Y-65335566D01*
X134964005Y-65335566D01*
X134964008Y-65335568D01*
X135084412Y-65374689D01*
X135188631Y-65408553D01*
X135421903Y-65445500D01*
X135421908Y-65445500D01*
X135425646Y-65445500D01*
X135654354Y-65445500D01*
X137272111Y-65445500D01*
X137339150Y-65465185D01*
X137359792Y-65481819D01*
X137463181Y-65585208D01*
X137496666Y-65646531D01*
X137499500Y-65672889D01*
X137499500Y-68034217D01*
X137479815Y-68101256D01*
X137463181Y-68121898D01*
X136830186Y-68754893D01*
X136162221Y-69422858D01*
X136162218Y-69422861D01*
X136121526Y-69463553D01*
X136022859Y-69562219D01*
X135913371Y-69726079D01*
X135913364Y-69726092D01*
X135837950Y-69908160D01*
X135837947Y-69908170D01*
X135799500Y-70101456D01*
X135799500Y-78830595D01*
X135779815Y-78897634D01*
X135727011Y-78943389D01*
X135657853Y-78953333D01*
X135594297Y-78924308D01*
X135573925Y-78901718D01*
X135442245Y-78713658D01*
X135281341Y-78552754D01*
X135094934Y-78422232D01*
X135094932Y-78422231D01*
X134888697Y-78326061D01*
X134888688Y-78326058D01*
X134668897Y-78267166D01*
X134668893Y-78267165D01*
X134668892Y-78267165D01*
X134668891Y-78267164D01*
X134668886Y-78267164D01*
X134442202Y-78247332D01*
X134442198Y-78247332D01*
X134215513Y-78267164D01*
X134215502Y-78267166D01*
X133995711Y-78326058D01*
X133995702Y-78326061D01*
X133789467Y-78422231D01*
X133789465Y-78422232D01*
X133603058Y-78552754D01*
X133442154Y-78713658D01*
X133365650Y-78822918D01*
X133312081Y-78899424D01*
X133257507Y-78943048D01*
X133210508Y-78952300D01*
X125552897Y-78952300D01*
X125485858Y-78932615D01*
X125465216Y-78915981D01*
X123936819Y-77387584D01*
X123903334Y-77326261D01*
X123900500Y-77299903D01*
X123900500Y-72597351D01*
X128695034Y-72597351D01*
X128714858Y-72823948D01*
X128714860Y-72823959D01*
X128773730Y-73043666D01*
X128773735Y-73043680D01*
X128869863Y-73249827D01*
X128920974Y-73322821D01*
X129600000Y-72643795D01*
X129600000Y-72650010D01*
X129627259Y-72751743D01*
X129679920Y-72842955D01*
X129754394Y-72917429D01*
X129845606Y-72970090D01*
X129947339Y-72997349D01*
X129953553Y-72997349D01*
X129274526Y-73676374D01*
X129347513Y-73727481D01*
X129347521Y-73727485D01*
X129553668Y-73823613D01*
X129553682Y-73823618D01*
X129773389Y-73882488D01*
X129773400Y-73882490D01*
X129999998Y-73902315D01*
X130000002Y-73902315D01*
X130226599Y-73882490D01*
X130226610Y-73882488D01*
X130446317Y-73823618D01*
X130446331Y-73823613D01*
X130652478Y-73727485D01*
X130725471Y-73676373D01*
X130046447Y-72997349D01*
X130052661Y-72997349D01*
X130154394Y-72970090D01*
X130245606Y-72917429D01*
X130320080Y-72842955D01*
X130372741Y-72751743D01*
X130400000Y-72650010D01*
X130400000Y-72643796D01*
X131079024Y-73322820D01*
X131130136Y-73249827D01*
X131226264Y-73043680D01*
X131226269Y-73043666D01*
X131285139Y-72823959D01*
X131285141Y-72823948D01*
X131304966Y-72597351D01*
X131304966Y-72597346D01*
X131285141Y-72370749D01*
X131285139Y-72370738D01*
X131226269Y-72151031D01*
X131226264Y-72151017D01*
X131130136Y-71944870D01*
X131130132Y-71944862D01*
X131079025Y-71871875D01*
X130400000Y-72550900D01*
X130400000Y-72544688D01*
X130372741Y-72442955D01*
X130320080Y-72351743D01*
X130245606Y-72277269D01*
X130154394Y-72224608D01*
X130052661Y-72197349D01*
X130046448Y-72197349D01*
X130725472Y-71518323D01*
X130652478Y-71467212D01*
X130446331Y-71371084D01*
X130446317Y-71371079D01*
X130226610Y-71312209D01*
X130226599Y-71312207D01*
X130000002Y-71292383D01*
X129999998Y-71292383D01*
X129773400Y-71312207D01*
X129773389Y-71312209D01*
X129553682Y-71371079D01*
X129553673Y-71371083D01*
X129347516Y-71467215D01*
X129347512Y-71467217D01*
X129274526Y-71518322D01*
X129274526Y-71518323D01*
X129953553Y-72197349D01*
X129947339Y-72197349D01*
X129845606Y-72224608D01*
X129754394Y-72277269D01*
X129679920Y-72351743D01*
X129627259Y-72442955D01*
X129600000Y-72544688D01*
X129600000Y-72550901D01*
X128920974Y-71871875D01*
X128920973Y-71871875D01*
X128869868Y-71944861D01*
X128869866Y-71944865D01*
X128773734Y-72151022D01*
X128773730Y-72151031D01*
X128714860Y-72370738D01*
X128714858Y-72370749D01*
X128695034Y-72597346D01*
X128695034Y-72597351D01*
X123900500Y-72597351D01*
X123900500Y-71582412D01*
X123920185Y-71515373D01*
X123927555Y-71505097D01*
X123929810Y-71502267D01*
X123929816Y-71502262D01*
X124025789Y-71349522D01*
X124085368Y-71179255D01*
X124105565Y-71000000D01*
X124085368Y-70820745D01*
X124025789Y-70650478D01*
X123929816Y-70497738D01*
X123802262Y-70370184D01*
X123649523Y-70274211D01*
X123479254Y-70214631D01*
X123479249Y-70214630D01*
X123300004Y-70194435D01*
X123299996Y-70194435D01*
X123120750Y-70214630D01*
X123120745Y-70214631D01*
X122950476Y-70274211D01*
X122797737Y-70370184D01*
X122670184Y-70497737D01*
X122574211Y-70650476D01*
X122514631Y-70820745D01*
X122514630Y-70820750D01*
X122494435Y-70999996D01*
X122494435Y-71000003D01*
X109796700Y-71000003D01*
X109796700Y-68445219D01*
X128699500Y-68445219D01*
X128699501Y-68445225D01*
X128705908Y-68504832D01*
X128756202Y-68639677D01*
X128756206Y-68639684D01*
X128842452Y-68754893D01*
X128842455Y-68754896D01*
X128957664Y-68841142D01*
X128957671Y-68841146D01*
X129092517Y-68891440D01*
X129092516Y-68891440D01*
X129099444Y-68892184D01*
X129152127Y-68897849D01*
X130847872Y-68897848D01*
X130907483Y-68891440D01*
X131042331Y-68841145D01*
X131157546Y-68754895D01*
X131243796Y-68639680D01*
X131294091Y-68504832D01*
X131300500Y-68445222D01*
X131300499Y-66749477D01*
X131294091Y-66689866D01*
X131288846Y-66675804D01*
X131243797Y-66555020D01*
X131243793Y-66555013D01*
X131157547Y-66439804D01*
X131157544Y-66439801D01*
X131042335Y-66353555D01*
X131042328Y-66353551D01*
X130907482Y-66303257D01*
X130907483Y-66303257D01*
X130847883Y-66296850D01*
X130847881Y-66296849D01*
X130847873Y-66296849D01*
X130847864Y-66296849D01*
X129152129Y-66296849D01*
X129152123Y-66296850D01*
X129092516Y-66303257D01*
X128957671Y-66353551D01*
X128957664Y-66353555D01*
X128842455Y-66439801D01*
X128842452Y-66439804D01*
X128756206Y-66555013D01*
X128756202Y-66555020D01*
X128705908Y-66689866D01*
X128699501Y-66749465D01*
X128699501Y-66749472D01*
X128699500Y-66749484D01*
X128699500Y-68445219D01*
X109796700Y-68445219D01*
X109796700Y-64347870D01*
X117699500Y-64347870D01*
X117699501Y-64347876D01*
X117705908Y-64407483D01*
X117756202Y-64542328D01*
X117756206Y-64542335D01*
X117842452Y-64657544D01*
X117842455Y-64657547D01*
X117957664Y-64743793D01*
X117957671Y-64743797D01*
X118092517Y-64794091D01*
X118092516Y-64794091D01*
X118099444Y-64794835D01*
X118152127Y-64800500D01*
X120847872Y-64800499D01*
X120907483Y-64794091D01*
X121042331Y-64743796D01*
X121157546Y-64657546D01*
X121243796Y-64542331D01*
X121294091Y-64407483D01*
X121300500Y-64347873D01*
X121300499Y-64110238D01*
X121320183Y-64043202D01*
X121372987Y-63997447D01*
X121442146Y-63987503D01*
X121505701Y-64016528D01*
X121521446Y-64032928D01*
X121562294Y-64084151D01*
X121562295Y-64084151D01*
X122398958Y-63247488D01*
X122423978Y-63307890D01*
X122495112Y-63414351D01*
X122585649Y-63504888D01*
X122692110Y-63576022D01*
X122752510Y-63601041D01*
X121914848Y-64438702D01*
X122097483Y-64563220D01*
X122097485Y-64563221D01*
X122340539Y-64680269D01*
X122340537Y-64680269D01*
X122598337Y-64759790D01*
X122598343Y-64759792D01*
X122865101Y-64799999D01*
X122865110Y-64800000D01*
X123134890Y-64800000D01*
X123134898Y-64799999D01*
X123401656Y-64759792D01*
X123401662Y-64759790D01*
X123659461Y-64680269D01*
X123902521Y-64563218D01*
X124085150Y-64438702D01*
X123247488Y-63601041D01*
X123307890Y-63576022D01*
X123414351Y-63504888D01*
X123504888Y-63414351D01*
X123576022Y-63307890D01*
X123601041Y-63247488D01*
X124437703Y-64084151D01*
X124437704Y-64084150D01*
X124491393Y-64016828D01*
X124491400Y-64016817D01*
X124626290Y-63783181D01*
X124724851Y-63532052D01*
X124724857Y-63532033D01*
X124784886Y-63269028D01*
X124784886Y-63269026D01*
X124805047Y-63000004D01*
X124805047Y-62999995D01*
X124784886Y-62730973D01*
X124784886Y-62730971D01*
X124724857Y-62467966D01*
X124724851Y-62467947D01*
X124626290Y-62216818D01*
X124626291Y-62216818D01*
X124491397Y-61983177D01*
X124437704Y-61915847D01*
X123601041Y-62752510D01*
X123576022Y-62692110D01*
X123504888Y-62585649D01*
X123414351Y-62495112D01*
X123307890Y-62423978D01*
X123247488Y-62398958D01*
X124085150Y-61561296D01*
X123902517Y-61436779D01*
X123902516Y-61436778D01*
X123659460Y-61319730D01*
X123659462Y-61319730D01*
X123401662Y-61240209D01*
X123401656Y-61240207D01*
X123134898Y-61200000D01*
X122865101Y-61200000D01*
X122598343Y-61240207D01*
X122598337Y-61240209D01*
X122340538Y-61319730D01*
X122097485Y-61436778D01*
X122097476Y-61436783D01*
X121914848Y-61561296D01*
X122752511Y-62398958D01*
X122692110Y-62423978D01*
X122585649Y-62495112D01*
X122495112Y-62585649D01*
X122423978Y-62692110D01*
X122398958Y-62752511D01*
X121562295Y-61915848D01*
X121562294Y-61915848D01*
X121521447Y-61967071D01*
X121464259Y-62007212D01*
X121394447Y-62010062D01*
X121334177Y-61974717D01*
X121302583Y-61912399D01*
X121300499Y-61889759D01*
X121300499Y-61652129D01*
X121300498Y-61652123D01*
X121300497Y-61652116D01*
X121294091Y-61592517D01*
X121282446Y-61561296D01*
X121243797Y-61457671D01*
X121243793Y-61457664D01*
X121157547Y-61342455D01*
X121157544Y-61342452D01*
X121042335Y-61256206D01*
X121042328Y-61256202D01*
X120907482Y-61205908D01*
X120907483Y-61205908D01*
X120847883Y-61199501D01*
X120847881Y-61199500D01*
X120847873Y-61199500D01*
X120847864Y-61199500D01*
X118152129Y-61199500D01*
X118152123Y-61199501D01*
X118092516Y-61205908D01*
X117957671Y-61256202D01*
X117957664Y-61256206D01*
X117842455Y-61342452D01*
X117842452Y-61342455D01*
X117756206Y-61457664D01*
X117756202Y-61457671D01*
X117705908Y-61592517D01*
X117699501Y-61652116D01*
X117699501Y-61652123D01*
X117699500Y-61652135D01*
X117699500Y-64347870D01*
X109796700Y-64347870D01*
X109796700Y-58587300D01*
X109816385Y-58520261D01*
X109869189Y-58474506D01*
X109920700Y-58463300D01*
X189240500Y-58463300D01*
X189307539Y-58482985D01*
G37*
%TD.AperFunction*%
%TD*%
M02*
