M48
; DRILL file {KiCad 8.0.1} date 2024-04-25T09:29:04+0530
; FORMAT={-:-/ absolute / inch / decimal}
; #@! TF.CreationDate,2024-04-25T09:29:04+05:30
; #@! TF.GenerationSoftware,Kicad,Pcbnew,8.0.1
; #@! TF.FileFunction,Plated,1,2,PTH
FMAT,2
INCH
; #@! TA.AperFunction,Plated,PTH,ViaDrill
T1C0.0118
; #@! TA.AperFunction,Plated,PTH,ViaDrill
T2C0.0197
; #@! TA.AperFunction,Plated,PTH,ComponentDrill
T3C0.0315
; #@! TA.AperFunction,Plated,PTH,ComponentDrill
T4C0.0327
; #@! TA.AperFunction,Plated,PTH,ComponentDrill
T5C0.0394
; #@! TA.AperFunction,Plated,PTH,ComponentDrill
T6C0.0433
; #@! TA.AperFunction,Plated,PTH,ComponentDrill
T7C0.0512
%
G90
G05
T1
X4.8543Y-2.7953
T2
X6.736Y-3.711
X6.74Y-3.341
T3
X5.1181Y-2.6613
X5.1181Y-2.8582
X5.4724Y-2.6772
X5.4724Y-2.874
X5.525Y-4.18
X5.525Y-4.58
X5.654Y-4.352
X5.654Y-4.752
X5.674Y-4.202
X5.771Y-4.367
X5.7766Y-2.674
X5.7921Y-3.505
X5.9734Y-2.674
X5.989Y-3.505
X6.074Y-4.202
X6.171Y-4.367
X6.18Y-4.038
X6.1834Y-3.859
X6.1924Y-2.919
X6.1934Y-3.059
X6.43Y-3.3847
X6.43Y-3.5816
X6.58Y-4.038
X6.5834Y-3.859
X6.5924Y-2.919
X6.5934Y-3.059
T4
X5.7231Y-2.908
X5.7231Y-3.008
X5.7231Y-3.108
X5.7231Y-3.208
X5.7351Y-3.763
X5.7351Y-3.863
X5.7351Y-3.963
X5.7351Y-4.063
X6.0357Y-2.908
X6.0357Y-3.008
X6.0357Y-3.108
X6.0357Y-3.208
X6.0477Y-3.763
X6.0477Y-3.863
X6.0477Y-3.963
X6.0477Y-4.063
T5
X4.693Y-3.132
X4.693Y-3.232
X4.693Y-3.332
X4.693Y-3.432
X4.693Y-3.532
X4.693Y-3.632
X4.693Y-3.732
X4.693Y-3.832
X4.693Y-3.932
X4.693Y-4.032
X4.693Y-4.132
X4.693Y-4.232
X4.693Y-4.332
X4.693Y-4.432
X4.693Y-4.532
X5.293Y-3.132
X5.293Y-3.232
X5.293Y-3.332
X5.293Y-3.432
X5.293Y-3.532
X5.293Y-3.632
X5.293Y-3.732
X5.293Y-3.832
X5.293Y-3.932
X5.293Y-4.032
X5.293Y-4.132
X5.293Y-4.232
X5.293Y-4.332
X5.293Y-4.432
X5.293Y-4.532
T6
X5.1362Y-2.5175
X5.2362Y-2.5175
X5.3362Y-2.5175
T7
X4.7047Y-2.4803
X4.8425Y-2.4803
X7.266Y-3.4362
X7.266Y-3.574
M30
